<svg width="26" height="24" viewBox="0 0 26 24" fill="none" xmlns="http://www.w3.org/2000/svg">
<path d="M13.713 14.712C13.521 14.904 13.2833 15 13 15C12.7167 15 12.4793 14.9083 12.288 14.725C12.096 14.5417 12 14.3083 12 14.025V10C12 9.71667 12.096 9.479 12.288 9.287C12.4793 9.09567 12.7167 9 13 9C13.2833 9 13.521 9.09167 13.713 9.275C13.9043 9.45833 14 9.69167 14 9.975V14C14 14.2833 13.9043 14.5207 13.713 14.712Z" fill="#A3A1A1"/>
<path d="M13.713 18.712C13.521 18.904 13.2833 19 13 19C12.7167 19 12.4793 18.904 12.288 18.712C12.096 18.5207 12 18.2833 12 18C12 17.7167 12.096 17.479 12.288 17.287C12.4793 17.0957 12.7167 17 13 17C13.2833 17 13.521 17.0957 13.713 17.287C13.9043 17.479 14 17.7167 14 18C14 18.2833 13.9043 18.5207 13.713 18.712Z" fill="#A3A1A1"/>
<path fill-rule="evenodd" clip-rule="evenodd" d="M23.6978 21.7077L13 3.29231L2.30223 21.7077H23.6978ZM14.1261 2.64615C13.6256 1.78462 12.3744 1.78462 11.8739 2.64615L1.17615 21.0615C0.675665 21.9231 1.30127 23 2.30223 23H23.6978C24.6987 23 25.3243 21.9231 24.8239 21.0615L14.1261 2.64615Z" fill="#A3A1A1" stroke="#A3A1A1"/>
</svg>
