<svg width="132" height="46" viewBox="0 0 132 46" fill="none" xmlns="http://www.w3.org/2000/svg">
<path d="M58.6215 35.2882C58.6622 34.1968 58.6622 33.1054 58.7028 32.0141C58.7475 31.593 58.8154 31.1747 58.9061 30.761C58.9712 30.3596 59.0803 29.9665 59.2313 29.5888C59.385 29.1617 59.5897 28.7546 59.8411 28.3761C60.4276 27.3723 61.3064 26.569 62.3616 26.0721C62.8922 25.7976 63.451 25.5808 64.0283 25.4253C64.4537 25.3055 64.8891 25.2244 65.3292 25.1828C66.083 25.0753 66.8462 25.0482 67.6058 25.1019C68.0167 25.1159 68.4252 25.17 68.8254 25.2636C69.1828 25.3207 69.5359 25.4018 69.8824 25.5061C70.3736 25.6664 70.8497 25.8693 71.3052 26.1125C72.0202 26.4683 72.6561 26.9631 73.1752 27.5677C73.6256 28.1047 73.9954 28.7037 74.2729 29.3462C74.3948 29.71 74.5574 30.0738 74.6388 30.4376C74.7598 31.0108 74.8413 31.5915 74.8827 32.1757C74.9233 33.1863 74.964 34.2373 74.964 35.2478L74.842 39.007C74.8273 39.3225 74.7727 39.6348 74.6794 39.9367C74.5981 40.3005 74.4761 40.6239 74.3948 40.9877C74.1898 41.5443 73.9167 42.0738 73.5818 42.5641C73.0378 43.3144 72.3463 43.9469 71.5491 44.4235C70.9986 44.765 70.3938 45.011 69.7604 45.1511C69.1737 45.315 68.5759 45.4366 67.9717 45.5149C67.5812 45.5696 67.186 45.5831 66.7927 45.5554C66.1829 45.5149 65.5325 45.5149 64.9227 45.4341C64.266 45.34 63.624 45.1634 63.012 44.9086C62.0206 44.5214 61.1408 43.8965 60.4509 43.0896C60.0014 42.6047 59.6434 42.0433 59.3939 41.4323C59.0249 40.5844 58.7917 39.6842 58.7028 38.7645C58.6622 37.5923 58.6622 36.4604 58.6215 35.2882ZM71.1833 35.3286H71.2239C71.2239 34.6415 71.2239 33.9139 71.1833 33.1863C71.2048 32.5175 71.1226 31.8495 70.9393 31.2056C70.7888 30.6836 70.5252 30.2007 70.1669 29.7909C69.7922 29.3628 69.3301 29.0188 68.8115 28.7819C68.2928 28.5449 67.7294 28.4204 67.1586 28.4165C66.5709 28.37 65.9795 28.4247 65.4105 28.5782C64.7716 28.7397 64.1841 29.0596 63.7031 29.5079C63.2622 29.8645 62.9369 30.3426 62.7681 30.8822C62.617 31.26 62.508 31.6531 62.4429 32.0545C62.4082 32.3902 62.3947 32.7277 62.4022 33.065V37.5518C62.3895 38.1644 62.4579 38.776 62.6055 39.3708C62.7806 39.8949 63.0416 40.3866 63.3779 40.826C63.7446 41.2459 64.193 41.5877 64.696 41.8309C65.199 42.074 65.7463 42.2134 66.3049 42.2408C67.2532 42.3239 68.2068 42.1566 69.0693 41.7557C69.6784 41.4265 70.1846 40.937 70.5328 40.3409C70.9488 39.6724 71.1737 38.9038 71.1833 38.1177V35.3286Z" fill="white"/>
<path d="M104.234 14.3497C104.234 17.058 104.275 19.7663 104.234 22.5149C104.251 23.058 104.111 23.5946 103.83 24.0605C103.549 24.5264 103.139 24.902 102.649 25.1424C102.217 25.3488 101.745 25.4592 101.266 25.4657H92.5667C92.3634 25.4657 92.3228 25.4253 92.3228 25.2232V22.5554C92.3228 22.3937 92.3634 22.3532 92.5667 22.3532H99.9248C100.078 22.3651 100.232 22.3285 100.363 22.2487C100.494 22.1689 100.597 22.0499 100.657 21.9086C100.689 21.8321 100.703 21.749 100.697 21.6661C100.738 20.4939 100.738 19.362 100.738 18.1898C100.738 18.0685 100.697 18.0281 100.575 17.9877C100.475 17.9787 100.373 18.0012 100.286 18.0518C100.199 18.1025 100.129 18.179 100.087 18.2707C99.7649 18.7931 99.2997 19.2137 98.7459 19.4833C97.7968 19.9337 96.7455 20.1288 95.6969 20.0492C94.5445 19.9799 93.4459 19.5402 92.5667 18.7961C91.9325 18.2328 91.4444 17.5256 91.1438 16.7346C90.8057 15.8861 90.6399 14.9794 90.656 14.0668V6.14412C90.656 5.86117 90.656 5.86116 90.9406 5.86116H93.9895C94.2741 5.86116 94.2741 5.86117 94.2741 6.14412V13.2988C94.2469 13.7302 94.2605 14.1633 94.3148 14.5923C94.4367 15.5624 94.8432 16.3708 95.8189 16.775C96.4891 17.0441 97.2234 17.1143 97.9329 16.9772C98.6055 16.8757 99.2227 16.5474 99.6809 16.0475C100.038 15.6525 100.302 15.1828 100.453 14.6731C100.637 13.9879 100.719 13.2799 100.697 12.5712V6.14412C100.697 5.86117 100.697 5.86116 100.982 5.86116H103.99C104.234 5.86116 104.275 5.86116 104.275 6.10369V14.3497H104.234Z" fill="white"/>
<path d="M130.171 25.5062L129.683 26.355C129.114 27.3251 128.504 28.2953 127.935 29.3058L126.187 32.2566C125.739 33.065 125.252 33.8735 124.764 34.6819L124.52 35.1265C124.52 35.167 124.479 35.2882 124.52 35.3691L127.081 39.7346C127.894 41.1898 128.748 42.6046 129.601 44.0193L130.13 44.9894C130.171 45.0299 130.171 45.0703 130.211 45.1511H126.187C126.024 45.1916 125.943 45.1107 125.861 44.9894L124.357 42.2003L122.812 39.3708L122.081 38.0773C122.054 38.0169 122.007 37.9676 121.947 37.9381C121.888 37.9086 121.82 37.9006 121.755 37.9156C121.593 37.9156 121.471 37.9156 121.39 38.0773L119.357 41.877C118.747 42.9279 118.178 43.9789 117.609 45.0299C117.582 45.0688 117.545 45.1003 117.502 45.1215C117.46 45.1426 117.413 45.1529 117.365 45.1511H113.503C113.3 45.1511 113.3 45.1107 113.381 44.9894L115.983 40.5431C116.918 38.9262 117.812 37.3093 118.788 35.7329C118.898 35.5849 118.953 35.4042 118.946 35.2205C118.939 35.0368 118.868 34.8611 118.747 34.7223L116.267 30.5185L113.991 26.5975C113.747 26.2337 113.544 25.8699 113.34 25.5062H117.365C117.433 25.5066 117.499 25.5258 117.556 25.5614C117.614 25.5971 117.66 25.6479 117.69 25.7083L120.211 30.2759C120.617 31.0035 121.024 31.7311 121.39 32.4587C121.426 32.5172 121.477 32.5655 121.537 32.5989C121.598 32.6324 121.666 32.65 121.735 32.65C121.804 32.65 121.872 32.6324 121.933 32.5989C121.993 32.5655 122.044 32.5172 122.081 32.4587L122.528 31.6907C122.894 31.0035 123.26 30.3163 123.666 29.6292C124.073 28.942 124.398 28.2548 124.804 27.5677C125.211 26.8805 125.496 26.2337 125.861 25.6274C125.889 25.5885 125.925 25.557 125.968 25.5358C126.01 25.5146 126.058 25.5044 126.105 25.5062H130.171Z" fill="white"/>
<path d="M86.9159 13.2988C86.9159 14.2285 86.9159 15.1986 86.8753 16.1283C86.8693 16.2254 86.8842 16.3226 86.9189 16.4136C86.9535 16.5045 87.0072 16.5871 87.0764 16.6559C87.1456 16.7247 87.2287 16.7781 87.3201 16.8125C87.4116 16.847 87.5094 16.8618 87.607 16.8559H88.5827C88.7453 16.8559 88.786 16.8963 88.786 17.058V19.645C88.786 19.7663 88.7453 19.8067 88.6233 19.8067C87.6883 19.8067 86.794 19.8471 85.859 19.7663C85.5161 19.7602 85.1818 19.6585 84.8943 19.4727C84.6068 19.2869 84.3776 19.0244 84.2328 18.7153C84.1167 18.5325 84.0469 18.3245 84.0296 18.109C84.0216 18.0582 83.9976 18.0113 83.9611 17.975C83.9245 17.9387 83.8773 17.9148 83.8263 17.9069C83.7301 17.893 83.632 17.914 83.55 17.9659C83.4679 18.0178 83.4073 18.0973 83.3791 18.1898C83.1996 18.5726 82.9454 18.9162 82.6314 19.2007C82.3174 19.4852 81.9497 19.7049 81.5497 19.8471C80.8509 20.1144 80.1013 20.2248 79.3545 20.1705C79.0974 20.1908 78.8391 20.1908 78.5821 20.1705C78.051 20.1311 77.5296 20.0083 77.0373 19.8067C76.4343 19.5972 75.8808 19.267 75.4111 18.8366C74.9383 18.3543 74.5775 17.7748 74.3542 17.1388C74.1376 16.4323 74.082 15.6866 74.1916 14.9561C74.2676 14.4261 74.4553 13.9181 74.7426 13.4653C75.0298 13.0125 75.41 12.6251 75.8583 12.3287C76.3711 11.972 76.9524 11.7244 77.5657 11.6011C78.1143 11.4779 78.6715 11.3968 79.2325 11.3585H83.0539C83.4198 11.3585 83.4198 11.3585 83.4198 10.9947C83.4333 10.6693 83.406 10.3434 83.3385 10.0246C83.2973 9.71347 83.1741 9.41871 82.9813 9.17023C82.7885 8.92176 82.5331 8.72841 82.2408 8.60984C81.5899 8.32115 80.8624 8.25023 80.1675 8.40773C79.5946 8.46294 79.0607 8.72119 78.6634 9.13533C78.3969 9.42338 78.202 9.76947 78.0942 10.1459C78.0942 10.2267 78.0536 10.2671 78.0536 10.348C78.0536 10.4288 77.9316 10.5097 77.8503 10.4692L76.2649 9.90335L74.9233 9.49913C74.8916 9.49552 74.8612 9.48454 74.8346 9.46708C74.8079 9.44962 74.7858 9.42616 74.7699 9.3986C74.7541 9.37105 74.745 9.34018 74.7434 9.30849C74.7418 9.2768 74.7477 9.24516 74.7607 9.21617L75.2079 8.24605C75.6649 7.44233 76.3415 6.78368 77.1592 6.34623C77.5843 6.10942 78.0341 5.91965 78.5008 5.78032C79.6335 5.44405 80.8245 5.34767 81.9969 5.49737C83.1591 5.57757 84.2674 6.01553 85.1678 6.75045C85.7869 7.2614 86.2513 7.93303 86.5094 8.69069C86.749 9.35199 86.8728 10.0493 86.8753 10.7522C86.9159 11.6011 86.8753 12.4499 86.8753 13.2988H86.9159ZM81.4684 14.0264H80.1675C79.7005 13.9778 79.2283 14.0331 78.7853 14.1881C78.5768 14.2528 78.385 14.3619 78.2232 14.5078C78.0613 14.6537 77.9334 14.8329 77.8483 15.033C77.7632 15.233 77.7229 15.4491 77.7303 15.6662C77.7377 15.8832 77.7925 16.0961 77.891 16.29C78.0118 16.5411 78.1944 16.758 78.4217 16.9204C78.6491 17.0829 78.9139 17.1858 79.1919 17.2197C79.8493 17.3674 80.533 17.3535 81.1839 17.1793C81.678 17.0345 82.1354 16.7864 82.5254 16.4517C82.8256 16.1577 83.0603 15.8043 83.2144 15.4143C83.3685 15.0244 83.4384 14.6066 83.4198 14.1881C83.4198 14.0264 83.2978 13.986 83.1759 14.0264H81.4684Z" fill="white"/>
<path d="M102.73 39.2496H97.8922C97.6483 39.2496 97.6076 39.29 97.6483 39.5325C97.7305 40.206 98.0137 40.8395 98.4614 41.3515C98.9406 41.8611 99.5645 42.2136 100.25 42.362C100.785 42.4761 101.336 42.4898 101.876 42.4025C102.384 42.3479 102.869 42.1675 103.288 41.878C103.707 41.5884 104.046 41.1989 104.275 40.7452C104.437 40.3814 104.397 40.3409 104.763 40.5431L107.202 41.8366C107.324 41.877 107.324 41.9578 107.283 42.0387C106.856 42.8193 106.291 43.5175 105.616 44.1002C105.157 44.494 104.635 44.8083 104.071 45.0299C103.558 45.2258 103.027 45.3747 102.486 45.4745C101.758 45.562 101.023 45.5891 100.291 45.5554C99.9465 45.5441 99.605 45.4897 99.2744 45.3937L98.2174 45.0703C97.2503 44.7177 96.3849 44.1348 95.6969 43.3726C95.2186 42.8561 94.8458 42.252 94.5993 41.594C94.4367 41.0685 94.2334 40.5431 94.1115 40.0176C93.9895 39.4921 94.0302 38.9262 93.9895 38.3603C93.9828 37.9691 93.9963 37.5778 94.0302 37.188C94.0445 36.8328 94.099 36.4802 94.1928 36.1371C94.2578 35.7619 94.3669 35.3955 94.518 35.0457C94.721 34.5543 94.9658 34.081 95.2498 33.6309C95.9941 32.5089 97.0968 31.6688 98.38 31.246C98.8171 31.1002 99.2659 30.9921 99.7216 30.9227C100.136 30.8355 100.56 30.8082 100.982 30.8418C101.542 30.8335 102.101 30.8878 102.649 31.0035C103.613 31.1731 104.52 31.5757 105.291 32.1757C105.887 32.6667 106.396 33.2544 106.795 33.9139C107.033 34.3977 107.237 34.8975 107.405 35.4095C107.852 36.6221 107.812 37.8348 107.812 39.0879C107.812 39.29 107.69 39.2496 107.568 39.2496H102.73ZM100.901 36.5817H103.949C104.153 36.5817 104.193 36.5009 104.153 36.3392C104.083 36.0748 103.987 35.8177 103.868 35.5712C103.67 35.158 103.375 34.7988 103.006 34.5242C102.638 34.2496 102.209 34.0679 101.754 33.9947C101.133 33.8796 100.493 33.9072 99.8842 34.0756C99.3422 34.2048 98.8485 34.4853 98.4614 34.884C98.1014 35.2711 97.8492 35.7448 97.7296 36.2583C97.6483 36.5817 97.6483 36.5817 98.0142 36.5817H100.901Z" fill="white"/>
<path d="M115.739 13.9051H110.901C110.657 13.9051 110.657 13.9051 110.657 14.1476C110.748 14.9276 111.124 15.6471 111.714 16.1687C112.143 16.5766 112.678 16.8567 113.259 16.9771C113.843 17.1327 114.457 17.1466 115.048 17.0176C115.49 16.957 115.912 16.7937 116.279 16.5409C116.647 16.2881 116.949 15.9529 117.162 15.5624C117.245 15.4501 117.313 15.3279 117.365 15.1986C117.406 15.0369 117.528 15.0369 117.65 15.1177L118.625 15.6028L120.251 16.4517C120.373 16.5325 120.373 16.6133 120.292 16.6942C119.753 17.7403 118.938 18.6207 117.934 19.2408C117.339 19.5892 116.695 19.848 116.023 20.0088C115.036 20.2305 114.017 20.2716 113.015 20.13C111.925 20.0452 110.875 19.6833 109.966 19.0791C109.104 18.4992 108.393 17.7232 107.893 16.8155C107.617 16.2738 107.399 15.7048 107.242 15.1177C107.054 14.3101 106.985 13.4794 107.039 12.652C107.017 12.1102 107.058 11.5677 107.161 11.0351C107.267 10.4546 107.43 9.88593 107.649 9.33743C107.93 8.66613 108.329 8.05012 108.828 7.51845C109.367 6.9562 109.999 6.49118 110.698 6.14411L111.877 5.69947L113.096 5.49736C113.706 5.45695 114.317 5.45695 114.926 5.49736C115.469 5.54137 116.003 5.66392 116.511 5.86116C117.201 6.10602 117.847 6.46099 118.422 6.91212C119.033 7.43573 119.543 8.06586 119.926 8.77153C120.233 9.33206 120.465 9.92993 120.617 10.5501C120.699 11.0351 120.78 11.5606 120.82 12.0457C120.861 12.5307 120.82 13.1371 120.82 13.703C120.82 14.2689 120.78 13.9051 120.617 13.9051H115.739ZM113.95 11.1968H116.999C117.162 11.1968 117.243 11.1564 117.162 10.9543L116.918 10.2267C116.718 9.79573 116.412 9.42176 116.028 9.13921C115.644 8.85666 115.195 8.67461 114.723 8.60983C114.127 8.5166 113.518 8.5441 112.934 8.69068C112.502 8.78704 112.099 8.98066 111.755 9.25658C111.248 9.67088 110.891 10.2387 110.739 10.8735C110.698 11.1968 110.657 11.1968 110.982 11.1968H113.95Z" fill="white"/>
<path d="M77.9316 38.1986V31.4886C77.9316 31.2056 77.9723 31.2056 78.2569 31.2056H81.2245C81.4684 31.2056 81.4684 31.2056 81.4684 31.4482V32.8225C81.4684 32.9842 81.5091 33.0246 81.6717 33.0246C81.7622 33.0342 81.8535 33.0162 81.9334 32.9728C82.0133 32.9295 82.078 32.863 82.1189 32.7821C82.4783 32.1856 83.0194 31.7184 83.6637 31.4482C84.6647 31.0316 85.7603 30.8919 86.8346 31.0439C87.364 31.1166 87.8826 31.2523 88.3794 31.4482C89.4065 31.8816 90.253 32.652 90.778 33.6309C90.996 34.072 91.1729 34.5321 91.3064 35.0053C91.4337 35.4803 91.5019 35.969 91.5097 36.4605C91.5504 39.29 91.5504 42.1195 91.5504 44.949C91.5504 45.1107 91.4691 45.1916 91.3064 45.1512H88.2575C87.9729 45.1512 87.9729 45.1512 87.9729 44.9086V37.4306C87.9652 36.8858 87.8971 36.3436 87.7696 35.8137C87.6892 35.4742 87.5295 35.1582 87.3035 34.8913C87.0776 34.6245 86.7916 34.4143 86.4688 34.2777C85.8662 34.0239 85.2088 33.9266 84.5581 33.9947C84.1479 34.0166 83.7471 34.1253 83.3826 34.3135C83.018 34.5017 82.6981 34.7651 82.4441 35.0861C82.1266 35.4955 81.8919 35.9623 81.753 36.4605C81.6032 37.0412 81.5348 37.6397 81.5497 38.239V44.8682C81.5497 45.1511 81.5497 45.1512 81.2652 45.1512H78.2569C77.9316 45.1512 77.9316 45.1511 77.9316 44.8682V38.1986Z" fill="white"/>
<path d="M59.5972 9.94377V0.363801C59.5972 0.0808489 59.5972 0.0808563 59.8411 0.0808563H63.0527C63.3372 0.0808563 63.3372 0.0808489 63.3372 0.363801V16.1687C63.3372 16.4113 63.3372 16.4113 63.5811 16.4113H72.1183C72.3215 16.4113 72.3622 16.4921 72.3622 16.6538V19.6046C72.3622 19.7258 72.3215 19.8067 72.1589 19.8067H59.8817C59.5972 19.8067 59.5972 19.8067 59.5972 19.5237V9.94377Z" fill="white"/>
<path d="M123.585 12.8137V6.14411C123.585 5.86116 123.585 5.86116 123.869 5.86116H126.837C127.081 5.86116 127.081 5.86116 127.081 6.10369V7.19507C127.122 7.27591 127.081 7.39718 127.244 7.4376C127.32 7.45784 127.401 7.45304 127.474 7.4239C127.547 7.39476 127.609 7.34285 127.65 7.27592C127.777 6.95812 127.974 6.673 128.228 6.44197C128.481 6.21095 128.784 6.04002 129.114 5.942C129.523 5.82648 129.948 5.77198 130.374 5.78031H131.797C131.959 5.78031 132 5.82073 132 5.98242V8.73111C132 8.93322 131.919 8.97364 131.756 8.97364C131.065 8.94668 130.372 8.96017 129.683 9.01405C129.225 9.01928 128.777 9.15046 128.39 9.39304C128.003 9.63562 127.69 9.98014 127.488 10.3884C127.247 10.8652 127.122 11.3911 127.122 11.9244V19.4429C127.122 19.8067 127.203 19.8067 126.796 19.8067H123.91C123.585 19.8067 123.585 19.8067 123.585 19.5237V12.8137Z" fill="white"/>
<path d="M31.0182 17.7856L28.7416 20.0896C28.0265 20.7367 27.5535 21.6061 27.4001 22.5554C27.3301 23.117 27.3929 23.6872 27.5834 24.2205C27.774 24.7538 28.087 25.2355 28.4977 25.6274C29.8392 27.0018 31.2621 28.3357 32.563 29.71C34.4737 31.7715 36.5876 33.6714 38.4983 35.7329C39.0675 36.3392 39.6772 36.9051 40.2057 37.5518C39.2707 38.6028 38.3357 39.6134 37.3194 40.5835C37.0755 40.826 36.9129 40.9069 36.6283 40.6239C34.433 38.3603 32.2378 36.0967 30.0019 33.8735C28.7416 32.58 27.4001 31.3269 26.0992 30.0334C25.6673 29.509 25.1913 29.0222 24.6763 28.5782C23.5787 27.7294 21.2208 27.7293 20.2452 28.8207C19.2695 29.9121 17.3182 31.6503 15.936 33.1459C14.5538 34.6415 13.5374 35.5712 12.3585 36.7838C11.1796 37.9965 9.95997 39.2496 8.78104 40.4622C8.65195 40.5943 8.54244 40.7441 8.45581 40.9069L5.20357 37.8752C4.919 37.5923 4.95965 37.471 5.20357 37.2285L9.0656 33.348C10.5698 31.7715 12.1552 30.2759 13.6594 28.6995C15.1635 27.123 15.7327 26.5571 16.7897 25.5062C17.4305 24.8063 17.7788 23.8899 17.7637 22.9436C17.7486 21.9973 17.3712 21.0923 16.7084 20.413C15.77 19.5806 14.8999 18.6749 14.1066 17.7047C14.4771 17.6045 14.8614 17.5636 15.2448 17.5835H19.676C19.944 17.6078 20.2131 17.5515 20.4484 17.4218C21.8713 18.3919 23.2535 18.4323 24.6763 17.4218C24.8013 17.535 24.95 17.6192 25.1117 17.6681C25.2735 17.7171 25.4441 17.7296 25.6113 17.7047H29.9612C30.3156 17.6693 30.6734 17.6966 31.0182 17.7856Z" fill="white"/>
<path d="M31.0182 17.7856C30.6734 17.6967 30.3156 17.6693 29.9612 17.7048H25.6113C25.4441 17.7296 25.2735 17.7171 25.1117 17.6681C24.95 17.6192 24.8013 17.5351 24.6763 17.4218C25.2455 17.058 25.6113 16.4921 26.0992 16.007C28.0912 13.986 30.1645 12.0053 32.1565 9.94377C34.1485 7.88226 35.1648 6.95256 36.6283 5.41653C36.8722 5.13358 37.0348 5.09315 37.3194 5.41653C38.2137 6.34623 39.1488 7.31635 40.1244 8.24605C40.3684 8.48858 40.0838 8.60986 39.9618 8.73112C39.1894 9.45871 38.4983 10.2267 37.7666 10.9947L33.3354 15.4411C32.5223 16.2092 31.7906 17.0176 31.0182 17.7856Z" fill="white"/>
<path d="M20.4484 17.4218C20.2131 17.5515 19.944 17.6078 19.676 17.5835H15.2448C14.8614 17.5636 14.4771 17.6045 14.1066 17.7047C11.7487 15.4815 9.55344 13.0562 7.27687 10.7926C6.58577 10.1055 5.85402 9.4587 5.20357 8.69069C4.55313 7.92267 5.00031 8.36732 5.20357 8.16521L7.96798 5.37609C8.25255 5.05272 8.41515 5.17399 8.65907 5.41652L12.8057 9.66081L16.3018 13.1775L20.4484 17.4218Z" fill="white"/>
<path d="M20.2858 39.6942C20.2858 37.7944 20.2858 35.935 20.2451 34.0352C20.2451 33.6309 20.3671 33.4288 20.8549 33.4692H24.473C24.9202 33.4288 25.0015 33.5905 25.0015 34.0352V45.4745C25.0015 45.8787 24.9202 46 24.5137 46C23.2534 45.9596 22.0339 45.9596 20.8143 46C20.3671 46 20.2451 45.8787 20.2451 45.4341C20.2858 43.5343 20.2858 41.594 20.2858 39.6942Z" fill="white"/>
<path d="M25.0015 6.3058V11.9244C25.0015 12.3691 24.8796 12.5308 24.4324 12.5308C23.2128 12.4903 21.9932 12.5308 20.8143 12.5308C20.4078 12.5308 20.2858 12.4095 20.2858 12.0457V0.444642C20.2858 0.0808461 20.4078 0 20.733 0C21.9932 0.0404218 23.2535 0.0404218 24.4731 0C24.9202 0 25.0015 0.12126 25.0015 0.525478V6.3058Z" fill="white"/>
<path d="M6.21989 20.6151H11.9113C12.3178 20.6151 12.4398 20.696 12.4398 21.1002V24.9402C12.4398 25.2636 12.3178 25.3849 11.9926 25.3849H0.447185C0.0406554 25.3849 0 25.2232 0 24.8998V21.181C0 20.7364 0.0813071 20.6151 0.528489 20.6151H6.21989Z" fill="white"/>
<path d="M39.1894 20.6151H44.7182C45.1247 20.6151 45.2873 20.6555 45.2873 21.1002C45.2467 22.3937 45.2467 23.6468 45.2873 24.9402C45.2873 25.304 45.1654 25.3849 44.7995 25.3849H33.5387C33.1728 25.3849 33.0508 25.2636 33.0508 24.9402C33.0915 23.6468 33.0915 22.3533 33.0915 21.1002C33.0508 20.696 33.1728 20.6151 33.5793 20.6151H39.1894Z" fill="white"/>
</svg>
