<svg viewBox="0 0 24 24" fill="none" xmlns="http://www.w3.org/2000/svg">
<rect width="24" height="24" rx="12" fill="url(#paint0_linear_5353_36346)"/>
<path d="M16.9529 16.9284L13.1316 6.77992C13.066 6.55696 12.9384 6.36199 12.7668 6.22218C12.5951 6.08238 12.3878 6.0047 12.1739 6H11.8359C11.6219 6.00479 11.4145 6.08266 11.2428 6.22271C11.0711 6.36276 10.9437 6.55802 10.8782 6.78121L9.21648 11.202H7.95824C7.77675 11.2032 7.60298 11.2826 7.47465 11.4231C7.34631 11.5636 7.27375 11.7539 7.27272 11.9526V11.963C7.27375 12.1617 7.34631 12.3519 7.47465 12.4925C7.60298 12.6329 7.77675 12.7124 7.95824 12.7135H8.6343L7.0475 16.9284C7.01748 17.0209 7.00162 17.1182 7.00056 17.2164C6.99311 17.4245 7.06052 17.6274 7.18831 17.7817C7.25385 17.8551 7.33298 17.9125 7.4204 17.9497C7.50781 17.9869 7.6015 18.0033 7.69515 17.9976C7.83707 17.9956 7.9749 17.9454 8.08959 17.8538C8.20981 17.756 8.3038 17.6246 8.36174 17.4733L10.1083 12.7135H11.3196C11.5011 12.7124 11.6749 12.6329 11.8032 12.4925C11.9315 12.3519 12.0041 12.1617 12.0051 11.963V11.9422C12.0041 11.7435 11.9315 11.5533 11.8032 11.4127C11.6749 11.2723 11.5011 11.1928 11.3196 11.1917H10.6715L12.0047 7.54213L15.6382 17.4746C15.6962 17.6259 15.7902 17.7573 15.9104 17.8551C16.0251 17.9467 16.1629 17.9969 16.3048 17.9989C16.3985 18.0046 16.4922 17.9882 16.5796 17.951C16.667 17.9137 16.7461 17.8564 16.8117 17.783C16.9395 17.6287 17.0069 17.4258 16.9994 17.2177C17.0033 17.1187 16.9874 17.02 16.9529 16.9284Z" fill="white"/>
<defs>
<linearGradient id="paint0_linear_5353_36346" x1="2.04255" y1="20.6809" x2="21.9574" y2="4.08511" gradientUnits="userSpaceOnUse">
<stop stop-color="#22D4E2"/>
<stop offset="0.463542" stop-color="#87B9F3"/>
<stop offset="1" stop-color="#D35ADD"/>
</linearGradient>
</defs>
</svg>
