<svg viewBox="0 0 24 24" fill="none" xmlns="http://www.w3.org/2000/svg">
<g clip-path="url(#clip0_13605_73025)">
<path d="M24 12C24 5.37258 18.6274 0 12 0C5.37258 0 0 5.37258 0 12C0 18.6274 5.37258 24 12 24C18.6274 24 24 18.6274 24 12Z" fill="url(#paint0_radial_13605_73025)"/>
<path d="M20.1601 8.25419C20.1098 8.54795 20.0511 8.69039 19.9822 8.85524L19.982 8.85559C19.9077 9.0343 19.8235 9.23711 19.7471 9.63948C19.7167 9.80053 19.7015 9.91866 19.6883 10.0228L19.6875 10.0292L19.6866 10.0353C19.6654 10.2021 19.6512 10.3145 19.5835 10.5144C19.5284 10.6777 19.4365 10.9501 19.215 11.2436C19.0362 11.481 18.7368 11.8785 18.3373 11.9262C18.3026 11.9285 18.23 11.9321 18.2004 11.917C17.0671 11.3382 16.0932 10.9106 15.7562 10.8146C15.364 10.7035 15.4143 9.84872 15.4586 9.09458C15.4785 8.75752 15.4974 8.43879 15.4815 8.16588C15.4265 7.2138 15.2579 6.17169 14.4287 5.66366C13.9337 5.36046 13.2952 5.27153 12.6851 5.27027C12.7982 5.21648 12.9243 5.14338 13.0616 5.06338L13.0658 5.06097C13.4251 4.85292 13.871 4.5947 14.3141 4.54924C14.459 4.53496 14.6015 4.51817 14.7418 4.50265C15.6351 4.40149 16.4068 4.31458 17.2208 4.59331C17.5898 4.71989 18.3467 5.14213 18.5422 5.53426C18.6796 5.81094 18.9118 6.02676 19.375 6.45731C19.6161 6.68162 19.775 6.81205 19.8912 6.9075L19.8966 6.91186C20.0599 7.04613 20.092 7.07421 20.1405 7.17349C20.2907 7.47935 20.236 7.80418 20.1601 8.25419Z" fill="white"/>
<path d="M16.014 12.1602C16.0793 12.1825 16.1038 12.2618 16.0663 12.3196C15.9484 12.5014 15.8138 12.7461 15.6537 13.0429C15.5758 13.1882 15.5019 13.3252 15.4399 13.4322C15.2203 13.8093 15.2024 14.1268 15.1885 14.3815C15.1734 14.648 15.1599 14.7703 15.0007 14.8765C14.8693 14.9646 14.7347 14.994 13.8015 15.1361C13.6387 15.1613 13.5664 15.1929 13.5028 15.2206C13.4926 15.225 13.4825 15.2294 13.4719 15.2338C13.4072 15.2604 13.3429 15.2046 13.3465 15.1348C13.3531 15.0047 13.3573 14.8445 13.3579 14.6461V14.6056C13.3628 14.4227 13.3551 14.2743 13.3485 14.1547C13.3362 13.9164 13.3347 13.816 13.3982 13.7124C13.4762 13.587 13.537 13.5488 13.6369 13.4854C13.7765 13.3977 13.9679 13.2769 14.2512 12.8877C14.4017 12.6815 14.4351 12.5697 14.456 12.4731C14.4649 12.4331 14.4682 12.418 14.5841 12.3302C14.7066 12.2372 15.08 11.9544 15.5579 12.0347C15.6843 12.0561 15.844 12.1022 16.014 12.1602Z" fill="white"/>
<path d="M12.324 16.4705C12.3036 16.4969 12.2799 16.5092 12.2456 16.511C12.148 16.5149 12.0795 16.4909 12.0342 16.4362C11.9379 16.3191 11.9509 16.0836 11.9733 15.9461L12.3679 15.8408C12.3988 16.0497 12.4134 16.3541 12.324 16.4705Z" fill="white"/>
<path d="M12.3559 15.0467C12.3493 15.1042 12.3421 15.169 12.3424 15.2368C12.3429 15.262 12.3432 15.2874 12.344 15.3122C12.3448 15.3767 12.3473 15.4791 12.3383 15.5257C12.2151 15.5706 12.1098 15.5706 11.9715 15.5682C11.9694 15.5282 11.9719 15.4686 11.9735 15.4283C11.9743 15.3972 11.976 15.3663 11.9763 15.3369C11.9768 15.3042 11.9763 15.2719 11.9763 15.2398C11.9759 15.1639 11.9748 15.0395 11.9934 15.0028C12.0306 14.9974 12.0686 14.9893 12.1093 14.9799C12.1909 14.9623 12.2974 14.9399 12.3652 14.9501C12.3641 14.9764 12.36 15.0156 12.3559 15.0467Z" fill="white"/>
<path d="M11.6256 16.3489C11.6065 16.5512 11.5441 16.8013 11.3543 16.8394C11.269 16.8568 11.2277 16.8312 11.2017 16.8067C11.0735 16.688 11.0531 16.3293 11.071 16.0726C11.1563 16.0742 11.2682 16.0551 11.4007 16.0294C11.4815 16.0134 11.562 15.9955 11.6259 15.9807C11.6333 16.0758 11.6386 16.2113 11.6256 16.3489Z" fill="white"/>
<path d="M11.5362 15.623L11.1082 15.7731C11.1298 15.607 11.1588 15.3731 11.169 15.2177C11.1764 15.1084 11.2062 15.0748 11.2147 15.0676C11.2175 15.0651 11.2233 15.0599 11.2391 15.0599C11.2416 15.0599 11.244 15.0604 11.2468 15.0604L11.2557 15.0616L11.5263 15.0469C11.5378 15.1741 11.5378 15.4533 11.5362 15.623Z" fill="white"/>
<path d="M10.8444 15.4898C10.8202 15.5543 10.7917 15.7367 10.7738 15.8651L10.2375 15.8488C10.2678 15.6827 10.3097 15.5138 10.3558 15.3791C10.4024 15.2453 10.4526 15.1449 10.4987 15.1167C10.5525 15.0843 10.6709 15.0771 10.7435 15.1391C10.8615 15.2396 10.8941 15.3547 10.8444 15.4898Z" fill="white"/>
<path d="M10.6443 17.131C10.6027 17.1878 10.5566 17.2167 10.4993 17.2228C10.441 17.2293 10.3957 17.2162 10.3594 17.1823C10.191 17.0269 10.2048 16.5176 10.2109 16.2727C10.4333 16.2221 10.6733 16.1789 10.7872 16.1724C10.8043 16.3774 10.8091 16.9065 10.6443 17.131Z" fill="white"/>
<path d="M9.94449 15.8344C9.9183 15.9042 9.89304 15.9703 9.87391 16.0286C9.81148 16.0482 9.62091 16.0311 9.42627 15.9881L9.56005 15.1443C9.77995 15.0859 10.035 15.0671 10.0966 15.1325C10.1779 15.2188 10.0148 15.6504 9.94449 15.8344Z" fill="white"/>
<path d="M9.70155 17.26C9.59756 17.3882 9.44165 17.4481 9.2241 17.4458C9.07353 17.4432 9.01972 17.3861 8.99275 17.3433C8.87198 17.1519 8.99023 16.701 9.10867 16.4128L9.83503 16.4564C9.8424 16.5072 9.84852 16.5686 9.85134 16.6357C9.85934 16.8406 9.83361 17.0959 9.70155 17.26Z" fill="white"/>
<path d="M15.7043 11.1351C15.0503 10.9499 15.1067 9.99374 15.1611 9.06959C15.1804 8.74256 15.1986 8.4334 15.1837 8.18056C15.1335 7.31554 14.9881 6.3735 14.2923 5.94703C13.544 5.4894 12.3198 5.59371 11.5645 5.68982C11.5638 5.6899 11.5631 5.69034 11.5624 5.69041C11.5621 5.69043 11.5619 5.69046 11.5616 5.69056C11.2849 5.77439 11.0261 5.82876 10.8254 5.8181C10.3798 5.79503 10.033 5.60744 9.72765 5.44275C9.4894 5.31366 9.28156 5.20215 9.08582 5.20215C9.07547 5.20215 9.06465 5.20215 9.05397 5.20262C8.46845 5.24058 8.19931 5.38362 7.95477 5.60181C7.89328 5.65622 7.81831 5.81385 7.57284 6.52125C7.44894 6.8787 7.42603 7.0743 7.40298 7.2644C7.38228 7.43803 7.36125 7.6167 7.26887 7.88318C7.20456 8.067 7.1572 8.22558 7.11124 8.37851C6.99015 8.78474 6.89447 9.10473 6.60696 9.48523C6.57323 9.53026 6.53136 9.59645 6.48305 9.6719C6.41781 9.77462 6.33718 9.9023 6.23069 10.0501C6.15555 10.1542 5.98301 10.544 5.99243 10.6627C6.00654 10.8517 6.06803 10.969 6.1383 11.106C6.20825 11.241 6.28793 11.3939 6.30252 11.6051L6.30487 11.6393C6.33059 11.9741 6.28275 12.1421 5.64579 12.7112C5.23854 13.0756 4.9492 13.4267 4.75407 13.6843C4.73684 13.707 4.75924 13.7408 4.78767 13.7385C4.79425 13.7376 4.80084 13.7371 4.80696 13.7371C4.81919 13.7362 4.83142 13.7357 4.8435 13.7357C4.85573 13.7357 4.86798 13.7362 4.88004 13.7366C4.89229 13.7371 4.90404 13.7381 4.91612 13.7399C5.07016 13.7575 5.22032 13.8226 5.32873 13.9349C5.34757 13.9544 5.37686 13.9597 5.40205 13.9497C5.50572 13.9065 5.61975 13.9136 5.72861 13.9238C5.85813 13.9358 5.98894 13.9736 6.07816 14.054C6.11214 14.0845 6.15877 14.1008 6.20355 14.0916C6.30494 14.0708 6.41059 14.0742 6.50878 14.11C6.58159 14.1371 6.64406 14.1783 6.69523 14.23C6.74345 14.2787 6.82509 14.2884 6.88465 14.2544C6.90845 14.2409 6.9341 14.2292 6.96192 14.2197C7.10025 14.1728 7.25318 14.1995 7.38745 14.2478C7.45364 14.2717 7.52296 14.2928 7.58257 14.3327C7.68101 14.3982 7.745 14.491 7.78796 14.5956C7.82096 14.6759 7.93078 14.7034 8.00127 14.6527C8.08594 14.5917 8.15581 14.5839 8.22628 14.6152C8.25544 14.6283 8.27818 14.645 8.29562 14.6651C8.34612 14.7233 8.42723 14.7814 8.50221 14.7636C8.71108 14.7142 8.96394 14.747 9.1495 14.8464C9.218 14.8824 9.2854 14.9373 9.33464 15.0203C9.3347 15.0204 9.33472 15.0204 9.33475 15.0205C9.3348 15.0209 9.33524 15.0207 9.33529 15.0204L9.34092 14.9835C9.34347 14.9668 9.35534 14.953 9.37147 14.948L9.41645 14.934C9.52249 14.9003 10.0628 14.7446 10.273 14.9659C10.2821 14.975 10.298 14.9759 10.3067 14.9664C10.3353 14.9351 10.3585 14.9178 10.3734 14.9093C10.5103 14.8263 10.745 14.8211 10.9012 14.9548C10.9326 14.9811 10.9836 14.9716 11.0073 14.938C11.0219 14.9174 11.0384 14.8992 11.0569 14.8835C11.1118 14.8362 11.1813 14.8136 11.2582 14.8183L11.5551 14.8023C11.6298 14.7982 11.8617 14.7824 11.9349 14.7669C11.9404 14.7658 11.9461 14.7647 11.9519 14.7639C11.9828 14.7592 12.0195 14.7512 12.058 14.7432C12.202 14.7118 12.3652 14.6765 12.4993 14.7384C12.6283 14.7981 12.612 14.9449 12.5964 15.0743C12.5903 15.1268 12.5837 15.1817 12.5842 15.2338C12.5851 15.2581 12.5856 15.2826 12.5861 15.3075C12.588 15.4191 12.5903 15.5222 12.5683 15.6013C12.5682 15.6015 12.5682 15.6017 12.5682 15.6019C12.5682 15.602 12.5682 15.6021 12.5682 15.6023L12.5818 15.6636C12.596 15.7238 12.6604 15.7578 12.7131 15.7253C12.8133 15.6633 12.9166 15.5851 12.9496 15.5388C12.9526 15.5345 12.9549 15.5299 12.9568 15.525C12.9614 15.5125 12.9694 15.4867 12.9784 15.4347C12.9967 15.3244 13.0173 15.1003 13.0191 14.6451C13.0191 14.6211 13.0191 14.6039 13.0196 14.5959C13.0234 14.4269 13.0168 14.2914 13.0102 14.1717C12.998 13.925 12.9881 13.7309 13.1106 13.5332C13.2298 13.3409 13.3455 13.2681 13.4567 13.1977C13.5861 13.1166 13.7322 13.0245 13.978 12.6873C14.0986 12.5212 14.1135 12.4542 14.1252 12.4008C14.1519 12.2754 14.1933 12.2 14.3795 12.0593C14.531 11.9448 14.9922 11.5953 15.6142 11.7C15.8182 11.7346 16.1489 11.8434 16.4753 11.972C16.4755 11.9721 16.4756 11.9721 16.4758 11.9721C16.4759 11.9721 16.4759 11.9721 16.4761 11.9721C16.4879 11.9756 16.4999 11.9796 16.511 11.9853C16.5161 11.9879 16.5213 11.9906 16.5267 11.9927C16.8088 12.1054 17.0835 12.2307 17.2652 12.3328C17.3169 12.3619 17.3827 12.3445 17.4204 12.2987C17.4766 12.2306 17.5375 12.1891 17.6028 12.15C17.6289 12.134 17.6492 12.1219 17.6684 12.1054C17.7297 12.0534 17.729 11.9444 17.6577 11.9077C16.7891 11.4615 15.9749 11.2121 15.7043 11.1351ZM9.47292 11.3364C9.27074 12.2216 7.89941 13.1946 7.27609 13.1946H7.26385C7.25397 13.1941 7.24314 13.1932 7.23154 13.1913C7.21978 13.1894 7.20708 13.1866 7.19358 13.1828C7.187 13.1809 7.17993 13.1786 7.17287 13.1767C7.05978 13.1411 6.9031 13.0542 6.78452 12.9375C6.70295 12.8573 6.63865 12.7629 6.61841 12.6611C6.61465 12.6433 6.61088 12.6255 6.60713 12.6077C6.5734 12.4571 6.53152 12.269 6.66437 11.9613C6.68272 11.92 6.69903 11.8814 6.7141 11.8463C6.7188 11.8345 6.72398 11.8228 6.72868 11.8116C6.7428 11.7784 6.75534 11.7478 6.76664 11.7202C6.78546 11.6733 6.80083 11.6334 6.81353 11.5996C6.8187 11.5864 6.82342 11.5737 6.82765 11.5621C6.86561 11.4556 6.87031 11.4157 6.87549 11.3745C6.88019 11.3422 6.88491 11.3027 6.89808 11.2463C6.93697 11.0802 6.9572 10.9396 6.9751 10.8142C7.00693 10.589 7.03469 10.3943 7.15609 10.2157C7.17679 10.1853 7.1997 10.1575 7.22558 10.1332C7.23452 10.1247 7.243 10.1167 7.25224 10.1087C7.26166 10.1007 7.27106 10.0937 7.28032 10.0866C7.30981 10.0659 7.34133 10.0477 7.37552 10.0322C7.38729 10.027 7.39906 10.0218 7.41065 10.0176C7.43465 10.0086 7.45991 10.0011 7.48626 9.99452C7.59794 9.96739 7.72969 9.96316 7.88122 9.9823C8.04685 9.99547 8.20024 10.0268 8.33624 10.0648C8.44979 10.0962 8.55111 10.1329 8.63691 10.1671C8.64585 10.1704 8.65433 10.1737 8.66278 10.1774C8.67926 10.184 8.69511 10.1906 8.71064 10.1977C8.73416 10.2075 8.75565 10.2169 8.77588 10.2257C8.80254 10.238 8.82701 10.2488 8.84866 10.2585L8.86889 10.2679C8.96456 10.3115 9.04677 10.3594 9.11704 10.4096C9.1517 10.435 9.18416 10.4607 9.21318 10.4869C9.22306 10.4954 9.23247 10.5043 9.24125 10.5137C9.25067 10.5226 9.2596 10.5316 9.26793 10.5405C9.53142 10.818 9.51841 11.1389 9.47292 11.3364ZM10.1085 7.9812L10.0818 8.14166C10.0203 8.50336 9.87916 8.99916 9.35843 9.12683C8.85745 9.24933 8.7387 9.27554 8.38218 9.29154C8.37418 9.29247 8.36572 9.29247 8.35725 9.29247C8.09687 9.29247 7.59589 9.12825 7.50713 8.72012C7.45034 8.4574 7.56626 8.26698 7.75714 7.95124C7.78899 7.89918 7.82334 7.84334 7.85988 7.78091C8.11225 7.35585 8.2117 7.04811 8.29154 6.80138C8.36933 6.5603 8.4341 6.36096 8.60068 6.19578C8.63911 6.15736 8.68272 6.12112 8.73338 6.08646C8.76569 6.06435 8.79957 6.04474 8.83518 6.02639C8.88254 6.00287 8.93225 5.98231 8.98434 5.96585C9.10024 5.92883 9.22541 5.91 9.35074 5.91C9.59369 5.91 9.83634 5.97996 10.0093 6.11877C10.0871 6.1812 10.1979 6.3059 10.2622 6.67371C10.2953 6.86318 10.239 7.21139 10.1085 7.9812ZM13.8235 9.01046C13.6442 9.3182 13.5461 9.48759 13.3913 9.61464C13.0841 9.86701 12.7257 9.93085 12.4306 9.93085C12.2186 9.93085 12.0385 9.89807 11.9325 9.87877C11.6276 9.82293 11.0599 9.71973 10.8709 9.27176C10.8339 9.18314 10.8334 9.12683 10.8334 9.05547C10.8334 8.98504 10.8334 8.86647 10.8007 8.58445L10.7988 8.56563C10.7837 8.43795 10.7669 8.2935 10.8035 8.10825L10.8077 8.08615C10.9147 7.54203 10.9437 7.4589 10.9677 7.41199C11.0231 7.30502 11.1543 7.26283 11.2613 7.31774C11.365 7.37168 11.4081 7.49733 11.3594 7.60288C11.3485 7.63379 11.3181 7.74969 11.2354 8.17052L11.2312 8.19265C11.2077 8.31137 11.218 8.40141 11.2317 8.51544L11.2336 8.53474C11.2692 8.84105 11.2692 8.97986 11.2692 9.055C11.2692 9.06822 11.2692 9.0828 11.2696 9.09145C11.2698 9.09477 11.2714 9.09923 11.2725 9.10238C11.3042 9.17763 11.3715 9.23661 11.4551 9.28331C11.5271 9.32349 11.6045 9.25304 11.5891 9.17209C11.499 8.70029 11.5082 8.15877 11.6872 7.82122C11.7472 7.70641 11.8581 7.5187 11.9636 7.34341C11.9639 7.34292 11.9642 7.34247 11.9645 7.34197C11.9647 7.34146 11.9651 7.34102 11.9654 7.34053C11.9761 7.3229 11.9867 7.30541 11.9973 7.28778C12.0062 7.27271 12.0151 7.2583 12.0235 7.24417C12.0699 7.16716 12.1135 7.09642 12.1483 7.04011C12.153 7.03211 12.1577 7.02411 12.1624 7.01658C12.1657 7.01093 12.169 7.00576 12.1723 7.00105C12.1798 6.98883 12.1864 6.97753 12.1925 6.9678C12.1954 6.9631 12.1982 6.95887 12.2005 6.95462C12.202 6.95274 12.2029 6.95087 12.2038 6.94945C12.2071 6.9438 12.2104 6.93862 12.2132 6.93439C12.2189 6.92545 12.2231 6.91887 12.2255 6.91464C12.2256 6.9143 12.2258 6.91395 12.226 6.91363C12.2265 6.91268 12.2275 6.91131 12.2281 6.91036C12.2284 6.90971 12.2285 6.90961 12.2289 6.90901C12.2549 6.87121 12.2806 6.83479 12.3059 6.79985C12.3629 6.72107 12.2963 6.6204 12.2076 6.66038C12.0554 6.72904 11.9529 6.80723 11.9304 6.82507C11.8362 6.90021 11.6991 6.88468 11.6246 6.79041C11.5499 6.69614 11.5654 6.55874 11.6597 6.4836C11.7719 6.39545 12.3662 5.96192 13.078 6.16551C13.5907 6.31139 13.8595 6.70319 13.9609 6.85048C14.0424 6.97015 14.2926 7.33327 14.2846 7.84035C14.2786 8.227 14.1172 8.50525 13.8235 9.01046Z" fill="white"/>
<path d="M9.20081 6.35864C9.16442 6.44679 9.12081 6.55611 9.07392 6.67485C8.96458 6.94981 8.84052 7.2613 8.78091 7.37423C8.67802 7.56937 8.59803 7.69249 8.53403 7.79177C8.46094 7.90565 8.40259 7.99583 8.35852 8.12147C8.28135 8.34137 8.26755 8.58717 8.31774 8.85443C8.18143 8.83938 7.95825 8.74542 7.93299 8.62715C7.91417 8.539 7.96891 8.44271 8.13015 8.17747C8.16246 8.12445 8.19712 8.06689 8.23508 8.00289C8.51224 7.53611 8.62439 7.18885 8.70688 6.9349C8.79581 6.65869 8.83786 6.54277 8.97949 6.44601C9.04285 6.40192 9.12003 6.37386 9.20081 6.35864Z" fill="white"/>
<path d="M8.93039 16.1484C8.77934 16.4569 8.59127 16.7417 8.47411 16.8829C8.37702 16.6205 8.2084 16.0194 8.25295 15.5359C8.25421 15.5219 8.25578 15.5081 8.25782 15.4946C8.2757 15.3453 8.31537 15.2082 8.38597 15.0984C8.43255 15.0263 8.56148 14.9822 8.70797 14.9822C8.81604 14.9822 8.93367 15.0059 9.03485 15.0601H9.03563C9.0899 15.0891 9.16378 15.1478 9.17147 15.3185C9.1826 15.5489 9.07281 15.8587 8.93039 16.1484Z" fill="white"/>
<path d="M17.2072 12.6901C17.219 12.6996 17.2263 12.7138 17.2196 12.7273C17.1746 12.8179 17.1204 12.8815 17.0565 12.9565C16.9795 13.0482 16.8913 13.1524 16.8092 13.3147C16.6924 13.5448 16.6551 13.7547 16.6355 14.2921C16.6123 14.9234 16.6366 15.278 16.6551 15.5367C16.6725 15.7864 16.6833 15.9369 16.6387 16.1805C16.5489 16.6717 16.3388 16.9971 16.0726 17.4089C15.7397 17.9238 15.3952 18.4559 14.8247 18.6257C14.7717 18.642 14.77 18.642 14.6212 18.6425C14.4918 18.6425 14.2764 18.6428 13.8687 18.658C13.1236 18.685 12.7498 18.6984 12.43 18.7599C12.0945 18.8249 11.9194 18.8962 11.7497 18.9648C11.5966 19.0267 11.4519 19.0856 11.1744 19.1426C11.0091 19.1761 10.7619 19.2125 9.91959 19.2136C9.04421 19.2153 8.51579 19.2157 7.81796 19.1362C6.86054 19.0268 6.37995 18.9722 6.06077 18.8017C5.30789 18.4001 4.98996 17.6778 4.46403 16.4814C4.46313 16.4793 4.46222 16.4771 4.46132 16.475C4.45482 16.4602 4.47296 16.4458 4.48694 16.4541C4.51188 16.4696 4.53791 16.4824 4.56537 16.4915C4.58826 16.4997 4.61226 16.5059 4.63642 16.5099C4.68457 16.5181 4.73476 16.5186 4.78573 16.5099C4.79468 16.5083 4.80284 16.5064 4.81068 16.5029C4.81218 16.5024 4.81366 16.5016 4.81515 16.501C4.82405 16.4966 4.83515 16.5003 4.83891 16.5095C4.87233 16.6017 4.92548 16.6837 5.01474 16.731C5.10415 16.7777 5.20578 16.7813 5.30522 16.7805C5.40764 16.7788 5.51086 16.7731 5.61296 16.7609C5.66707 16.7552 5.7224 16.7816 5.74313 16.8319C5.83655 17.0585 5.95241 17.2226 6.12633 17.2468C6.13574 17.2481 6.14798 17.2495 6.16351 17.2495C6.19742 17.2495 6.24722 17.2411 6.31523 17.2009C6.39913 17.1514 6.52552 17.1826 6.58927 17.2562C6.62677 17.2997 6.66792 17.3331 6.70416 17.3622C6.88328 17.5462 7.31871 17.6344 7.68433 17.6344C7.88384 17.6344 8.06264 17.6082 8.16788 17.5568C8.31846 17.4838 8.31846 17.3717 8.31108 17.3263C8.29829 17.245 8.28673 17.1643 8.27682 17.0843C8.27562 17.0748 8.29015 17.0711 8.29399 17.0799C8.31595 17.1276 8.34261 17.1872 8.41399 17.1986C8.42166 17.1994 8.4303 17.2012 8.44018 17.2012C8.54214 17.2012 8.70062 17.2344 8.72797 17.3325C8.74188 17.3824 8.76163 17.4293 8.78839 17.4717C8.84955 17.5686 8.97409 17.684 9.22098 17.6881H9.24011C9.52369 17.6881 9.7425 17.5953 9.89009 17.4122C9.89967 17.4002 9.90882 17.3882 9.91757 17.3757C9.97063 17.3011 10.1281 17.2979 10.1956 17.3599C10.2716 17.4301 10.3671 17.4664 10.4736 17.4664C10.4907 17.4664 10.5079 17.4655 10.5258 17.4636C10.6527 17.45 10.7625 17.3828 10.8445 17.2682C10.8982 17.1932 10.9374 17.1011 10.966 17.0015C10.9744 16.9722 11.0147 16.9635 11.0371 16.9841C11.0914 17.0342 11.1783 17.0873 11.3036 17.0873C11.3342 17.0873 11.3673 17.084 11.4024 17.0766C11.6487 17.0272 11.7713 16.8233 11.8294 16.5932C11.8313 16.5855 11.8425 16.5834 11.8476 16.5895C11.91 16.6654 12.0251 16.7531 12.2254 16.7531C12.2356 16.7531 12.2463 16.7531 12.2568 16.7526C12.3628 16.7477 12.4522 16.7011 12.5167 16.6179C12.5925 16.5191 12.6239 16.3744 12.6324 16.2274C12.6356 16.1732 12.6704 16.1256 12.7201 16.104C12.9284 16.0131 13.1742 15.8288 13.2475 15.7021C13.248 15.7012 13.2485 15.7004 13.249 15.6995C13.2715 15.6598 13.3069 15.6275 13.3517 15.6187C13.5064 15.5885 13.5756 15.5586 13.6388 15.531C13.6918 15.5078 13.7343 15.4894 13.8534 15.4709C14.8001 15.3265 14.9849 15.2946 15.1897 15.158C15.4962 14.9537 15.5117 14.6724 15.5268 14.4003C15.5398 14.1702 15.5546 13.909 15.7332 13.6026C15.7982 13.4907 15.8731 13.3511 15.9528 13.2035C16.089 12.9508 16.2782 12.5992 16.4168 12.4063C16.4484 12.3624 16.5062 12.3487 16.5558 12.3699C16.8766 12.5067 17.1479 12.6425 17.2072 12.6901Z" fill="white"/>
<path d="M8.01288 15.5062C7.9754 15.8335 7.95249 16.2708 8.0055 16.8406C8.02056 17.0012 8.04142 17.1682 8.06746 17.3371C8.0226 17.3615 7.88865 17.396 7.6504 17.3921C7.308 17.3852 6.97469 17.2992 6.87461 17.1909L6.85909 17.1769C6.7758 17.1099 6.72122 17.0659 6.71337 16.9464C6.71087 16.906 6.72811 16.866 6.76514 16.8095C6.78554 16.7777 6.81251 16.7411 6.84591 16.6957C6.90348 16.6185 6.97484 16.5222 7.04794 16.3983C7.26219 16.0362 7.34345 15.9243 7.44665 15.7832C7.45481 15.7717 7.46343 15.7603 7.47238 15.7485C7.53323 15.6652 7.60459 15.5656 7.71189 15.402C7.79187 15.2805 7.85838 15.1853 7.91313 15.1106C8.00457 14.9862 8.06447 14.9188 8.10291 14.8821C8.09726 14.9384 8.08456 15.0176 8.07233 15.0907C8.05412 15.203 8.03123 15.3406 8.01288 15.5062Z" fill="white"/>
<path d="M7.85612 10.4177C7.85409 10.4205 7.85158 10.4233 7.84954 10.4263C7.805 10.4879 7.75401 10.5577 7.69331 10.6936C7.53003 11.0564 7.52689 11.2617 7.52439 11.4268C7.52281 11.5134 7.52188 11.5823 7.49819 11.6627C7.48188 11.7158 7.45537 11.7766 7.42479 11.8467C7.32848 12.0671 7.20284 12.356 7.25915 12.7448C7.1812 12.7074 7.062 12.6216 7.04537 12.5759C7.04129 12.5548 7.03674 12.5339 7.03187 12.513C7.0049 12.3918 6.98702 12.3127 7.0642 12.1352C7.26699 11.6675 7.29194 11.5566 7.30777 11.4292C7.31107 11.4014 7.31437 11.3798 7.32252 11.3447C7.36534 11.1602 7.38777 11.0023 7.40613 10.8754C7.43341 10.6828 7.45177 10.5554 7.51671 10.4596C7.54038 10.4241 7.60737 10.4058 7.7032 10.4058C7.74116 10.4058 7.78397 10.4086 7.83057 10.4152L7.84154 10.4159C7.84624 10.4164 7.85127 10.4169 7.85612 10.4177Z" fill="white"/>
<path d="M7.58865 15.0312C7.57768 14.919 7.55807 14.8067 7.51729 14.701C7.51446 14.6957 7.50224 14.6687 7.49972 14.6635C7.49236 14.6501 7.48389 14.6373 7.47603 14.624C7.47557 14.6235 7.47525 14.6235 7.47525 14.6232C7.47477 14.6224 7.47446 14.6224 7.47446 14.622C7.46993 14.6171 7.46584 14.6122 7.46145 14.6077C7.45486 14.6011 7.44764 14.5947 7.44059 14.5889C7.43933 14.5873 7.43807 14.5861 7.43698 14.5856C7.43368 14.5828 7.42883 14.579 7.42349 14.5759C7.41487 14.5713 7.40671 14.5664 7.39824 14.562C7.39572 14.5605 7.38962 14.558 7.38397 14.5559C7.38397 14.5559 7.38349 14.5559 7.38349 14.5555C7.38224 14.555 7.38098 14.5547 7.37988 14.5542C7.37863 14.5534 7.37784 14.553 7.37706 14.5526C7.3758 14.5522 7.37502 14.5519 7.37424 14.5519C7.37345 14.5519 7.37345 14.5514 7.37345 14.5514C7.37095 14.5501 7.36939 14.5498 7.36813 14.5493C7.30287 14.5253 7.23668 14.4992 7.16736 14.489C7.16689 14.489 7.16579 14.4885 7.16485 14.4885H7.16328C7.15559 14.4885 7.13959 14.4869 7.13881 14.4869C7.12909 14.4865 7.11967 14.4865 7.11027 14.4869C7.10571 14.4869 7.10132 14.4869 7.09724 14.4874H7.09363C7.09206 14.4874 7.09002 14.4879 7.088 14.4879C7.08722 14.4886 7.08596 14.4886 7.08548 14.4886C7.08501 14.4886 7.0847 14.4886 7.0847 14.4886C7.06917 14.4932 7.05285 14.4973 7.03732 14.5021C7.03074 14.5054 7.02353 14.5087 7.01695 14.5128C7.0113 14.5161 7.00548 14.5202 6.99984 14.523C6.99936 14.5235 6.9986 14.5243 6.9978 14.5243L6.99655 14.5255C6.98917 14.5329 6.98149 14.5398 6.97412 14.5472C6.97161 14.5497 6.9647 14.5581 6.95985 14.5643C6.95859 14.565 6.95781 14.5658 6.95781 14.5666C6.95734 14.5671 6.95734 14.5671 6.95703 14.5674C6.95655 14.5679 6.95655 14.5682 6.95577 14.5686C6.9553 14.5691 6.9553 14.5694 6.95499 14.5694C6.95295 14.573 6.95091 14.576 6.95012 14.5776C6.92393 14.6184 6.89742 14.6588 6.87012 14.6991C6.80723 14.7955 6.74276 14.8913 6.67752 14.9865C6.61791 15.0726 6.55832 15.1587 6.49918 15.2448C6.46609 15.293 6.43345 15.3407 6.40083 15.3888C6.39518 15.397 6.38986 15.4051 6.38452 15.4133C6.42326 15.4206 6.46201 15.4283 6.50122 15.4357C6.5889 15.4517 6.67626 15.4671 6.76519 15.4793C6.94839 15.5043 7.13458 15.5157 7.32013 15.5091C7.32908 15.5086 7.33801 15.5091 7.34632 15.5107C7.39087 15.447 7.44341 15.3711 7.51038 15.2694C7.54756 15.2127 7.583 15.1601 7.61642 15.1115C7.60135 15.0883 7.59195 15.0605 7.58865 15.0312Z" fill="white"/>
<path d="M6.93636 15.7881C6.92051 15.9293 6.76257 16.2949 6.51601 16.643C6.30959 16.934 6.18427 17.0045 6.15932 17.0069C6.05973 16.9932 5.96138 16.7467 5.88342 16.5023C5.85205 16.4032 5.82383 16.3043 5.80014 16.2215C5.74665 16.0355 5.73692 15.7861 5.74634 15.6294C5.95447 15.7448 6.32009 15.7759 6.83346 15.7779H6.83503C6.86892 15.7815 6.90247 15.7853 6.93636 15.7881Z" fill="white"/>
<path d="M6.5709 14.6258V14.6266C6.56838 14.6299 6.56634 14.6335 6.56399 14.6368C6.47584 14.7665 6.38691 14.8956 6.29798 15.0248C6.25186 15.0913 6.20623 15.1578 6.16089 15.2248C6.13596 15.2612 6.10254 15.3012 6.07353 15.3443C6.00043 15.3272 5.9275 15.3104 5.85519 15.2901C5.79606 15.273 5.7377 15.2546 5.68046 15.2317C5.669 15.2276 5.65803 15.2231 5.64737 15.2179C5.63795 15.1988 5.62446 15.1815 5.60815 15.1685C5.60863 15.168 5.60863 15.1669 5.60894 15.1664C5.6298 15.1239 5.65098 15.0811 5.67183 15.0388C5.71135 14.9608 5.75104 14.8833 5.79511 14.8082C5.87354 14.6727 5.96812 14.5348 6.10082 14.447C6.1074 14.4421 6.11462 14.4376 6.12167 14.4332C6.17312 14.4009 6.22458 14.3781 6.28778 14.3703C6.29516 14.3695 6.33955 14.3698 6.3604 14.3715C6.36401 14.3715 6.367 14.372 6.36904 14.372H6.36949C6.37108 14.3725 6.37405 14.3733 6.37844 14.3748C6.39397 14.3797 6.40949 14.383 6.42502 14.3883C6.43036 14.3908 6.43522 14.3932 6.44055 14.396C6.45405 14.4042 6.46784 14.4115 6.48055 14.4217C6.46015 14.4062 6.50877 14.4564 6.50877 14.4528C6.54799 14.507 6.55991 14.5524 6.5709 14.6258Z" fill="white"/>
<path d="M5.87266 14.257C5.70938 14.3912 5.59065 14.57 5.49151 14.7561C5.43599 14.8593 5.3858 14.9645 5.33357 15.0694C5.32823 15.0801 5.32289 15.0903 5.31679 15.1008C5.26738 15.0901 5.21796 15.0759 5.16982 15.0605C5.11837 15.0442 5.0674 15.0254 5.01845 15.0026C4.99602 14.992 4.9736 14.981 4.95117 14.9692C5.0001 14.8765 5.05845 14.7876 5.11398 14.7012C5.1924 14.5791 5.27726 14.4591 5.36949 14.3465C5.40415 14.3037 5.44085 14.2568 5.48947 14.2286C5.5392 14.1992 5.59927 14.2061 5.65636 14.2094C5.71676 14.2132 5.78169 14.2148 5.83878 14.2377C5.85055 14.2427 5.86325 14.2505 5.87266 14.257Z" fill="white"/>
<path d="M5.61345 16.448C5.60529 16.4548 5.59838 16.4623 5.59228 16.4708C5.58663 16.4725 5.58082 16.4738 5.57721 16.4746C5.53801 16.4787 5.49801 16.4816 5.45848 16.4841C5.38256 16.489 5.30539 16.4922 5.22868 16.4894C5.18588 16.4878 5.14713 16.4813 5.12957 16.454C5.10134 16.4111 5.09286 16.3365 5.08266 16.2797C5.03247 16.001 5.02589 15.7105 5.06148 15.4285C5.2072 15.4807 5.357 15.5212 5.51071 15.5464C5.47762 15.8007 5.53393 16.174 5.56702 16.2883C5.58238 16.3415 5.59791 16.3952 5.61345 16.448Z" fill="white"/>
<path d="M5.14487 14.1647C5.01594 14.3229 4.89845 14.4915 4.79305 14.6661C4.75055 14.7372 4.70238 14.8106 4.66694 14.8865C4.61597 14.8722 4.56985 14.8518 4.52092 14.8216C4.48343 14.7983 4.44704 14.7726 4.41159 14.7456C4.40265 14.7383 4.37817 14.7191 4.36297 14.7069C4.35936 14.7041 4.35607 14.7012 4.35229 14.6992C4.36407 14.6658 4.38572 14.6286 4.39763 14.6037C4.42461 14.5446 4.45473 14.4865 4.48625 14.4299C4.54617 14.3239 4.61314 14.2202 4.68906 14.1247C4.71729 14.0895 4.74412 14.0442 4.78787 14.0312C4.82787 14.0197 4.88057 14.0251 4.91272 14.0307C5.00825 14.0492 5.08291 14.0925 5.14487 14.1647Z" fill="white"/>
<path d="M4.15048 14.8546C4.15258 14.8464 4.16316 14.8453 4.16813 14.8522C4.20186 14.8992 4.24818 14.9402 4.29779 14.9788C4.32003 14.9957 4.34213 15.0126 4.3646 15.0286C4.36809 15.031 4.36974 15.0354 4.36875 15.0395C4.31681 15.255 4.28094 15.4833 4.27975 15.7087C4.27969 15.7212 4.26089 15.7239 4.25799 15.7118C4.19368 15.4427 4.11012 15.0126 4.15048 14.8546Z" fill="white"/>
<path d="M4.78282 15.3327C4.75663 15.5254 4.74408 15.7184 4.75255 15.9126C4.75663 16.0191 4.76808 16.1248 4.78235 16.2301C4.78235 16.2309 4.78235 16.2317 4.78282 16.2321V16.2326C4.75991 16.2273 4.73593 16.2265 4.71146 16.2301C4.71632 16.2285 4.70377 16.2293 4.69844 16.2293H4.69686C4.69327 16.2288 4.68793 16.2285 4.6862 16.228C4.65923 16.2215 4.65688 16.2186 4.63554 16.2051C4.60778 16.1873 4.57844 16.1545 4.55884 16.1211C4.50708 16.0314 4.49564 15.9224 4.49155 15.8207C4.48386 15.6212 4.50096 15.422 4.53813 15.2266C4.56997 15.2396 4.59774 15.2515 4.64385 15.2714C4.6895 15.2913 4.73686 15.311 4.78298 15.3323V15.3327H4.78282Z" fill="white"/>
<g opacity="0.8">
<path opacity="0.8" d="M9.87522 25.4112C8.99633 25.4112 8.16276 25.3557 7.46328 25.3012L7.27045 25.2862L7.07788 25.2594C6.99367 25.2476 6.87914 25.2352 6.76864 25.2232C6.09572 25.15 4.84431 25.0137 3.46281 24.3649L3.24825 24.2638L3.04816 24.1516C0.392977 22.6635 -0.600706 20.4236 -1.13577 19.2196C-1.16983 19.143 -1.21113 19.0499 -1.25002 18.9642C-1.5201 18.4114 -1.69094 17.9131 -1.83577 17.4569L-1.86795 17.3549L-1.89477 17.256C-2.28018 15.8863 -2.37753 14.7035 -2.20106 13.5339C-2.02405 12.3594 -1.58903 11.2909 -0.83324 10.1725L-0.441398 9.53262C-0.3618 9.40337 -0.305599 9.2611 -0.27538 9.11235C0.0233954 7.63161 0.701407 6.58268 1.03451 6.08169C1.1262 5.4753 1.2774 4.87943 1.48589 4.3027L1.51701 4.21527L1.55026 4.12998C1.55563 4.11496 1.5626 4.09378 1.57547 4.05515C1.72513 3.60431 2.07594 2.54947 2.97442 1.4418L3.3118 1.03307L3.65564 0.722492C4.53881 -0.0800127 5.59091 -0.673941 6.73432 -1.01545C7.37265 -1.20582 8.03076 -1.32218 8.69567 -1.36223L8.76003 -1.36706L8.85685 -1.37162C8.97192 -1.37698 9.08643 -1.37966 9.19827 -1.37966C9.61318 -1.38044 10.0274 -1.34553 10.4363 -1.27533C10.6918 -1.23233 10.9542 -1.26236 11.1934 -1.36196C11.9024 -1.65769 12.6475 -1.85774 13.4093 -1.95683C13.4729 -1.96596 13.5284 -1.97293 13.5721 -1.97856C13.6922 -1.99358 13.8832 -2.01611 14.1139 -2.0381C14.5162 -2.07645 15.133 -2.12231 15.8017 -2.12231C17.1076 -2.12231 18.2315 -1.95307 19.2379 -1.60522L19.3234 -1.57545L19.407 -1.54407C21.6277 -0.704873 22.7582 0.467434 23.5711 1.50162L23.6098 1.55096L23.7216 1.65047C24.456 2.225 25.0806 2.92755 25.5652 3.7242L25.7167 3.97362L25.8447 4.23512C26.9309 6.45233 26.5858 8.49951 26.4557 9.26871L26.4486 9.30973C26.3551 9.8772 26.2063 10.4341 26.0042 10.9726C25.9299 11.4917 25.8077 12.0029 25.639 12.4994C25.3507 13.3821 24.9252 14.214 24.3784 14.9645C24.0635 15.4098 23.7081 15.825 23.3164 16.2046C23.1779 16.3384 23.0881 16.5147 23.0614 16.7054C23.0444 16.8228 23.0251 16.9389 23.0031 17.054C22.6847 18.7619 21.9378 19.9507 21.6328 20.424L20.711 21.7479C19.601 23.1309 18.2839 24.0431 16.6899 24.5334L16.3037 24.6543L15.8867 24.727C15.4095 24.8112 14.9258 24.853 14.4413 24.8521C14.3745 24.8521 14.3072 24.8521 14.2327 24.8501H14.2112L14.1289 24.8552L14.0406 24.8584H14.0382C13.8535 24.8646 13.6704 24.8948 13.4935 24.9482C12.4639 25.2632 11.2994 25.4112 9.87522 25.4112V25.4112Z" stroke="url(#paint1_linear_13605_73025)" stroke-width="0.166021" stroke-miterlimit="10"/>
<path opacity="0.8" d="M9.87532 24.5016C9.03316 24.5016 8.22536 24.4481 7.54653 24.3944L7.38562 24.382L7.22469 24.3598C7.12438 24.3459 7.00181 24.333 6.88354 24.3196C6.22994 24.2484 5.13729 24.1297 3.9175 23.5576L3.73835 23.4734L3.57179 23.3798C1.2288 22.0656 0.361971 20.1144 -0.156193 18.9483C-0.193205 18.8652 -0.238527 18.763 -0.280903 18.6701C-0.522284 18.1751 -0.680522 17.7178 -0.814086 17.2969L-0.840906 17.2122L-0.86424 17.1296C-1.207 15.9115 -1.29551 14.8719 -1.14263 13.8576C-0.989758 12.8432 -0.604622 11.9059 0.0672208 10.9178L0.569292 10.0979C0.658077 9.95268 0.719014 9.79214 0.748985 9.62456C0.998947 8.2318 1.65685 7.24429 1.95589 6.79477L1.9937 6.73792L2.00766 6.71539C2.01381 6.70171 2.01972 6.68856 2.02536 6.67434C2.04359 6.61508 2.06155 6.55769 2.07899 6.50296C2.15763 5.93162 2.29652 5.37018 2.49336 4.82806L2.52018 4.75511L2.54888 4.68189C2.55799 4.65855 2.56658 4.63335 2.59179 4.55771C2.73421 4.1286 3.03056 3.23762 3.80594 2.28175L4.08728 1.94115L4.37292 1.68287C5.13866 0.987077 6.05092 0.472156 7.04232 0.176116C7.60516 0.00902571 8.18531 -0.0929336 8.7714 -0.127758L8.82505 -0.132047L8.9055 -0.135802C9.0034 -0.140361 9.10103 -0.142507 9.19623 -0.142507C9.61667 -0.143255 10.0361 -0.264284 10.4479 -0.179719C10.7658 -0.11398 11.0962 -0.149142 11.3931 -0.280294C11.9477 -0.524893 12.6944 -0.622586 13.5491 -0.729062C13.61 -0.737912 13.6631 -0.744619 13.7044 -0.749715C13.8168 -0.763928 13.9965 -0.785119 14.214 -0.80577C14.5922 -0.841977 15.1742 -0.88623 15.7999 -0.88623C16.9846 -0.88623 17.9937 -0.736304 18.8855 -0.427873L18.9568 -0.4032L19.0265 -0.376381C20.9949 0.36734 21.9678 1.3629 22.7256 2.32815C22.7678 2.3818 22.8109 2.43678 22.827 2.45583L22.845 2.47191L22.9887 2.59984L23.0081 2.6197C23.6628 3.12128 24.2185 3.74037 24.6468 4.44533L24.7728 4.65318L24.8801 4.87096C25.8145 6.77815 25.5216 8.51313 25.3967 9.25418L25.39 9.29361C25.3013 9.83194 25.1562 10.3595 24.957 10.8674C24.8943 11.3618 24.7818 11.8485 24.6213 12.3203C24.3663 13.1013 23.9901 13.8374 23.5064 14.5015C23.1789 14.967 22.8002 15.3944 22.3776 15.7755C22.1813 15.9516 22.0576 16.1943 22.0301 16.4564C22.0097 16.6496 21.9821 16.8373 21.9473 17.0215C21.6665 18.5291 21.0102 19.5718 20.7098 20.0388L19.9632 21.1242C18.9709 22.3993 17.795 23.2331 16.3705 23.6721L16.0488 23.773L15.7001 23.8332C15.284 23.9067 14.8621 23.9433 14.4396 23.9425C14.3781 23.9425 14.3154 23.9425 14.2478 23.9408H14.2288H14.1888C14.1888 23.9408 14.1754 23.9408 14.148 23.9428L14.0743 23.9474L14 23.95L13.8517 23.9557C13.6556 23.9625 13.4614 23.9963 13.2745 24.0559C12.3261 24.3588 11.2303 24.5016 9.87532 24.5016V24.5016Z" stroke="url(#paint2_linear_13605_73025)" stroke-width="0.166021" stroke-miterlimit="10"/>
<path opacity="0.8" d="M9.87517 23.4288C9.07057 23.4288 8.28796 23.3765 7.62924 23.3253L7.50079 23.3153L7.37259 23.2977C7.25645 23.2815 7.12583 23.2673 6.99951 23.2534C6.37488 23.1855 5.43161 23.0828 4.37383 22.5867L4.23034 22.5194L4.09625 22.4445C2.06435 21.3055 1.31822 19.6252 0.824192 18.5132C0.782086 18.418 0.734345 18.3107 0.690092 18.2113C0.475532 17.7749 0.332313 17.3586 0.21028 16.9733L0.188824 16.9057L0.17005 16.8394C-0.130066 15.773 -0.209452 14.8764 -0.0801794 14.0185C0.0509708 13.1484 0.392657 12.3374 0.994499 11.4657L1.06611 11.3622L1.14362 11.2627C1.19243 11.2005 1.23937 11.1391 1.2855 11.079L1.58749 10.5251C1.68653 10.3441 1.75341 10.1473 1.78515 9.94342C1.97718 8.70086 2.57581 7.80317 2.85205 7.38908L2.85341 7.38693C2.86923 7.36334 2.8896 7.3333 2.90007 7.31666L2.95907 7.22252C2.98214 7.1721 3.01271 7.10505 3.03953 7.03478C3.06636 6.95083 3.09827 6.84704 3.13313 6.73976C3.1986 6.21044 3.32402 5.69028 3.50701 5.1893L3.52792 5.13083L3.55073 5.07183C3.57003 5.02275 3.58425 4.9801 3.61213 4.89615C3.74436 4.49895 3.98949 3.76166 4.64149 2.95733L4.86706 2.68456L5.09475 2.47886C5.74294 1.88984 6.51514 1.45393 7.35434 1.20329C7.84144 1.05873 8.34364 0.971074 8.85091 0.942069L8.89382 0.938849L8.95899 0.9359C9.03945 0.932145 9.11991 0.930269 9.20036 0.930269C9.63653 0.929669 10.071 0.984919 10.4931 1.09468C10.8586 1.18713 11.245 1.14634 11.5831 0.979616C12.124 0.717048 12.8476 0.438385 13.6954 0.334323C13.7536 0.32601 13.8027 0.319574 13.8426 0.314477C13.9481 0.301336 14.116 0.281489 14.3198 0.260838C14.6746 0.226776 15.2201 0.186279 15.8037 0.186279C16.8672 0.186279 17.7616 0.316892 18.5394 0.585628L18.5965 0.605478L18.6523 0.626395C20.4602 1.30977 21.2697 2.20476 21.8863 2.98979C22.0223 3.16277 22.0429 3.18959 22.1363 3.27246L22.2514 3.37491L22.2961 3.42077C22.5936 3.65116 23.2017 4.12561 23.7341 5.00316L23.8352 5.16944L23.9206 5.34352C24.7031 6.94064 24.4597 8.38303 24.3428 9.07633L24.3363 9.11468C24.2525 9.62303 24.111 10.1201 23.9141 10.5962L23.9088 10.6399C23.8568 11.0954 23.7562 11.544 23.6086 11.978C23.3872 12.6576 23.06 13.2981 22.6391 13.8758C22.287 14.3806 21.8636 14.8318 21.3823 15.2155C21.2679 15.3062 21.174 15.4205 21.1074 15.5505C21.0406 15.6806 21.0026 15.8234 20.9955 15.9694C20.9825 16.2559 20.9495 16.5413 20.8969 16.8232C20.6538 18.1305 20.0832 19.0368 19.7919 19.4892L19.2132 20.3445C18.3407 21.5093 17.3066 22.2632 16.0567 22.6464L15.7994 22.7269L15.5213 22.7752C15.1657 22.8381 14.8051 22.8693 14.444 22.8686C14.3879 22.8686 14.3308 22.8686 14.2691 22.867H14.2549H14.1932C14.1827 22.867 14.1508 22.867 14.0859 22.8709L14.0269 22.8747L13.9698 22.8768L13.6715 22.8879C13.4626 22.8951 13.2559 22.9323 13.0576 22.9986C12.1889 23.2912 11.1641 23.4288 9.87517 23.4288V23.4288Z" stroke="url(#paint3_linear_13605_73025)" stroke-width="0.155646" stroke-miterlimit="10"/>
<path opacity="0.8" d="M9.87498 22.3561C9.10605 22.3561 8.34999 22.3053 7.71221 22.2559L7.61593 22.2484L7.51965 22.2351C7.38796 22.2168 7.2493 22.2017 7.11493 22.1871C6.52783 22.123 5.72511 22.0359 4.82906 21.6155L4.72177 21.5649L4.62174 21.5089C2.90096 20.5434 2.26801 19.1189 1.80563 18.0781C1.75763 17.9708 1.70773 17.8578 1.65838 17.7497C1.46179 17.3545 1.33654 16.9749 1.23248 16.6501L1.21639 16.5994L1.20244 16.5499C0.6993 14.7617 0.888382 13.5074 1.87698 12.0762L1.93061 11.9985L1.98881 11.9239C2.05451 11.8399 2.11593 11.7592 2.17655 11.6825C2.26773 11.5629 2.36 11.4411 2.46058 11.3159C2.52298 11.2378 2.57335 11.1509 2.60995 11.0579L2.72341 10.7682C2.77149 10.6451 2.80166 10.5156 2.81299 10.3839C2.91142 9.23679 3.46927 8.40055 3.74553 7.98618L3.74713 7.98403C3.76724 7.95345 3.79782 7.90786 3.80801 7.8915L3.87265 7.78824L3.8925 7.76141C3.92684 7.69196 3.99415 7.54525 4.05342 7.39157C4.08533 7.28644 4.13575 7.12499 4.18511 6.97828C4.18511 6.97265 4.18511 6.96648 4.18724 6.96004C4.24013 6.47937 4.35089 6.00687 4.51714 5.55279L4.53296 5.50881L4.55012 5.46455C4.58016 5.38811 4.60135 5.32429 4.63059 5.23604C4.7486 4.88148 4.94599 4.28796 5.47488 3.63568L5.64411 3.43079L5.81389 3.27738C7.06316 2.14396 8.46104 2.04607 8.92824 2.01469L8.96042 2.01227L9.00978 2.00985C9.07333 2.0069 9.13689 2.00556 9.19911 2.00556C9.75379 2.00752 10.3025 2.11975 10.8134 2.33572C10.9039 2.37332 11.0016 2.39041 11.0995 2.38577C11.1974 2.38114 11.2931 2.35488 11.3796 2.30889H11.3823C11.8573 2.03346 12.7273 1.53407 13.8366 1.4005C13.8902 1.39246 13.9396 1.38629 13.9758 1.38173C14.0734 1.36939 14.2292 1.35116 14.4207 1.33265C14.7522 1.301 15.2613 1.26318 15.8025 1.26318C16.7447 1.26318 17.5246 1.37476 18.187 1.6038L18.23 1.61855L18.2718 1.63438C19.8211 2.21986 20.4894 2.95446 21.0407 3.65661C21.189 3.84435 21.2553 3.93152 21.4213 4.07795L21.5077 4.15493L21.5769 4.226L21.6304 4.26837C21.8931 4.47167 22.3815 4.8501 22.8149 5.56298L22.8909 5.6877L22.9549 5.81831C23.5852 7.10568 23.388 8.27315 23.282 8.90074L23.2758 8.93802C23.2012 9.39423 23.0714 9.83968 22.8892 10.2645L22.8739 10.301C22.8722 10.3088 22.8701 10.3203 22.8669 10.3372C22.8585 10.3804 22.8538 10.4147 22.8481 10.4584L22.8417 10.5078C22.7988 10.8925 22.714 11.2715 22.5893 11.638C22.4015 12.2161 22.1237 12.7608 21.7656 13.252C21.4117 13.7546 21.0148 14.1639 20.5692 14.4879C20.3736 14.6308 20.214 14.8171 20.1028 15.0322C19.9914 15.2473 19.9318 15.4854 19.9282 15.7275C19.9245 16.0295 19.8949 16.3306 19.8399 16.6276C19.6345 17.735 19.162 18.4849 18.8678 18.9419L18.4473 19.5724C17.6941 20.6247 16.8056 21.2965 15.7362 21.6239L15.6797 21.6417C15.5889 21.6701 15.4964 21.6926 15.4026 21.7086L15.3348 21.7205C15.0398 21.7728 14.7407 21.7987 14.4411 21.7979C14.3904 21.7979 14.3389 21.7979 14.2831 21.7966H14.274C14.2485 21.7966 14.2204 21.7966 14.1903 21.7966C14.1694 21.7966 14.1142 21.7966 14.0144 21.8028L13.9701 21.8054L13.927 21.807C13.7835 21.8124 13.6051 21.8186 13.4461 21.8257C13.2281 21.8346 13.0128 21.8769 12.8075 21.9509C12.0378 22.2258 11.0958 22.3561 9.87498 22.3561V22.3561Z" stroke="url(#paint4_linear_13605_73025)" stroke-width="0.145269" stroke-miterlimit="10"/>
<g opacity="0.8">
<path opacity="0.8" d="M9.87528 21.2833C9.14283 21.2833 8.41305 21.2342 7.79564 21.1862L7.73128 21.1813L7.66719 21.1723C7.5194 21.1519 7.37217 21.1357 7.23029 21.1204C6.69066 21.0618 6.01909 20.9885 5.28475 20.6441L5.21288 20.6104L5.14637 20.5731C3.7367 19.7828 3.20996 18.5961 2.78619 17.6427C2.73417 17.5253 2.67892 17.404 2.62528 17.2859C2.45927 16.9548 2.34688 16.6156 2.25461 16.325L2.24389 16.2915L2.2345 16.2585C1.81933 14.7834 1.95638 13.8471 2.7591 12.685L2.79478 12.6333L2.83367 12.5836C2.90368 12.4941 2.96777 12.4104 3.02892 12.3297C3.23839 12.055 3.43981 11.7906 3.741 11.469C3.80704 11.3984 3.84657 11.3072 3.85284 11.2107L3.87563 10.8637L3.86678 10.75L3.87079 10.632C3.90217 9.6801 4.38038 8.964 4.63625 8.5794C4.66575 8.53488 4.69659 8.48902 4.71483 8.45979L4.75801 8.39112L4.79798 8.33749C4.84572 8.25945 4.97124 7.99339 5.06617 7.73806C5.09889 7.63078 5.16219 7.42614 5.21798 7.26387C5.23434 7.21212 5.23594 7.19951 5.24936 7.08848C5.29297 6.6868 5.38546 6.29194 5.5248 5.91269L5.53525 5.88319L5.54678 5.85341C5.58648 5.75204 5.61411 5.66916 5.64603 5.57315C5.74714 5.269 5.89946 4.81065 6.30552 4.30991L6.41871 4.17313L6.53081 4.07176C7.40596 3.27708 8.3594 3.12662 9.00283 3.08343L9.02454 3.08155H9.0578C9.10448 3.07942 9.15088 3.07834 9.19646 3.07834C9.74601 3.07834 10.4034 3.34198 10.7485 3.50129C10.8311 3.53917 10.9203 3.56035 11.0111 3.56363C11.1018 3.56689 11.1924 3.55218 11.2774 3.52033C11.4922 3.44253 11.7015 3.35042 11.904 3.24462C12.343 2.98983 13.0714 2.56903 13.9761 2.46363C14.0259 2.45612 14.0707 2.45049 14.1078 2.44565C14.1987 2.43439 14.3422 2.41883 14.52 2.40033C14.8284 2.37083 15.3007 2.33569 15.7998 2.33569C16.6205 2.33569 17.2859 2.42795 17.8338 2.61731L17.8623 2.62722L17.8892 2.63769C19.1832 3.12662 19.6982 3.68849 20.1935 4.31904C20.3543 4.52234 20.4681 4.66769 20.7044 4.87904L20.7618 4.93027L20.8154 4.98391C20.8637 5.03168 20.9156 5.07551 20.9707 5.11506C21.1929 5.28698 21.5651 5.57502 21.8952 6.11866L21.9457 6.2018L21.9886 6.28897C22.467 7.26549 22.3134 8.1763 22.2214 8.72048L22.2152 8.75749C22.1542 9.13315 22.0471 9.49986 21.8964 9.84934V9.85202C21.8546 9.9424 21.8258 10.0382 21.8108 10.1366C21.7979 10.2052 21.7898 10.2605 21.7821 10.3216L21.7756 10.3715C21.7411 10.6854 21.6725 10.9946 21.571 11.2936C21.4178 11.7706 21.1888 12.2198 20.8926 12.6239C20.4556 13.2474 19.9503 13.6862 19.3414 13.9649C19.1935 14.0324 19.0672 14.1394 18.9764 14.2742C18.8854 14.409 18.8335 14.5663 18.8265 14.7287C18.8236 14.7952 18.8224 14.8499 18.8244 14.8805C18.8544 15.3496 18.8884 15.8812 18.7839 16.4288C18.6162 17.3346 18.2327 17.9434 17.9444 18.3904C17.9444 18.3904 16.6216 20.2314 15.4179 20.5988L15.2884 20.6393L15.1492 20.6637C14.9149 20.7054 14.6774 20.7259 14.4395 20.7251C14.3945 20.7251 14.3483 20.7251 14.2987 20.7238H14.2944C14.2625 20.7238 14.2279 20.7238 14.1888 20.7238C14.1416 20.7238 14.0646 20.7238 13.9449 20.7321L13.9157 20.7339H13.8868C13.4263 20.7506 12.991 20.7661 12.87 20.7898C12.8053 20.7999 12.7421 20.8184 12.6823 20.845C12.001 21.1436 11.1077 21.2833 9.87528 21.2833Z" stroke="url(#paint5_linear_13605_73025)" stroke-width="0.134893" stroke-miterlimit="10"/>
<path opacity="0.8" d="M9.87527 20.2104C9.17956 20.2104 8.47553 20.1631 7.87852 20.1165L7.8466 20.1142L7.81468 20.1097C7.65135 20.0871 7.49633 20.0702 7.34614 20.0538C6.83816 19.9987 6.31275 19.9415 5.74015 19.6729L5.70421 19.6558L5.67096 19.6373C4.57133 19.0205 4.16286 18.0992 3.76673 17.2071C3.7104 17.0806 3.6522 16.9497 3.59213 16.8195C3.45803 16.5546 3.36309 16.2703 3.2778 16.0011L3.27243 15.9844L3.26761 15.9675C2.93745 14.7933 3.02139 14.1939 3.64309 13.2947L3.66106 13.2678L3.68036 13.2429C3.75331 13.1498 3.81956 13.0629 3.8834 12.979C4.18217 12.5871 4.44044 12.2484 5.01922 11.7141L5.02083 11.7125C5.06327 11.672 5.09306 11.62 5.10663 11.5629C5.1202 11.5058 5.11695 11.446 5.09727 11.3907L4.99293 11.0932C4.97197 10.9995 4.95727 10.9044 4.94895 10.8087V10.8055L4.94252 10.725L4.94467 10.666C4.96585 10.0199 5.30567 9.5106 5.53042 9.17348C5.56555 9.11984 5.59907 9.07075 5.62509 9.02892L5.64655 8.99459L5.67068 8.96213C5.79003 8.80122 5.98394 8.35573 6.08586 8.07975C6.11267 7.99473 6.18134 7.76649 6.23847 7.60102C6.27914 7.47656 6.3055 7.34789 6.31705 7.21749C6.35078 6.89456 6.42483 6.57713 6.5375 6.27261L6.54287 6.25759L6.54877 6.24285C6.59838 6.11545 6.63326 6.01085 6.66705 5.90948C6.7569 5.63939 6.85855 5.3331 7.1415 4.98419L7.19835 4.91552L7.25388 4.86536C7.87556 4.30053 8.55706 4.18682 9.08273 4.15196H9.09373H9.11089C9.14039 4.15196 9.16989 4.15008 9.19914 4.15008C9.7106 4.15008 10.1038 4.35981 10.3639 4.49873L10.4245 4.53093L10.4337 4.53575C10.505 4.57438 10.5678 4.60817 10.626 4.63686C10.7876 4.71795 10.9734 4.73704 11.1481 4.69051C11.5043 4.59475 12.06 4.38394 12.4339 4.17851L12.4417 4.17395C12.8349 3.94598 13.4271 3.60269 14.1212 3.52651C14.1649 3.51953 14.2067 3.51444 14.2461 3.50935C14.3266 3.49916 14.4607 3.48252 14.6246 3.46778C14.9099 3.44096 15.3458 3.40796 15.8025 3.40796C16.5019 3.40796 17.0526 3.48092 17.4859 3.63057L17.5001 3.63567L17.5147 3.64104C18.5529 4.03341 18.9317 4.44402 19.3535 4.98203C19.5251 5.20061 19.6874 5.40714 19.995 5.68097L20.0237 5.7078L20.0505 5.7346C20.1338 5.81851 20.2234 5.89573 20.3188 5.96553C20.5032 6.10848 20.7561 6.30427 20.9834 6.67813L21.0086 6.71971L21.0299 6.76342C21.3565 7.4299 21.2477 8.07413 21.1684 8.54429L21.1622 8.58128C21.1147 8.8779 21.0298 9.16727 20.9093 9.44249C20.8391 9.60092 20.7891 9.76765 20.7607 9.93865C20.7419 10.0379 20.731 10.1154 20.7219 10.1873L20.7153 10.2382C20.6895 10.4813 20.637 10.7207 20.5584 10.9522C20.4394 11.3277 20.2595 11.6811 20.0259 11.9982C19.6316 12.5641 19.1945 12.913 18.6138 13.0978C18.3356 13.1858 18.0961 13.3671 17.9361 13.6111L17.8899 13.6819L17.8389 13.7401C17.6915 13.908 17.733 14.5587 17.7584 14.947C17.7854 15.3732 17.8139 15.8139 17.7344 16.2288C17.6035 16.9381 17.2997 17.4169 17.0277 17.838C17.0277 17.838 16.0176 19.2951 15.1063 19.5719L15.04 19.5928L14.9703 19.6049C14.7967 19.6359 14.6207 19.6512 14.4443 19.6504C14.4046 19.6504 14.3639 19.6504 14.3207 19.6504C14.2823 19.6504 14.2402 19.6504 14.1936 19.6504C14.1316 19.6504 14.0327 19.6504 13.8819 19.6609H13.8674H13.8529C13.2417 19.6832 12.8729 19.6963 12.6691 19.736C12.5319 19.7603 12.398 19.8003 12.27 19.8553C11.7242 20.0973 10.962 20.2104 9.87527 20.2104V20.2104Z" stroke="url(#paint6_linear_13605_73025)" stroke-width="0.134893" stroke-miterlimit="10"/>
</g>
</g>
</g>
<defs>
<radialGradient id="paint0_radial_13605_73025" cx="0" cy="0" r="1" gradientUnits="userSpaceOnUse" gradientTransform="translate(12 13.2575) rotate(90) scale(13.4817)">
<stop offset="0.166667" stop-color="#073183"/>
<stop offset="1" stop-color="#0054F9"/>
</radialGradient>
<linearGradient id="paint1_linear_13605_73025" x1="-2.28589" y1="-2.12231" x2="25.2155" y2="26.7418" gradientUnits="userSpaceOnUse">
<stop offset="0.205697" stop-color="#89D0FF"/>
<stop offset="0.398413" stop-color="#EBBF9A"/>
<stop offset="0.601546" stop-color="#EB8280"/>
<stop offset="0.841139" stop-color="#A281FF"/>
</linearGradient>
<linearGradient id="paint2_linear_13605_73025" x1="-1.21484" y1="-0.886231" x2="24.1382" y2="25.8321" gradientUnits="userSpaceOnUse">
<stop offset="0.205697" stop-color="#89D0FF"/>
<stop offset="0.398413" stop-color="#EBBF9A"/>
<stop offset="0.601546" stop-color="#EB80DA"/>
<stop offset="0.841139" stop-color="#A281FF"/>
</linearGradient>
<linearGradient id="paint3_linear_13605_73025" x1="-0.139893" y1="0.186279" x2="23.0646" y2="24.7583" gradientUnits="userSpaceOnUse">
<stop offset="0.205697" stop-color="#89D0FF"/>
<stop offset="0.398413" stop-color="#EBBF9A"/>
<stop offset="0.601546" stop-color="#EB8280"/>
<stop offset="0.841139" stop-color="#A281FF"/>
</linearGradient>
<linearGradient id="paint4_linear_13605_73025" x1="0.933106" y1="1.26318" x2="21.9842" y2="23.6825" gradientUnits="userSpaceOnUse">
<stop offset="0.205697" stop-color="#89D0FF"/>
<stop offset="0.398413" stop-color="#EBBF9A"/>
<stop offset="0.601546" stop-color="#EB80E7"/>
<stop offset="0.841139" stop-color="#A281FF"/>
</linearGradient>
<linearGradient id="paint5_linear_13605_73025" x1="2.00611" y1="2.33569" x2="20.9078" y2="22.6004" gradientUnits="userSpaceOnUse">
<stop offset="0.205697" stop-color="#89D0FF"/>
<stop offset="0.398413" stop-color="#EBBF9A"/>
<stop offset="0.601546" stop-color="#EB80D3"/>
<stop offset="0.841139" stop-color="#A281FF"/>
</linearGradient>
<linearGradient id="paint6_linear_13605_73025" x1="3.07739" y1="3.40796" x2="19.8283" y2="21.5263" gradientUnits="userSpaceOnUse">
<stop offset="0.205697" stop-color="#89D0FF"/>
<stop offset="0.398413" stop-color="#EBBF9A"/>
<stop offset="0.601546" stop-color="#A280EB"/>
<stop offset="0.841139" stop-color="#A281FF"/>
</linearGradient>
<clipPath id="clip0_13605_73025">
<path d="M0 12C0 5.37258 5.37258 0 12 0C18.6274 0 24 5.37258 24 12C24 18.6274 18.6274 24 12 24C5.37258 24 0 18.6274 0 12Z" fill="white"/>
</clipPath>
</defs>
</svg>
