<svg width="98" height="98" viewBox="0 0 98 98" fill="none" xmlns="http://www.w3.org/2000/svg">
<circle cx="53" cy="53" r="42.5" fill="white" stroke="white" stroke-width="5"/>
<path fill-rule="evenodd" clip-rule="evenodd" d="M52.5 15C73.2107 15 90 31.7893 90 52.5C90 73.2107 73.2107 90 52.5 90C31.7893 90 15 73.2107 15 52.5C15 31.7893 31.7893 15 52.5 15Z" fill="#2E3148"/>
<path fill-rule="evenodd" clip-rule="evenodd" d="M52.4217 30.8613C64.3701 30.8613 74.0564 40.5474 74.0564 52.4961C74.0564 64.4445 64.3701 74.1306 52.4217 74.1306C40.4733 74.1306 30.7871 64.4445 30.7871 52.4961C30.7871 40.5474 40.4733 30.8613 52.4217 30.8613Z" fill="#1B1E36"/>
<path opacity="0.67" fill-rule="evenodd" clip-rule="evenodd" d="M53.076 21.413C52.7783 21.1389 52.6244 21.1337 52.5986 21.1337C52.5728 21.1337 52.419 21.1389 52.1212 21.413C51.8155 21.6944 51.4498 22.18 51.056 22.9291C50.2698 24.4245 49.5175 26.6847 48.8691 29.6011C48.1397 32.8807 47.5635 36.8893 47.2 41.3767C48.9558 42.2263 50.7613 43.1499 52.5981 44.1415C54.4352 43.1496 56.241 42.2258 57.9973 41.3762C57.6337 36.8891 57.0575 32.8806 56.3281 29.6011C55.6798 26.6847 54.9274 24.4245 54.1412 22.9291C53.7474 22.18 53.382 21.6944 53.076 21.413ZM51.0614 44.9834C49.7126 44.2667 48.3837 43.5888 47.0826 42.9517C46.9839 44.3963 46.9071 45.8854 46.8538 47.4113C47.5419 46.9991 48.2403 46.5887 48.9478 46.1803C49.6553 45.7719 50.3603 45.373 51.0614 44.9834ZM45.7835 40.7023C46.8372 28.3972 49.4912 19.666 52.5986 19.666C55.7061 19.666 58.3601 28.397 59.4137 40.7018C70.6034 35.4616 79.4962 33.3932 81.0498 36.0826C82.6034 38.772 76.3646 45.4345 66.2286 52.4988C76.3646 59.5633 82.6034 66.2257 81.0498 68.9152C79.4962 71.6044 70.6034 69.5361 59.4137 64.2959C58.3601 76.6006 55.7061 85.3316 52.5986 85.3316C49.4912 85.3316 46.8372 76.6006 45.7835 64.2955C34.5935 69.5361 25.7003 71.6047 24.1465 68.9152C22.5928 66.2257 28.8317 59.5633 38.9677 52.4988C28.8317 45.4345 22.5928 38.772 24.1465 36.0826C25.7003 33.3931 34.5935 35.4617 45.7835 40.7023ZM40.2609 51.6097C36.5539 49.0513 33.368 46.548 30.8904 44.2768C28.6873 42.2573 27.1048 40.4759 26.2021 39.0479C25.7498 38.3325 25.5118 37.7734 25.4209 37.3682C25.3324 36.9736 25.4047 36.8386 25.4173 36.8168L25.4173 36.8168C25.43 36.7949 25.5112 36.6644 25.8979 36.5436C26.2948 36.4196 26.8985 36.346 27.7448 36.3797C29.434 36.447 31.769 36.9259 34.6206 37.8229C37.8273 38.8317 41.5893 40.3371 45.6595 42.2662C45.5179 44.2103 45.4155 46.2345 45.3566 48.3198C43.5787 49.4138 41.8753 50.5147 40.2609 51.6097ZM40.2609 53.388C36.5539 55.9465 33.368 58.4497 30.8904 60.7209C28.6873 62.7404 27.1048 64.5216 26.2021 65.9498C25.7498 66.6653 25.5118 67.2242 25.4209 67.6295C25.3324 68.024 25.4047 68.1591 25.4173 68.1809C25.4299 68.2027 25.511 68.3333 25.8979 68.454C26.2948 68.5782 26.8985 68.6517 27.7448 68.6179C29.434 68.5507 31.769 68.0717 34.6206 67.1747C37.8273 66.1661 41.5893 64.6604 45.6595 62.7315C45.5179 60.7872 45.4155 58.763 45.3566 56.6779C43.5787 55.5839 41.8753 54.483 40.2609 53.388ZM45.3178 54.9271C44.0221 54.1179 42.7698 53.3066 41.567 52.4988C42.7698 51.6912 44.0221 50.8799 45.3178 50.0707C45.3047 50.8723 45.2981 51.6823 45.2981 52.4988C45.2981 53.3155 45.3047 54.1252 45.3178 54.9271ZM46.8036 55.8422C46.7785 54.7437 46.7658 53.6283 46.7658 52.4988C46.7658 51.3692 46.7785 50.2541 46.8036 49.1555C47.7427 48.5847 48.7026 48.0162 49.6814 47.4514C50.6604 46.8866 51.6335 46.3397 52.5981 45.8121C53.5628 46.3397 54.5359 46.8866 55.5149 47.4514C56.4939 48.0164 57.4543 48.5851 58.3939 49.156C58.4188 50.2543 58.4314 51.3695 58.4314 52.4988C58.4314 53.6283 58.4188 54.7435 58.3939 55.8417C57.4543 56.4126 56.4939 56.9813 55.5149 57.5461C54.5359 58.1111 53.5628 58.6578 52.5981 59.1857C51.6335 58.6578 50.6604 58.1111 49.6814 57.5461C48.7026 56.9816 47.7427 56.4128 46.8036 55.8422ZM46.8538 57.5865C46.9071 59.1122 46.9839 60.6014 47.0826 62.0461C48.3837 61.409 49.7126 60.731 51.0614 60.0144C50.3603 59.6248 49.6553 59.2258 48.9478 58.8174C48.2403 58.4091 47.5419 57.9986 46.8538 57.5865ZM52.5981 60.856C50.7613 61.8479 48.9558 62.7714 47.2 63.621C47.5635 68.1083 48.1397 72.117 48.8691 75.3966C49.5175 78.3132 50.2698 80.5734 51.056 82.0685C51.4498 82.8178 51.8155 83.3032 52.1212 83.5848C52.419 83.8588 52.5728 83.864 52.5986 83.864C52.6244 83.864 52.7783 83.8588 53.076 83.5848C53.382 83.3032 53.7474 82.8178 54.1412 82.0685C54.9274 80.5734 55.6798 78.3132 56.3281 75.3966C57.0575 72.117 57.6337 68.1086 57.9973 63.6215C56.241 62.7717 54.4352 61.8481 52.5981 60.856ZM59.5377 62.732C63.6077 64.6606 67.3691 66.1661 70.5757 67.1747C73.4274 68.0717 75.7623 68.5507 77.4516 68.6179C78.2977 68.6517 78.9014 68.5782 79.2985 68.454C79.6853 68.3333 79.7665 68.2027 79.779 68.1809C79.7916 68.1593 79.864 68.0243 79.7754 67.6295C79.6846 67.2242 79.4464 66.6653 78.9942 65.9498C78.0915 64.5216 76.509 62.7404 74.3059 60.7209C71.8285 58.4497 68.6426 55.9465 64.9354 53.388C63.3212 54.4828 61.6183 55.5837 59.8406 56.6772C59.7817 58.7627 59.6793 60.7874 59.5377 62.732ZM64.9354 51.6097C68.6424 49.0513 71.8285 46.548 74.3059 44.2768C76.509 42.2573 78.0915 40.4759 78.9942 39.0479C79.4464 38.3325 79.6846 37.7734 79.7754 37.3682C79.864 36.9735 79.7916 36.8385 79.779 36.8168C79.7665 36.795 79.6853 36.6644 79.2985 36.5436C78.9014 36.4196 78.2977 36.346 77.4516 36.3797C75.7623 36.447 73.4274 36.9259 70.5757 37.8229C67.3691 38.8314 63.6077 40.3369 59.5377 42.2657C59.6793 44.2103 59.7817 46.2348 59.8406 48.3205C61.6183 49.4141 63.3214 50.5149 64.9354 51.6097ZM59.8796 50.0714C61.1749 50.8803 62.4268 51.6912 63.6293 52.4988C62.4268 53.3063 61.1749 54.1174 59.8796 54.9264C59.8925 54.1249 59.8991 53.3152 59.8991 52.4988C59.8991 51.6823 59.8925 50.8728 59.8796 50.0714ZM58.3436 47.4117C58.2903 45.8856 58.2133 44.3963 58.1147 42.9512C56.8133 43.5883 55.4842 44.2665 54.1348 44.9834C54.836 45.373 55.541 45.7719 56.2485 46.1803C56.9565 46.5887 57.6551 46.9994 58.3436 47.4117ZM58.1147 62.0463C56.8133 61.4092 55.4842 60.7313 54.1348 60.0144C54.836 59.6248 55.541 59.2258 56.2485 58.8174C56.9565 58.4089 57.6551 57.9981 58.3436 57.586C58.2903 59.1122 58.2133 60.6014 58.1147 62.0463Z" fill="#6F7390"/>
<path fill-rule="evenodd" clip-rule="evenodd" d="M31.6213 43.3086C32.8964 43.3086 33.9301 44.343 33.9301 45.6186C33.9301 46.8944 32.8964 47.9286 31.6213 47.9286C30.3462 47.9286 29.3125 46.8944 29.3125 45.6186C29.3125 44.343 30.3462 43.3086 31.6213 43.3086Z" fill="#B7B9C8"/>
<path fill-rule="evenodd" clip-rule="evenodd" d="M68.3295 35.3984C69.6051 35.3984 70.6393 36.4326 70.6393 37.7084C70.6393 38.9842 69.6051 40.0184 68.3295 40.0184C67.0537 40.0184 66.0195 38.9842 66.0195 37.7084C66.0195 36.4326 67.0537 35.3984 68.3295 35.3984Z" fill="#B7B9C8"/>
<path fill-rule="evenodd" clip-rule="evenodd" d="M47.9682 71.6523C49.2438 71.6523 50.2779 72.686 50.2779 73.9612C50.2779 75.2363 49.2438 76.27 47.9682 76.27C46.6924 76.27 45.6582 75.2363 45.6582 73.9612C45.6582 72.686 46.6924 71.6523 47.9682 71.6523Z" fill="#B7B9C8"/>
<path fill-rule="evenodd" clip-rule="evenodd" d="M52.4909 48.5742C54.6508 48.5742 56.4016 50.3251 56.4016 52.485C56.4016 54.6449 54.6508 56.3958 52.4909 56.3958C50.3309 56.3958 48.5801 54.6449 48.5801 52.485C48.5801 50.3251 50.3309 48.5742 52.4909 48.5742Z" fill="#B7B9C8"/>
<circle cx="21" cy="21" r="19.5" fill="#1BA27A" stroke="white" stroke-width="3"/>
<path d="M29 11H13V15.4538H19.0686V22H22.9314V15.4538H29V11Z" fill="white"/>
<path fill-rule="evenodd" clip-rule="evenodd" d="M21.0001 18C27.6275 18 33 19.2115 33 20.7061C33 22.0291 28.7904 23.1303 23.2274 23.3657V33H18.6865V23.3619C13.166 23.119 9 22.0224 9 20.7061C9 19.2115 14.3729 18 21.0001 18ZM10.3129 20.3563C10.3129 21.5154 15.098 22.455 21.0001 22.455C26.9022 22.455 31.6871 21.5154 31.6871 20.3563C31.6871 19.1973 26.9022 18.2576 21.0001 18.2576C15.0978 18.2576 10.3129 19.1973 10.3129 20.3563Z" fill="white"/>
</svg>
