<svg viewBox="0 0 24 24" fill="none" xmlns="http://www.w3.org/2000/svg">
    <g clip-path="url(#clip0_7107_35587)">
        <path d="M11.6748 0H12.4596L12.5616 0.006C14.5788 0.126 16.5516 0.696 18.2712 1.7688C20.4012 3.0768 22.1196 5.0724 23.0832 7.38C23.6076 8.6544 23.8908 10.0008 24 11.3724V12.4608C23.8908 14.5128 23.3232 16.5228 22.2312 18.2712C21.5148 19.4616 20.5416 20.5104 19.4724 21.3924C17.4336 23.0208 14.9304 23.9136 12.3252 24H11.5428C9.4884 23.8908 7.4784 23.3232 5.7288 22.2312C3.9276 21.126 2.4192 19.5264 1.4172 17.6652C0.5652 16.104 0.1428 14.394 0 12.6276V11.5392C0.0936 9.7944 0.5208 8.046 1.3344 6.4932C2.3712 4.4844 4.0044 2.7744 5.9544 1.632C7.6692 0.6096 9.6852 0.072 11.6748 0Z" fill="#FF5000"/>
        <path d="M12.03 4.87817C14.5272 9.10217 17.0124 13.367 19.494 17.603C14.496 17.591 9.50401 17.6162 4.50601 17.615C7.01041 13.3694 9.53281 9.12857 12.03 4.87817Z" fill="white"/>
        <path d="M12.0205 10.0452C13.0633 11.7324 14.0833 13.4364 15.1177 15.1296C13.0609 15.1296 11.0041 15.132 8.94727 15.1284C9.95887 13.4268 10.9885 11.7348 12.0205 10.0452Z" fill="#FF5000"/>
    </g>
    <defs>
        <clipPath id="clip0_7107_35587">
            <rect width="24" height="24" fill="white"/>
        </clipPath>
    </defs>
</svg>

