<svg viewBox="0 0 24 24" fill="none" xmlns="http://www.w3.org/2000/svg">
<path d="M0 12C0 5.37258 5.37258 0 12 0V0C18.6274 0 24 5.37258 24 12V12C24 18.6274 18.6274 24 12 24V24C5.37258 24 0 18.6274 0 12V12Z" fill="#0AC18E"/>
<path d="M11.5946 0H12.4127L12.4431 0.00152284L12.4675 0.00304569C13.9791 0.0636548 15.476 0.403858 16.8588 1.01909C19.0599 1.99066 20.9488 3.63898 22.2125 5.68599C23.0409 7.02152 23.6022 8.52152 23.8505 10.0736C23.9336 10.5771 23.9772 11.0851 24 11.5946V12.4075C23.9604 13.4092 23.8087 14.4043 23.5261 15.3664C23.0184 17.1146 22.1028 18.7401 20.8754 20.0839C19.9751 21.0725 18.9104 21.9094 17.7359 22.5487C16.5862 23.1755 15.3332 23.6117 14.0421 23.8313C13.5009 23.9257 12.9542 23.9759 12.4054 24H11.5925C10.5277 23.9586 9.46995 23.7883 8.45208 23.4719C7.29868 23.1161 6.20162 22.5835 5.20721 21.9C3.98132 21.0582 2.9132 19.9861 2.07563 18.7572C1.21157 17.4914 0.592995 16.0593 0.269239 14.5608C0.113604 13.8518 0.0298477 13.1303 0 12.4054V11.5873C0.0191878 11.2063 0.0447716 10.8259 0.0950254 10.4473C0.309746 8.77035 0.886599 7.14305 1.77594 5.70518C3.03137 3.66244 4.90934 2.01442 7.09919 1.03766C8.51299 0.401726 10.0465 0.0563452 11.5946 0Z" fill="#0AC18E"/>
<path fill-rule="evenodd" clip-rule="evenodd" d="M11.8742 5.86558L11.8743 5.86569C11.9362 6.10682 11.998 6.34791 12.0603 6.58875C12.6737 6.48946 13.338 6.4453 13.9514 6.56469C14.4548 6.66245 14.9254 6.88052 15.282 7.25545C15.5363 7.52834 15.7419 7.86733 15.8315 8.23159C15.9649 8.72438 15.9597 9.24337 15.7435 9.7124C15.6143 10.002 15.4151 10.2399 15.1861 10.4555C15.656 10.5134 16.1071 10.7083 16.4939 10.9782C16.9209 11.2721 17.2958 11.6799 17.509 12.1557C17.6921 12.5531 17.7207 13.0325 17.6808 13.4626C17.6159 14.1195 17.2943 14.7226 16.8171 15.173C16.2055 15.7553 15.3828 16.1083 14.5709 16.3048C14.7107 16.8496 14.8515 17.394 14.9924 17.9383L14.9925 17.9386L15.1221 18.4398C14.6909 18.5525 14.2596 18.6646 13.828 18.7748C13.7185 18.3531 13.6108 17.931 13.503 17.5088L13.503 17.5088L13.5029 17.5085C13.4284 17.2167 13.3539 16.925 13.2789 16.6334C12.939 16.7227 12.5976 16.8055 12.2555 16.8865C12.365 17.3083 12.473 17.7305 12.581 18.1527L12.5811 18.1529C12.6566 18.4483 12.7322 18.7438 12.8083 19.0392C12.3768 19.1498 11.9452 19.2618 11.5136 19.3739C11.4119 18.9833 11.3113 18.5924 11.2107 18.2014L11.2106 18.2011L11.2105 18.2006C11.1277 17.8789 11.0448 17.5572 10.9614 17.2355C10.4256 17.3712 9.89013 17.5081 9.35471 17.6451C9.0246 17.7295 8.6945 17.8139 8.36437 17.898C8.34353 17.6638 8.32327 17.4294 8.30301 17.195C8.27678 16.8915 8.25054 16.588 8.22305 16.2847L8.34822 16.2541L8.34838 16.2541C8.56593 16.201 8.7837 16.1479 9.00061 16.0922L9.02453 16.0856C9.12854 16.0572 9.2403 16.0266 9.33107 15.9698C9.44162 15.9 9.51228 15.7855 9.52904 15.6561C9.54646 15.5403 9.51769 15.436 9.48786 15.3278L9.48786 15.3278C9.47962 15.2979 9.47131 15.2677 9.46386 15.237C9.00914 13.4787 8.55472 11.7204 8.1003 9.96215C8.09275 9.93459 8.0859 9.9064 8.07901 9.87805C8.06061 9.80237 8.04195 9.72557 8.00893 9.65667C7.92152 9.48976 7.77015 9.35728 7.58345 9.31616C7.4218 9.27409 7.25552 9.3108 7.09569 9.34609L7.06843 9.3521C6.83487 9.40806 6.60334 9.47276 6.37203 9.5374L6.21624 9.58083C6.1397 9.28984 6.06485 8.99837 5.99002 8.70694C5.94635 8.53687 5.90268 8.36681 5.85868 8.19687C6.15252 8.12046 6.44656 8.04475 6.74061 7.96905C7.31157 7.82205 7.88256 7.67504 8.45208 7.52286L8.40139 7.32655L8.40133 7.32633C8.23639 6.68763 8.07138 6.04867 7.90812 5.40946C8.15076 5.3458 8.39379 5.283 8.63682 5.22021C8.82515 5.17155 9.01347 5.12289 9.20162 5.07382C9.28777 5.4055 9.37267 5.73753 9.45758 6.06957L9.45758 6.06958C9.55129 6.43606 9.64501 6.80256 9.74041 7.16865C9.9514 7.10989 10.1642 7.05985 10.3771 7.00978L10.3772 7.00977C10.5042 6.97991 10.6312 6.95003 10.758 6.91829C10.6662 6.55377 10.5731 6.18973 10.4801 5.82572L10.4801 5.82572L10.48 5.82564C10.3936 5.48773 10.3073 5.14983 10.2219 4.81159L10.5256 4.73233L10.5256 4.73233C10.8551 4.64619 11.1847 4.56003 11.5148 4.47778C11.6366 4.93956 11.7554 5.40265 11.8742 5.86558ZM11.9092 8.25829C12.1572 8.2458 12.3972 8.24915 12.6381 8.31494C12.9076 8.38743 13.1531 8.53301 13.3218 8.75839C13.4135 8.88296 13.4957 9.02458 13.5359 9.17474C13.6048 9.52956 13.5283 9.90996 13.3039 10.1972C13.0751 10.495 12.7249 10.6891 12.3804 10.8231C11.9972 10.9735 11.6155 11.0532 11.2255 11.1346L11.2255 11.1346C11.0991 11.161 10.9717 11.1876 10.8433 11.2169C10.6632 10.5483 10.4844 9.87957 10.3056 9.21079L10.158 8.6588C10.2624 8.62927 10.3653 8.59905 10.4675 8.56905L10.4675 8.56903C10.9418 8.42977 11.3996 8.29538 11.9092 8.25829ZM14.6403 12.3141C14.4271 12.1722 14.1716 12.1034 13.9194 12.0735C13.567 12.0296 13.1957 12.0641 12.8455 12.1174C12.3371 12.1954 11.8557 12.3309 11.3659 12.4688C11.2882 12.4906 11.2103 12.5125 11.132 12.5343C11.2575 13.004 11.3829 13.4738 11.5083 13.9436C11.6337 14.4134 11.7591 14.8831 11.8846 15.3528C12.0283 15.3206 12.1726 15.2905 12.3167 15.2604C12.944 15.1294 13.5698 14.9988 14.1478 14.6964C14.4597 14.5329 14.7579 14.3029 14.9403 13.9965C15.1133 13.7075 15.1721 13.3503 15.1191 13.0192C15.0567 12.7369 14.884 12.4728 14.6403 12.3141Z" fill="white"/>
</svg>
