<svg viewBox="0 0 24 24" fill="none" xmlns="http://www.w3.org/2000/svg">
    <path d="M12 24C18.6274 24 24 18.6274 24 12C24 5.37258 18.6274 0 12 0C5.37258 0 0 5.37258 0 12C0 18.6274 5.37258 24 12 24Z" fill="#F4B731"/>
    <path fill-rule="evenodd" clip-rule="evenodd" d="M7.23741 5.75003H12.2377C15.2791 5.75003 17.5847 7.403 18.4424 9.80796H19.9999V11.2618H18.7704C18.7944 11.4915 18.8068 11.7255 18.8068 11.9633V11.9991C18.8069 12.2627 18.7915 12.5261 18.7607 12.7878H19.9999V14.2416H18.4126C17.5323 16.6132 15.2449 18.2504 12.2377 18.2504H7.23741V14.2411H5.49976V12.7873H7.23741V11.2615H5.49976V9.80769H7.23741V5.74976V5.75003ZM8.63521 14.2413V16.9462H12.2377C14.4606 16.9462 16.1122 15.8629 16.881 14.2413H8.63521ZM17.3091 12.7876H8.63521V11.2618H17.3116C17.3436 11.5018 17.3602 11.7481 17.3602 11.9989V12.0344C17.3603 12.2863 17.3433 12.5378 17.3091 12.7873V12.7876ZM12.2377 7.05183C14.4708 7.05183 16.1273 8.16355 16.8915 9.80796H8.63521V7.05183H12.2377Z" fill="#FFFDFA"/>
</svg>
