<svg viewBox="0 0 24 24" fill="none" xmlns="http://www.w3.org/2000/svg">
<circle cx="12" cy="12" r="12" fill="#01031B"/>
<path d="M3.51148 3.51061C8.1922 -1.1702 15.8094 -1.1702 20.4904 3.51061C25.1711 8.19142 25.1711 15.8087 20.4904 20.4895C15.8094 25.1702 8.1922 25.1702 3.51148 20.4895C-1.17049 15.8098 -1.17049 8.19257 3.51148 3.51061ZM20.2875 20.2877C24.8571 15.7181 24.8571 8.28311 20.2875 3.71349C15.7178 -0.856161 8.28291 -0.856161 3.71319 3.71349C-0.856437 8.28311 -0.856437 15.7181 3.71319 20.2877C8.28291 24.8573 15.7178 24.8573 20.2875 20.2877Z" fill="url(#paint0_linear_3993_33389)"/>
<path d="M4.51897 4.51913C6.82845 2.20968 9.42336 0.854943 12.0227 0.602794C14.9122 0.323136 17.7168 1.45208 20.1351 3.87042C22.5523 6.28762 23.6811 9.09221 23.3992 11.9793C23.1461 14.5753 21.79 17.1679 19.4796 19.4785C17.1689 21.7891 14.5753 23.145 11.9803 23.3984C9.0933 23.6803 6.28975 22.5524 3.87141 20.1341C1.45307 17.7157 0.322982 14.9112 0.60378 12.0217C0.854779 9.42345 2.2095 6.82974 4.51897 4.51913ZM19.2766 19.2768C23.1103 15.443 25.2951 9.43605 19.9322 4.0733C14.5636 -1.29521 8.55456 0.88818 4.7207 4.722C0.88687 8.55584 -1.29651 14.565 4.07197 19.9335C9.43596 25.2952 15.4439 23.1107 19.2766 19.2768Z" fill="url(#paint1_linear_3993_33389)"/>
<path d="M5.52758 5.52777C7.34534 3.70999 9.54019 1.77647 12.041 1.21371C14.636 0.630332 17.1666 1.61716 19.7799 4.23034C22.3918 6.84239 23.3763 9.37191 22.7894 11.9622C22.2246 14.4516 20.2875 16.6487 18.4685 18.4676C16.6485 20.2877 14.4525 22.2235 11.9631 22.7886C9.37275 23.3766 6.84449 22.392 4.23129 19.7788C1.61812 17.1656 0.631278 14.6338 1.21466 12.0401C1.77628 9.54038 3.7098 7.34553 5.52758 5.52777ZM18.2658 18.2659C22.8112 13.7203 24.7735 9.62864 19.5781 4.43321C14.3701 -0.774825 10.2748 1.18506 5.73043 5.72948C1.186 10.2739 -0.775028 14.369 4.43417 19.5771C9.62953 24.7736 13.7214 22.8115 18.2658 18.2659Z" fill="url(#paint2_linear_3993_33389)"/>
<path d="M4.38487 8.63259C4.72183 8.29563 5.07256 7.95752 5.4267 7.61712C6.15565 6.91569 6.91668 6.15465 7.61819 5.42571C9.55851 3.4108 11.39 1.50822 13.734 1.48529C15.4587 1.46925 17.3212 2.48473 19.4267 4.59018C21.5287 6.6922 22.542 8.54892 22.5249 10.267C22.5017 12.5982 20.6049 14.4194 18.5982 16.3472C17.8496 17.0659 17.0692 17.8464 16.3505 18.5948C14.4227 20.6017 12.6004 22.4985 10.2702 22.5215C8.55228 22.5387 6.69434 21.5255 4.59347 19.4234C2.48802 17.318 1.47255 15.4556 1.48858 13.7306C1.50464 11.8017 2.80091 10.2166 4.38487 8.63259ZM6.73788 6.73803C6.36769 7.10823 5.98947 7.47156 5.62385 7.82343C3.65364 9.72028 1.79231 11.5117 1.77167 13.7352C1.75564 15.3787 2.74474 17.1736 4.79289 19.2229C6.83759 21.2676 8.62786 22.2533 10.2645 22.2372C12.4755 22.2154 14.2553 20.361 16.1409 18.3988C16.8617 17.6481 17.6469 16.8641 18.3975 16.1421C20.3608 14.2567 22.214 12.4756 22.236 10.2658C22.2521 8.62801 21.2662 6.83889 19.2217 4.79418C17.1735 2.74604 15.3786 1.75807 13.734 1.77297C11.5103 1.7936 9.71908 3.65493 7.82205 5.62515C7.47251 5.99076 7.10808 6.36783 6.73788 6.73803Z" fill="url(#paint3_linear_3993_33389)"/>
<path d="M11.1596 3.20906C11.8979 2.47095 12.6966 1.94831 13.6652 1.88413C15.1607 1.78441 16.8789 2.75862 19.0703 4.95119C21.2582 7.13917 22.2303 8.85149 22.1281 10.3403C22.0113 12.048 20.4606 13.2251 18.8181 14.4698C18.0125 15.0807 17.1803 15.7122 16.4457 16.4458C15.7109 17.1804 15.0794 18.0125 14.4697 18.8183C13.2239 20.4607 12.0479 22.0114 10.3403 22.1283C8.85142 22.2303 7.13905 21.2584 4.9511 19.0704C2.75854 16.8779 1.78432 15.1609 1.88403 13.6652C1.99865 11.9472 3.55166 10.7621 5.19637 9.50707C5.99293 8.89961 6.81583 8.27155 7.54375 7.54375C8.27146 6.81595 8.89953 5.99302 9.50698 5.19646C10.0549 4.48013 10.589 3.77984 11.1596 3.20906ZM20.6347 12.6005C21.3191 11.9162 21.7832 11.1942 21.8427 10.3208C21.9369 8.93974 20.9636 7.24918 18.8675 5.15291C16.7678 3.05319 15.0714 2.07668 13.6836 2.16952C12.096 2.27611 11.0016 3.70991 9.73397 5.36953C9.12079 6.17297 8.487 7.00391 7.74532 7.74547C7.00382 8.48702 6.17288 9.12084 5.36942 9.73402C3.70868 11.0005 2.27486 12.095 2.16941 13.6836C2.07657 15.0716 3.05193 16.7667 5.1528 18.8676C7.24909 20.9638 8.93961 21.9369 10.3208 21.8429C11.899 21.7352 12.9843 20.3037 14.2415 18.6452C14.8582 17.8326 15.4956 16.9913 16.2439 16.2441C16.9923 15.4956 17.8324 14.8584 18.6451 14.2418C19.3866 13.6802 20.0825 13.1529 20.6347 12.6005Z" fill="url(#paint4_linear_3993_33389)"/>
<path d="M2.98315 12.1729C3.59404 11.562 4.50865 11.0818 5.4565 10.5855C6.55565 10.009 7.69263 9.41188 8.55228 8.55228C9.41192 7.69266 10.0077 6.5557 10.5842 5.45655C11.39 3.9196 12.1521 2.46858 13.4967 2.26343C14.7826 2.06744 16.4412 3.03592 18.7161 5.30984C20.9865 7.58035 21.9518 9.23308 21.7534 10.5122C21.547 11.8485 20.0948 12.6027 18.5567 13.4004C17.4474 13.9758 16.3001 14.5718 15.4358 15.436C14.5716 16.3001 13.9768 17.4474 13.4005 18.5569C12.6027 20.0938 11.8495 21.546 10.5121 21.7535C9.23303 21.9517 7.5804 20.9856 5.3098 18.7162C3.03471 16.4411 2.06738 14.7827 2.26336 13.4967C2.34245 12.9809 2.60376 12.5523 2.98315 12.1729ZM8.75499 8.75513C7.86442 9.64568 6.70809 10.252 5.59059 10.8388C4.05592 11.6434 2.73098 12.3391 2.5476 13.5403C2.36882 14.7127 3.33958 16.3391 5.51379 18.5133C7.68347 20.683 9.30518 21.6503 10.4697 21.4703C11.6628 21.2858 12.3505 19.9598 13.1471 18.4251C13.7328 17.2961 14.3391 16.1282 15.2343 15.2331C16.1294 14.338 17.2971 13.7317 18.4262 13.146C19.9608 12.3494 21.2868 11.6617 21.4714 10.4686C21.6515 9.30413 20.684 7.68235 18.5143 5.51272C16.3402 3.33851 14.7127 2.36772 13.5413 2.54652C12.3402 2.72991 11.6457 4.05483 10.8398 5.58952C10.2519 6.70814 9.64441 7.86459 8.75499 8.75513Z" fill="url(#paint5_linear_3993_33389)"/>
<path d="M3.05076 12.572C3.65248 11.9691 4.75507 11.6356 5.90462 11.286C7.26624 10.8722 8.67482 10.4459 9.55966 9.55992C10.4445 8.67396 10.8719 7.26651 11.2858 5.90491C11.7545 4.35991 12.197 2.90088 13.2983 2.62581C14.3987 2.35073 16.0066 3.31808 18.3597 5.67109C20.7069 8.01838 21.6721 9.62067 21.3947 10.7141C21.1173 11.8098 19.6548 12.2453 18.1075 12.7049C16.7332 13.113 15.3133 13.5359 14.4239 14.4253C13.5344 15.3147 13.1128 16.7347 12.7034 18.1089C12.2428 19.6562 11.8083 21.1187 10.7127 21.3961C9.61921 21.6734 8.01697 20.7084 5.66968 18.3611C3.31667 16.0081 2.34932 14.4001 2.62439 13.2998C2.69659 13.0178 2.84445 12.7783 3.05076 12.572ZM20.7724 11.2276C20.9419 11.0579 21.0623 10.8654 21.1185 10.6442C21.3649 9.67225 20.3963 8.11236 18.1579 5.87397C15.9139 3.62982 14.3483 2.65904 13.3682 2.90431C12.4238 3.14042 12.0044 4.52495 11.5598 5.98856C11.1562 7.31924 10.699 8.82754 9.7626 9.7628C8.82622 10.6992 7.31897 11.1565 5.9883 11.5599C4.52354 12.0046 3.14016 12.4241 2.90405 13.3685C2.65878 14.3473 3.6307 15.9141 5.87368 18.1582C8.11203 20.3966 9.67189 21.364 10.644 21.1187C11.5827 20.8815 11.9941 19.4946 12.4306 18.0276C12.8296 16.6855 13.2823 15.1634 14.2232 14.2236C15.1642 13.2826 16.6851 12.831 18.0285 12.431C19.1481 12.0963 20.2222 11.7777 20.7724 11.2276Z" fill="url(#paint6_linear_3993_33389)"/>
<path d="M12.6622 3.23565C12.7827 3.1153 12.9224 3.02361 13.0853 2.96747C14.0365 2.63509 15.554 3.57951 18.0056 6.03108C20.4503 8.47579 21.3924 9.98753 21.0589 10.9319C20.7288 11.8672 19.2606 12.0242 17.5608 12.2065C16.0181 12.3715 14.2704 12.5583 13.4142 13.4156C12.5568 14.2729 12.3699 16.0208 12.205 17.5623C12.0227 19.2621 11.8658 20.7303 10.9306 21.0604C9.98593 21.3939 8.47439 20.4518 6.02957 18.007C3.578 15.5555 2.63243 14.038 2.96596 13.0867C3.29491 12.1469 4.75853 11.9818 6.4525 11.7916C7.98147 11.6196 9.7145 11.4236 10.5682 10.5698C11.4221 9.71589 11.617 7.98295 11.79 6.45401C11.9471 5.05343 12.088 3.80987 12.6622 3.23565ZM20.5935 11.1394C20.683 11.05 20.7483 10.9503 20.7884 10.8368C21.0727 10.0322 20.0962 8.52737 17.8027 6.23396C15.5025 3.93365 13.9907 2.95371 13.1792 3.23794C12.41 3.50729 12.2462 4.95372 12.0731 6.4861C11.8956 8.06202 11.6949 9.84772 10.77 10.7715C9.84506 11.6964 8.05935 11.897 6.48459 12.0747C4.95336 12.2477 3.50578 12.4105 3.23645 13.1795C2.9522 13.991 3.93214 15.5027 6.23245 17.803C8.52593 20.0964 10.0308 21.073 10.8353 20.7887C11.5999 20.5194 11.7556 19.0672 11.9196 17.5302C12.0891 15.9406 12.2829 14.1389 13.2101 13.2105C14.1385 12.2821 15.9402 12.0895 17.5299 11.9199C18.8387 11.7812 20.0859 11.6471 20.5935 11.1394Z" fill="url(#paint7_linear_3993_33389)"/>
<path d="M12.5992 3.46125C12.6714 3.38906 12.755 3.3306 12.8503 3.28818C13.665 2.92717 15.1459 3.88418 17.6513 6.38963C20.1489 8.88707 21.1024 10.3621 20.7426 11.1702C20.3745 11.9942 18.786 11.9106 16.9465 11.8132C15.1871 11.7192 13.1941 11.6137 12.4043 12.4034C11.6147 13.1931 11.7213 15.1874 11.8152 16.9455C11.9127 18.7851 11.9975 20.3736 11.1722 20.7415C10.3643 21.1014 8.88921 20.149 6.39173 17.6504C3.88628 15.145 2.92927 13.6641 3.2903 12.8493C3.65707 12.0206 5.23988 12.0962 7.07138 12.1845C8.81477 12.2682 10.7917 12.3633 11.5781 11.5759C12.3642 10.7885 12.2703 8.81255 12.1867 7.06929C12.1074 5.44865 12.0387 4.02173 12.5992 3.46125ZM20.3711 11.2114C20.4182 11.1644 20.4549 11.1129 20.4801 11.0544C20.7724 10.3988 19.7522 8.89737 17.4485 6.59365C15.1367 4.28189 13.6284 3.2584 12.9659 3.5518C12.3173 3.83949 12.3951 5.47502 12.4709 7.05669C12.5614 8.94781 12.6553 10.9031 11.7785 11.7799C10.9017 12.6567 8.94648 12.5627 7.05535 12.4722C5.47368 12.3965 3.83816 12.3174 3.55046 12.9661C3.25707 13.6286 4.28055 15.1369 6.59232 17.4487C8.89608 19.7524 10.3975 20.7725 11.0531 20.4802C11.6983 20.1925 11.6102 18.5501 11.5263 16.9604C11.4244 15.0521 11.3202 13.0796 12.1993 12.2005C13.0795 11.3203 15.0519 11.4258 16.9591 11.5278C18.4067 11.6046 19.8978 11.6836 20.3711 11.2114Z" fill="url(#paint8_linear_3993_33389)"/>
<defs>
<linearGradient id="paint0_linear_3993_33389" x1="20.4911" y1="3.51118" x2="3.51199" y2="20.4903" gradientUnits="userSpaceOnUse">
<stop stop-color="#414FA2"/>
<stop offset="1" stop-color="#EE4492"/>
</linearGradient>
<linearGradient id="paint1_linear_3993_33389" x1="20.1324" y1="3.86717" x2="3.86809" y2="20.1315" gradientUnits="userSpaceOnUse">
<stop stop-color="#574EA0"/>
<stop offset="1" stop-color="#D84594"/>
</linearGradient>
<linearGradient id="paint2_linear_3993_33389" x1="19.7737" y1="4.2233" x2="4.22417" y2="19.7728" gradientUnits="userSpaceOnUse">
<stop stop-color="#6C4C9E"/>
<stop offset="1" stop-color="#C34796"/>
</linearGradient>
<linearGradient id="paint3_linear_3993_33389" x1="19.4161" y1="4.58049" x2="4.58142" y2="19.4152" gradientUnits="userSpaceOnUse">
<stop stop-color="#824B9C"/>
<stop offset="1" stop-color="#AD4898"/>
</linearGradient>
<linearGradient id="paint4_linear_3993_33389" x1="19.0616" y1="4.94085" x2="4.94182" y2="19.0607" gradientUnits="userSpaceOnUse">
<stop stop-color="#984A9A"/>
<stop offset="1" stop-color="#984A9A"/>
</linearGradient>
<linearGradient id="paint5_linear_3993_33389" x1="18.7074" y1="5.30142" x2="5.30242" y2="18.7064" gradientUnits="userSpaceOnUse">
<stop stop-color="#AD4898"/>
<stop offset="1" stop-color="#824B9C"/>
</linearGradient>
<linearGradient id="paint6_linear_3993_33389" x1="18.3531" y1="5.66198" x2="5.66279" y2="18.3522" gradientUnits="userSpaceOnUse">
<stop stop-color="#C34796"/>
<stop offset="1" stop-color="#6C4C9E"/>
</linearGradient>
<linearGradient id="paint7_linear_3993_33389" x1="17.9983" y1="6.02229" x2="6.02302" y2="17.9977" gradientUnits="userSpaceOnUse">
<stop stop-color="#D84594"/>
<stop offset="1" stop-color="#574EA0"/>
</linearGradient>
<linearGradient id="paint8_linear_3993_33389" x1="17.6435" y1="6.38214" x2="6.38303" y2="17.6427" gradientUnits="userSpaceOnUse">
<stop stop-color="#EE4492"/>
<stop offset="1" stop-color="#414FA2"/>
</linearGradient>
</defs>
</svg>
