<svg viewBox="0 0 24 24" fill="none" xmlns="http://www.w3.org/2000/svg">
<rect width="24" height="24" rx="12" fill="white"/>
<path fill-rule="evenodd" clip-rule="evenodd" d="M16.2216 7.78431C16.1722 7.73262 16.1464 7.66508 16.1464 7.60023C16.1464 7.53288 16.1722 7.46803 16.2216 7.41615C16.3228 7.31518 16.4864 7.31518 16.5878 7.41615C16.6395 7.46803 16.6656 7.53288 16.6656 7.60023C16.6656 7.66508 16.6395 7.73262 16.5878 7.78431C16.5383 7.83369 16.4709 7.85953 16.4059 7.85953C16.3385 7.85953 16.2709 7.83369 16.2216 7.78431ZM15.4868 8.51812C15.4375 8.46624 15.4116 8.39879 15.4116 8.33404C15.4116 8.26669 15.4375 8.20184 15.4868 8.14996C15.588 8.04889 15.7544 8.04889 15.8555 8.14996C15.9049 8.20184 15.9308 8.26669 15.9308 8.33404C15.9308 8.39879 15.9049 8.46624 15.8555 8.51812C15.8035 8.5675 15.7386 8.59325 15.6711 8.59325C15.6037 8.59325 15.5388 8.5675 15.4868 8.51812ZM14.7521 9.24933C14.7027 9.19995 14.6768 9.1326 14.6768 9.06775C14.6768 9.0005 14.7027 8.93306 14.7521 8.88368C14.8532 8.7827 15.0195 8.7827 15.1208 8.88368C15.1701 8.93306 15.1961 9.0005 15.1961 9.06775C15.1961 9.1326 15.1701 9.19995 15.1208 9.24933C15.0688 9.30121 15.0039 9.32706 14.9364 9.32706C14.8689 9.32706 14.8041 9.30121 14.7521 9.24933ZM14.0173 9.98314C13.9681 9.93376 13.9421 9.86641 13.9421 9.79906C13.9421 9.73422 13.9681 9.66687 14.0173 9.61749C14.1185 9.51651 14.2847 9.51651 14.3859 9.61749C14.4354 9.66687 14.4613 9.73422 14.4613 9.79906C14.4613 9.86641 14.4354 9.93376 14.3859 9.98314C14.334 10.035 14.2691 10.0583 14.2016 10.0583C14.1367 10.0583 14.0692 10.035 14.0173 9.98314ZM13.2851 10.7169C13.2333 10.6676 13.2073 10.6001 13.2073 10.5328C13.2073 10.4679 13.2333 10.4004 13.2851 10.3513C13.384 10.2474 13.5499 10.2474 13.6511 10.3513C13.7031 10.4004 13.7265 10.4679 13.7265 10.5328C13.7265 10.6001 13.7031 10.6676 13.6511 10.7169C13.602 10.7688 13.5343 10.7921 13.4668 10.7921C13.4019 10.7921 13.3344 10.7688 13.2851 10.7169ZM12.4725 11.2666C12.4725 11.2017 12.4986 11.1342 12.5503 11.0825C12.6518 10.9812 12.8152 10.9812 12.9163 11.0825C12.9684 11.1342 12.9918 11.2017 12.9918 11.2666C12.9918 11.3339 12.9684 11.3988 12.9163 11.4507C12.8673 11.4998 12.7998 11.5259 12.732 11.5259C12.6672 11.5259 12.5997 11.4998 12.5503 11.4507C12.4986 11.3988 12.4725 11.3339 12.4725 11.2666ZM11.081 12.9154C11.0316 12.8663 11.0056 12.7987 11.0056 12.7338C11.0056 12.6665 11.0316 12.6017 11.081 12.5497C11.1822 12.4489 11.3482 12.4489 11.4468 12.5497C11.4989 12.6017 11.5249 12.6665 11.5249 12.7338C11.5249 12.7987 11.4989 12.8663 11.4468 12.9154C11.3977 12.9674 11.3302 12.9932 11.2653 12.9932C11.1976 12.9932 11.1327 12.9674 11.081 12.9154ZM10.3463 13.6492C10.2968 13.6001 10.2708 13.5325 10.2708 13.4676C10.2708 13.4003 10.2968 13.3355 10.3463 13.2836C10.4474 13.1826 10.6134 13.1826 10.7149 13.2836C10.7641 13.3355 10.7902 13.4003 10.7902 13.4676C10.7902 13.5325 10.7641 13.6001 10.7149 13.6492C10.663 13.7012 10.5955 13.7269 10.5306 13.7269C10.4631 13.7269 10.3982 13.7012 10.3463 13.6492ZM9.61145 14.3829C9.56201 14.3339 9.53622 14.2663 9.53622 14.2014C9.53622 14.1341 9.56201 14.0667 9.61145 14.0174C9.71266 13.9163 9.8789 13.9163 9.98011 14.0174C10.0294 14.0667 10.0554 14.1341 10.0554 14.2014C10.0554 14.2663 10.0294 14.3339 9.98011 14.3829C9.92816 14.435 9.86322 14.4582 9.79578 14.4582C9.72834 14.4582 9.6634 14.435 9.61145 14.3829ZM8.87925 15.1167C8.8273 15.0674 8.80142 15 8.80142 14.9327C8.80142 14.8678 8.8273 14.8006 8.87925 14.7486C8.98036 14.6501 9.14419 14.6501 9.2453 14.7486C9.29475 14.8006 9.32073 14.8678 9.32073 14.9327C9.32073 15 9.29475 15.0674 9.2453 15.1167C9.19335 15.1686 9.12841 15.192 9.06098 15.192C8.99613 15.192 8.9286 15.1686 8.87925 15.1167ZM8.14444 15.8505C8.09249 15.8012 8.06661 15.7338 8.06661 15.6665C8.06661 15.6016 8.09249 15.5343 8.14444 15.4824C8.24594 15.3838 8.40939 15.3838 8.51059 15.4824C8.56254 15.5343 8.58592 15.6016 8.58592 15.6665C8.58592 15.7338 8.56254 15.8012 8.51059 15.8505C8.46115 15.8999 8.39371 15.9258 8.32627 15.9258C8.26133 15.9258 8.19389 15.8999 8.14444 15.8505ZM7.40964 16.5844C7.35769 16.5325 7.33441 16.4676 7.33441 16.4003C7.33441 16.3328 7.35769 16.2681 7.40964 16.2162C7.51113 16.1149 7.67458 16.1149 7.77579 16.2162C7.82774 16.2681 7.85371 16.3328 7.85371 16.4003C7.85371 16.4676 7.82774 16.5325 7.77579 16.5844C7.72663 16.6334 7.6589 16.6596 7.59396 16.6596C7.52653 16.6596 7.45909 16.6334 7.40964 16.5844ZM7.77839 7.78431C7.72913 7.83369 7.6615 7.85953 7.59406 7.85953C7.52912 7.85953 7.46168 7.83369 7.41224 7.78431C7.36048 7.73262 7.33441 7.66508 7.33441 7.60023C7.33441 7.53288 7.36048 7.46803 7.41224 7.41615C7.51363 7.31518 7.67718 7.31518 7.77839 7.41615C7.82784 7.46803 7.85362 7.53288 7.85362 7.60023C7.85362 7.66508 7.82784 7.73262 7.77839 7.78431ZM8.51319 8.51812C8.46124 8.5675 8.3963 8.59325 8.32886 8.59325C8.26143 8.59325 8.19649 8.5675 8.14454 8.51812C8.09509 8.46624 8.06921 8.39879 8.06921 8.33404C8.06921 8.26669 8.09509 8.20184 8.14454 8.14996C8.24565 8.04889 8.41198 8.04889 8.51319 8.14996C8.56254 8.20184 8.58842 8.26669 8.58842 8.33404C8.58842 8.39879 8.56254 8.46624 8.51319 8.51812ZM9.2479 9.24933C9.19595 9.30121 9.13111 9.32706 9.06357 9.32706C8.99613 9.32706 8.9312 9.30121 8.87925 9.24933C8.82989 9.19995 8.80392 9.1326 8.80392 9.06775C8.80392 9.0005 8.82989 8.93306 8.87925 8.88368C8.98045 8.7827 9.14679 8.7827 9.2479 8.88368C9.29735 8.93306 9.32323 9.0005 9.32323 9.06775C9.32323 9.1326 9.29735 9.19995 9.2479 9.24933ZM9.9827 9.98314C9.93075 10.035 9.86332 10.0583 9.79838 10.0583C9.73094 10.0583 9.666 10.035 9.61405 9.98314C9.5646 9.93376 9.53872 9.86641 9.53872 9.79906C9.53872 9.73422 9.5646 9.66687 9.61405 9.61749C9.71526 9.51651 9.8815 9.51651 9.9827 9.61749C10.0319 9.66687 10.0579 9.73422 10.0579 9.79906C10.0579 9.86641 10.0319 9.93376 9.9827 9.98314ZM10.7149 10.7169C10.6656 10.7688 10.5981 10.7921 10.5332 10.7921C10.4657 10.7921 10.398 10.7688 10.3489 10.7169C10.2969 10.6676 10.2735 10.6001 10.2735 10.5328C10.2735 10.4679 10.2969 10.4004 10.3489 10.3513C10.4501 10.2474 10.616 10.2474 10.7149 10.3513C10.7667 10.4004 10.7927 10.4679 10.7927 10.5328C10.7927 10.6001 10.7667 10.6676 10.7149 10.7169ZM11.5275 11.2666C11.5275 11.3339 11.5014 11.3988 11.4497 11.4507C11.4003 11.4998 11.3328 11.5259 11.268 11.5259C11.2002 11.5259 11.1327 11.4998 11.0837 11.4507C11.0316 11.3988 11.0082 11.3339 11.0082 11.2666C11.0082 11.2017 11.0316 11.1342 11.0837 11.0825C11.1848 10.9812 11.3482 10.9812 11.4497 11.0825C11.5014 11.1342 11.5275 11.2017 11.5275 11.2666ZM12.919 12.9154C12.8673 12.9674 12.8024 12.9932 12.7347 12.9932C12.6698 12.9932 12.6023 12.9674 12.5532 12.9154C12.5011 12.8663 12.4751 12.7987 12.4751 12.7338C12.4751 12.6665 12.5011 12.6017 12.5532 12.5497C12.6518 12.4489 12.8178 12.4489 12.919 12.5497C12.9684 12.6017 12.9944 12.6665 12.9944 12.7338C12.9944 12.7987 12.9684 12.8663 12.919 12.9154ZM13.6537 13.6492C13.6018 13.7012 13.5369 13.7269 13.4694 13.7269C13.4045 13.7269 13.337 13.7012 13.2851 13.6492C13.2359 13.6001 13.2098 13.5325 13.2098 13.4676C13.2098 13.4003 13.2359 13.3355 13.2851 13.2836C13.3866 13.1826 13.5526 13.1826 13.6537 13.2836C13.7032 13.3355 13.7292 13.4003 13.7292 13.4676C13.7292 13.5325 13.7032 13.6001 13.6537 13.6492ZM14.3885 14.3829C14.3366 14.435 14.2717 14.4582 14.2042 14.4582C14.1368 14.4582 14.0718 14.435 14.0199 14.3829C13.9706 14.3339 13.9446 14.2663 13.9446 14.2014C13.9446 14.1341 13.9706 14.0667 14.0199 14.0174C14.1211 13.9163 14.2873 13.9163 14.3885 14.0174C14.438 14.0667 14.4638 14.1341 14.4638 14.2014C14.4638 14.2663 14.438 14.3339 14.3885 14.3829ZM15.1208 15.1167C15.0714 15.1686 15.0039 15.192 14.939 15.192C14.8716 15.192 14.8066 15.1686 14.7547 15.1167C14.7052 15.0674 14.6793 15 14.6793 14.9327C14.6793 14.8678 14.7052 14.8006 14.7547 14.7486C14.8558 14.6501 15.0196 14.6501 15.1208 14.7486C15.1727 14.8006 15.1986 14.8678 15.1986 14.9327C15.1986 15 15.1727 15.0674 15.1208 15.1167ZM15.8556 15.8505C15.8061 15.8999 15.7387 15.9258 15.6737 15.9258C15.6063 15.9258 15.5389 15.8999 15.4894 15.8505C15.4375 15.8012 15.4141 15.7338 15.4141 15.6665C15.4141 15.6016 15.4375 15.5343 15.4894 15.4824C15.5906 15.3838 15.7541 15.3838 15.8556 15.4824C15.9075 15.5343 15.9334 15.6016 15.9334 15.6665C15.9334 15.7338 15.9075 15.8012 15.8556 15.8505ZM16.5904 16.5844C16.5409 16.6334 16.4735 16.6596 16.406 16.6596C16.3411 16.6596 16.2734 16.6334 16.2242 16.5844C16.1723 16.5325 16.1463 16.4676 16.1463 16.4003C16.1463 16.3328 16.1723 16.2681 16.2242 16.2162C16.3254 16.1149 16.4889 16.1149 16.5904 16.2162C16.6423 16.2681 16.6656 16.3328 16.6656 16.4003C16.6656 16.4676 16.6423 16.5325 16.5904 16.5844ZM11.8158 12.1845C11.7638 12.1326 11.7404 12.0677 11.7404 12.0004C11.7404 11.9328 11.7638 11.8679 11.8158 11.8163C11.917 11.715 12.0804 11.715 12.1816 11.8163C12.2336 11.8679 12.257 11.9328 12.257 12.0004C12.257 12.0677 12.2336 12.1326 12.1816 12.1845C12.1325 12.2336 12.065 12.2597 12.0001 12.2597C11.9324 12.2597 11.8649 12.2336 11.8158 12.1845ZM9.52491 7.98281L7.94803 6.40807C9.16654 5.47108 10.5131 5.00153 11.9878 5C13.4548 4.9986 14.8022 5.46944 16.0302 6.41077L14.4508 7.98798C13.6966 7.49848 12.8752 7.25345 11.9865 7.25532C11.0861 7.2572 10.2658 7.5006 9.52491 7.98281ZM7.97053 14.4595L6.39494 16.0329C5.4642 14.8146 4.99859 13.4696 5 11.9973C5.00153 10.5114 5.46502 9.16646 6.39036 7.96238L7.96536 9.53525C7.47157 10.2819 7.22244 11.1019 7.22068 11.9963C7.21903 12.8791 7.46981 13.6999 7.97053 14.4595ZM14.4636 16.0247L16.0341 17.5931C14.8304 18.5192 13.4897 18.9882 12.0121 18.9998C10.5195 19.0116 9.16359 18.5431 7.94379 17.5961L9.51221 16.0298C10.2676 16.5427 11.0977 16.7971 12.0029 16.791C12.894 16.7849 13.7138 16.5286 14.4636 16.0247ZM16.0163 9.53445L17.5942 7.95877C18.5425 9.17692 19.0116 10.531 18.9998 12.0216C18.9882 13.4914 18.5176 14.8295 17.5893 16.0363L16.0133 14.4623C16.4996 13.7244 16.749 12.9175 16.7595 12.0409C16.7703 11.1323 16.5219 10.2969 16.0163 9.53445ZM17.666 16.5323C18.2712 16.5323 18.7619 17.0224 18.7619 17.6267C18.7619 18.231 18.2712 18.7211 17.666 18.7211C17.0608 18.7211 16.5702 18.231 16.5702 17.6267C16.5702 17.0224 17.0608 16.5323 17.666 16.5323ZM6.33402 16.5324C6.93917 16.5324 7.42991 17.0224 7.42991 17.6267C7.42991 18.2311 6.93917 18.7211 6.33402 18.7211C5.72876 18.7211 5.23814 18.2311 5.23814 17.6267C5.23814 17.0224 5.72876 16.5324 6.33402 16.5324ZM17.666 5.22393C18.2711 5.22393 18.7619 5.71389 18.7619 6.31833C18.7619 6.92278 18.2711 7.41274 17.666 7.41274C17.0608 7.41274 16.5701 6.92278 16.5701 6.31833C16.5701 5.71389 17.0608 5.22393 17.666 5.22393ZM6.33402 5.22393C6.93929 5.22393 7.42991 5.71389 7.42991 6.31833C7.42991 6.92266 6.93929 7.41274 6.33402 7.41274C5.72876 7.41274 5.23814 6.92266 5.23814 6.31833C5.23814 5.71389 5.72876 5.22393 6.33402 5.22393Z" fill="#18151C"/>
</svg>
