<svg viewBox="0 0 24 24" fill="none" xmlns="http://www.w3.org/2000/svg">
<path d="M0 12C0 5.37258 5.37258 0 12 0C18.6274 0 24 5.37258 24 12C24 18.6274 18.6274 24 12 24C5.37258 24 0 18.6274 0 12Z" fill="#328332"/>
<g clip-path="url(#clip0_1632_20940)">
<path d="M7.00049 12.0086L12.0317 9.32373L16.9981 11.9891L12.036 14.6764L7.00049 12.0086Z" fill="#009F42"/>
<path d="M7.00037 12.0089L12.0316 9.32397L16.9979 11.9894L12.0359 14.6766L7.00037 12.0089Z" fill="white"/>
<path d="M12.0316 9.32373L16.998 11.9891L12.0359 14.6764L12.0316 9.32373Z" fill="#ADCDAD"/>
<path d="M12.0316 12.4205L16.998 11.9893L12.0359 14.6765L12.0316 12.4205H12.0316Z" fill="#5B9C5B"/>
<path d="M12.0317 12.4206L7.00049 12.0088L12.0274 14.6765L12.0317 12.4206H12.0317Z" fill="#AECEAE"/>
<path d="M7 12.7224C8.76236 13.6572 10.5987 14.637 12.0205 15.3946L17 12.7232C15.1971 15.4023 13.6953 17.6307 12.0205 20.0973C10.3436 17.6359 8.49071 14.919 7 12.7224Z" fill="#009F42"/>
<path d="M7 12.7224C8.76236 13.6572 10.5987 14.637 12.0205 15.3946L17 12.7232C15.1971 15.4023 13.6953 17.6307 12.0205 20.0973C10.3436 17.6359 8.49071 14.919 7 12.7224Z" fill="white"/>
<path d="M12.0205 15.3945L17 12.7231C15.1971 15.4022 12.0205 20.0973 12.0205 20.0973L12.0205 15.3945Z" fill="#009F42"/>
<path d="M12.0205 15.3945L17 12.7231C15.1971 15.4022 13.6953 17.6307 12.0205 20.0973L12.0205 15.3945Z" fill="#ADCDAD"/>
<path d="M12.0196 8.57706L7.00061 11.2199L11.9978 3.90259L16.9981 11.2359L12.0196 8.57706Z" fill="white"/>
<path d="M12.0196 8.57706L11.9978 3.90259L16.9982 11.2359L12.0196 8.57706Z" fill="#ADCDAD"/>
</g>
<defs>
<clipPath id="clip0_1632_20940">
<rect width="10" height="16.1949" fill="white" transform="translate(7 3.90259)"/>
</clipPath>
</defs>
</svg>
