<svg viewBox="0 0 24 24" fill="none" xmlns="http://www.w3.org/2000/svg">
    <g clip-path="url(#clip0_7267_35585)">
        <path d="M11.6748 0H12.4596L12.5616 0.006C14.5788 0.126 16.5516 0.696 18.2712 1.7688C20.4012 3.0768 22.1196 5.0724 23.0832 7.38C23.6076 8.6544 23.8908 10.0008 24 11.3724V12.4608C23.8908 14.5128 23.3232 16.5228 22.2312 18.2712C21.5148 19.4616 20.5416 20.5104 19.4724 21.3924C17.4336 23.0208 14.9304 23.9136 12.3252 24H11.5428C9.4884 23.8908 7.4784 23.3232 5.7288 22.2312C3.9276 21.126 2.4192 19.5264 1.4172 17.6652C0.5652 16.104 0.1428 14.394 0 12.6276V11.5392C0.0936 9.7944 0.5208 8.046 1.3344 6.4932C2.3712 4.4844 4.0044 2.7744 5.9544 1.632C7.6692 0.6096 9.6852 0.072 11.6748 0Z" fill="#F2C75C"/>
        <path fill-rule="evenodd" clip-rule="evenodd" d="M15.5389 13.4023H18.635V13.409C19.0013 13.3964 19.3484 13.2433 19.603 12.9819C19.8577 12.7203 20 12.3711 20 12.0075C20 11.6439 19.8577 11.2946 19.603 11.033C19.3484 10.7716 19.0013 10.6184 18.635 10.606H13.5088C13.3192 10.6125 13.1302 10.581 12.9531 10.5134C12.776 10.446 12.6144 10.3438 12.478 10.213C12.3415 10.0822 12.233 9.92543 12.1589 9.75229C12.0848 9.57895 12.0466 9.3928 12.0466 9.20449C12.0466 9.01638 12.0848 8.83004 12.1589 8.6567C12.233 8.48355 12.3415 8.32676 12.478 8.19596C12.6144 8.06517 12.776 7.96314 12.9531 7.89557C13.1302 7.82801 13.3192 7.79649 13.5088 7.80299H15.3651C15.7314 7.79058 16.0784 7.63734 16.3331 7.37595C16.5877 7.11456 16.7301 6.76512 16.7301 6.4015C16.7301 6.03807 16.5877 5.68863 16.3331 5.42724C16.0784 5.16566 15.7314 5.01261 15.3651 5H8.53955C8.17329 5.01261 7.82621 5.16566 7.57157 5.42724C7.31692 5.68863 7.17458 6.03807 7.17458 6.4015C7.17458 6.76512 7.31692 7.11456 7.57157 7.37595C7.82621 7.63734 8.17329 7.79058 8.53955 7.80299C8.86807 7.80299 9.18318 7.93241 9.41562 8.16268C9.6481 8.39294 9.77891 8.70535 9.77935 9.03135V9.19701C9.78023 9.38197 9.74427 9.56516 9.67352 9.73613C9.60277 9.90711 9.49862 10.0625 9.36711 10.1935C9.23557 10.3245 9.07926 10.4283 8.90711 10.499C8.73498 10.5699 8.55045 10.6062 8.36411 10.606H5.26796C4.92013 10.6416 4.59798 10.8041 4.3638 11.0618C4.12962 11.3192 4 11.6539 4 12.0008C4 12.3477 4.12962 12.6823 4.3638 12.94C4.59798 13.1976 4.92013 13.3599 5.26796 13.3956H10.3942C10.5838 13.3893 10.7728 13.4206 10.9499 13.4882C11.127 13.5557 11.2886 13.658 11.425 13.7888C11.5615 13.9194 11.67 14.0761 11.7441 14.2495C11.8182 14.4226 11.8564 14.609 11.8564 14.7971C11.8564 14.9854 11.8182 15.1717 11.7441 15.3449C11.67 15.5182 11.5615 15.6748 11.425 15.8056C11.2886 15.9364 11.127 16.0386 10.9499 16.1062C10.7728 16.1736 10.5838 16.2051 10.3942 16.1986H8.53787C8.16342 16.1986 7.80431 16.3461 7.53953 16.6089C7.27474 16.8715 7.12599 17.2278 7.12599 17.5993C7.12599 17.9708 7.27474 18.3269 7.53953 18.5897C7.80431 18.8523 8.16342 19 8.53787 19H15.3634C15.7379 19 16.097 18.8523 16.3618 18.5897C16.6266 18.3269 16.7753 17.9708 16.7753 17.5993C16.7753 17.2278 16.6266 16.8715 16.3618 16.6089C16.097 16.3461 15.7379 16.1986 15.3634 16.1986C15.0346 16.1986 14.7193 16.069 14.4868 15.8383C14.2543 15.6076 14.1237 15.2948 14.1237 14.9687V14.803C14.1237 14.6188 14.1603 14.4364 14.2314 14.2662C14.3026 14.096 14.4069 13.9414 14.5383 13.8114C14.6698 13.6812 14.8259 13.5782 14.9975 13.5081C15.1692 13.4377 15.3532 13.4019 15.5389 13.4023Z" fill="#FFE1A4"/>
    </g>
    <defs>
        <clipPath id="clip0_7267_35585">
            <rect width="24" height="24" fill="white"/>
        </clipPath>
    </defs>
</svg>
