<?xml version="1.0" encoding="UTF-8"?><svg id="Layer_1" xmlns="http://www.w3.org/2000/svg" xmlns:xlink="http://www.w3.org/1999/xlink" viewBox="0 0 1069.96 1069.96"><defs><style>.cls-1{fill:url(#linear-gradient);}</style><linearGradient id="linear-gradient" x1="534.98" y1="304.84" x2="534.98" y2="781.87" gradientUnits="userSpaceOnUse"><stop offset="0" stop-color="#efc981"/><stop offset=".03" stop-color="#e8be6f"/><stop offset=".09" stop-color="#d7a343"/><stop offset=".14" stop-color="#c58511"/><stop offset=".25" stop-color="#e5c06c"/><stop offset=".29" stop-color="#f2d78f"/><stop offset=".41" stop-color="#f8f0e4"/><stop offset=".73" stop-color="#c58511"/><stop offset=".9" stop-color="#e4b76c"/><stop offset=".95" stop-color="#eec687"/></linearGradient></defs><circle cx="534.98" cy="534.98" r="534.98"/><path class="cls-1" d="m787.39,344.22h-39.56v31.88h39.56c87.61,0,158.88,71.27,158.88,158.88s-71.27,158.88-158.88,158.88c-16.12,0-32.01-2.4-47.24-7.14-16.26-5.05-32.18-13.05-46.08-23.15-.02-.02-2.58-1.86-5.26-3.99l-.07-.06-130.06-118.42,122.4-111.44v127.54h31.88v-199.69l-177.97,162.03-177.97-162.03v199.69h31.88v-127.54l122.4,111.44-130.09,118.44c-2.39,1.9-4.66,3.56-5.33,4.05-13.88,10.08-29.81,18.08-46.07,23.13-15.23,4.74-31.12,7.14-47.24,7.14-87.61,0-158.88-71.27-158.88-158.88s71.27-158.88,158.88-158.88h39.56v-31.88h-39.56c-105.19,0-190.76,85.58-190.76,190.76s85.58,190.76,190.76,190.76c19.33,0,38.41-2.89,56.71-8.58,19.54-6.08,38.67-15.68,55.32-27.77.83-.6,3.79-2.77,6.92-5.27l.38-.3,133.08-121.16,132.59,120.71.91.78c3.45,2.76,6.74,5.14,6.87,5.23,16.66,12.1,35.79,21.71,55.33,27.78,18.3,5.69,37.38,8.58,56.71,8.58,105.19,0,190.76-85.58,190.76-190.76s-85.58-190.76-190.76-190.76Z"/></svg>