<?xml version="1.0" encoding="UTF-8"?>
<svg id="Layer_1" data-name="Layer 1" xmlns="http://www.w3.org/2000/svg" xmlns:xlink="http://www.w3.org/1999/xlink" viewBox="0 0 202 202">
  <defs>
    <style>
      .cls-1 {
        fill: url(#linear-gradient);
      }

      .cls-2 {
        fill: #fff;
      }
    </style>
    <linearGradient id="linear-gradient" x1="101" y1="199" x2="101" y2="7" gradientTransform="translate(0 204) scale(1 -1)" gradientUnits="userSpaceOnUse">
      <stop offset="0" stop-color="#45ffb4"/>
      <stop offset="1" stop-color="#25ba7e"/>
    </linearGradient>
  </defs>
  <circle class="cls-1" cx="101" cy="101" r="96"/>
  <path class="cls-2" d="m61.05,103.18l78.04-13.11v6.45l-78.04,13.11v-6.45Zm68.67,34.86h-10.93l-39.75-61.7h-.42c.07,1.25.14,2.64.21,4.16.14,1.53.24,3.19.31,4.99.07,1.73.14,3.54.21,5.41.07,1.87.1,3.75.1,5.62v41.52h-8.64V63.74h10.82l39.64,61.49h.42c-.07-.83-.14-1.98-.21-3.43-.07-1.53-.14-3.19-.21-4.99-.07-1.87-.14-3.78-.21-5.72-.07-1.94-.1-3.75-.1-5.41v-41.93h8.74v74.29Z"/>
</svg>