<svg viewBox="0 0 24 24" fill="none" xmlns="http://www.w3.org/2000/svg">
<circle cx="12" cy="12" r="12" fill="white"/>
<circle cx="12" cy="12" r="11.5" stroke="#191326" stroke-opacity="0.05"/>
<path d="M16.0335 5C14.3763 5 13.0243 6.35193 12.9807 8.00913V11.3671C12.6755 11.3671 12.3702 11.4107 12.0213 11.4107C11.6724 11.4107 11.3671 11.4107 11.0619 11.4544V8.00913C11.0619 6.35193 9.66634 5 7.96551 5.04361C6.35193 5.04361 5.04361 6.39554 5 8.00913V16.0335C5.04361 17.6907 6.39554 19.0426 8.09635 18.999C9.75353 18.9554 11.0619 17.647 11.0619 16.0335V12.6755C11.3671 12.6755 11.6724 12.6319 12.0213 12.6319C12.3702 12.6319 12.6755 12.6319 12.9807 12.5882V15.9898C13.0243 17.647 14.3763 18.999 16.0771 18.9554C17.7343 18.9117 19.0426 17.6034 19.0426 15.9898V8.00913C19.0426 6.35193 17.6907 5 16.0335 5ZM8.05274 6.2211C9.05578 6.2211 9.84076 7.00609 9.84076 8.00913V11.5416C8.96856 11.6724 8.09635 11.9341 7.26775 12.283C6.91886 12.4574 6.56998 12.6319 6.2647 12.8935V8.00913C6.2647 7.04969 7.04969 6.2211 8.05274 6.2211ZM9.84076 16.0335C9.84076 17.0365 9.05578 17.8215 8.05274 17.8215C7.04969 17.8215 6.2647 17.0365 6.2647 16.0335V15.2485C6.2647 14.5507 6.83164 13.8529 7.79107 13.4605C8.44523 13.1552 9.143 12.9807 9.88438 12.8499L9.84076 16.0335ZM16.0335 17.8215C15.0304 17.8215 14.2454 17.0365 14.2454 16.0335V12.501C15.1177 12.3702 15.9898 12.1085 16.8184 11.7596C17.1673 11.5852 17.5162 11.4107 17.8215 11.1491V16.0335C17.8215 17.0365 16.9929 17.8215 16.0335 17.8215ZM16.2951 10.6258C15.641 10.931 14.9432 11.1055 14.2018 11.2363V8.00913C14.2018 7.00609 14.9868 6.2211 15.9898 6.2211C16.9929 6.2211 17.7779 7.00609 17.7779 8.00913V8.79411C17.8215 9.53549 17.2546 10.1897 16.2951 10.6258Z" fill="url(#paint0_linear_13008_72520)"/>
<defs>
<linearGradient id="paint0_linear_13008_72520" x1="12.0213" y1="5" x2="2.33955" y2="14.6817" gradientUnits="userSpaceOnUse">
<stop stop-color="#00E8A2"/>
<stop offset="1" stop-color="#00ADE8"/>
</linearGradient>
</defs>
</svg>
