<svg viewBox="0 0 24 24" fill="none" xmlns="http://www.w3.org/2000/svg">
    <path d="M12 0C18.6273 0 24 5.37269 24 12C24 18.6273 18.6273 24 12 24C5.37269 24 0 18.6273 0 12C0 5.37269 5.37269 0 12 0Z" fill="url(#paint0_linear)"/>
    <path d="M11.1693 12.0105C11.1302 12.0105 11.0911 12.0073 11.0526 12.0009L11.5389 10.9603L11.9472 10.0171L12.2291 9.25852C12.3006 9.03811 12.3362 8.86624 12.3362 8.74321C12.3362 8.62018 12.3168 8.51949 12.2779 8.44169C12.2391 8.35756 12.1935 8.29576 12.1417 8.25687C12.0922 8.21266 12.0318 8.18247 11.9668 8.16942C11.9019 8.14983 11.8468 8.14018 11.8013 8.14018C11.6327 8.14018 11.4415 8.23728 11.2277 8.43204C11.0203 8.6199 10.7966 8.87287 10.5566 9.19038L9.82747 10.2891L9.08843 11.5631L6.21974 16.8141C6.14746 16.9529 6.09198 17.0997 6.0545 17.2516C6.0156 17.4072 5.99602 17.5595 5.99602 17.7087C5.99689 17.82 6.00994 17.9308 6.03491 18.0392C6.06719 18.1559 6.11905 18.2629 6.1905 18.36C6.26195 18.4571 6.36236 18.5382 6.49202 18.6031C6.62167 18.6679 6.79022 18.7002 6.99767 18.7002C7.25036 18.7002 7.48402 18.6094 7.69781 18.4279C7.9116 18.2464 8.11271 18.0097 8.30085 17.7181C8.48871 17.4199 8.66057 17.0861 8.81616 16.7165L9.26333 15.5788L9.66195 14.4701L10.0217 13.5269C10.2291 14.2011 10.4655 14.8428 10.7315 15.4525C10.9971 16.0555 11.2923 16.5838 11.6164 17.0376C11.9406 17.4913 12.3003 17.8511 12.6956 18.117C13.0909 18.3829 13.5224 18.5156 13.9891 18.5156C14.5596 18.5156 15.1624 18.373 15.7977 18.0878C16.4396 17.7959 17.0942 17.3358 17.7621 16.7068C17.9888 16.4927 18.1477 16.2886 18.2385 16.0941C18.3356 15.8933 18.3844 15.7181 18.3844 15.5691C18.3844 15.4136 18.3389 15.2902 18.2482 15.1998C18.2053 15.1557 18.1539 15.1208 18.097 15.0974C18.0402 15.0739 17.9792 15.0624 17.9177 15.0635C17.7102 15.0635 17.5058 15.1769 17.305 15.4039C17.0905 15.6896 16.8349 15.9419 16.5464 16.1526C16.3 16.3405 15.9922 16.5123 15.6228 16.6679C15.2534 16.8235 14.8319 16.9013 14.3585 16.9013H14.2225C14.1737 16.9011 14.125 16.8978 14.0766 16.8916C13.8173 16.8723 13.5709 16.7424 13.3375 16.5027C13.1042 16.2629 12.8901 15.9744 12.6956 15.6373C12.5077 15.2936 12.3455 14.9338 12.2095 14.5578C12.0799 14.1755 11.9858 13.8318 11.9276 13.5269C12.3425 13.4558 12.7704 13.3391 13.2112 13.1769C13.6584 13.0149 14.0928 12.8171 14.5141 12.5838C14.9319 12.3528 15.3289 12.0859 15.7006 11.7862C16.0766 11.4817 16.4037 11.1509 16.6826 10.7945C16.9556 10.4413 17.1782 10.0518 17.3439 9.63728C17.5122 9.2235 17.598 8.78081 17.5966 8.33411C17.5966 7.6599 17.4573 7.07011 17.1786 6.56445C16.9122 6.06544 16.5325 5.63583 16.0699 5.31011C15.6032 4.973 15.0653 4.72004 14.4559 4.55176C13.8528 4.38321 13.2208 4.29907 12.5596 4.29907C11.8854 4.29907 11.2468 4.37025 10.644 4.51287C10.041 4.64914 9.48347 4.83369 8.97147 5.06707C8.46581 5.29383 8.00871 5.55976 7.60043 5.86431C7.19188 6.16252 6.84512 6.47369 6.55988 6.79783C6.28098 7.12197 6.06388 7.44611 5.90829 7.77024C5.75933 8.09438 5.68457 8.3959 5.68457 8.67452C5.68457 8.97273 5.76567 9.20611 5.9276 9.37466C6.08953 9.53659 6.33285 9.61769 6.65698 9.61769C6.89698 9.61769 7.09781 9.56252 7.26002 9.45245C7.42223 9.34238 7.56788 9.19976 7.69754 9.02459C7.83381 8.84969 7.96319 8.64859 8.0865 8.42183L8.49505 7.72169C8.65064 7.48169 8.83216 7.24859 9.0396 7.02155C9.2534 6.79452 9.51271 6.59369 9.81753 6.41852C10.1287 6.24362 10.4951 6.101 10.9166 5.99066C11.3444 5.88031 11.8531 5.82542 12.4432 5.82542C12.9682 5.82542 13.4189 5.88693 13.7949 6.01024C14.1773 6.13328 14.4884 6.2988 14.7284 6.50624C14.9748 6.71369 15.153 6.95673 15.2631 7.23562C15.3797 7.51452 15.4382 7.80942 15.4382 8.12059C15.4382 8.55507 15.3279 9.00224 15.1075 9.46238C14.8937 9.9228 14.5988 10.3407 14.2228 10.7167C13.8468 11.0927 13.4059 11.4039 12.9003 11.6502C12.401 11.89 11.8694 12.01 11.3055 12.01H11.1693V12.0105Z" fill="white"/>
    <defs>
        <linearGradient id="paint0_linear" x1="41.5691" y1="24" x2="41.5691" y2="0" gradientUnits="userSpaceOnUse">
            <stop stop-color="#9E00F6"/>
            <stop offset="1" stop-color="#EB627B"/>
        </linearGradient>
    </defs>
</svg>
