<svg viewBox="0 0 24 24" fill="none" xmlns="http://www.w3.org/2000/svg">
    <path d="M12 24C18.6273 24 24 18.6273 24 12C24 5.37269 18.6273 0 12 0C5.37269 0 0 5.37269 0 12C0 18.6273 5.37269 24 12 24Z" fill="url(#paint0_linear)"/>
    <path fill-rule="evenodd" clip-rule="evenodd" d="M3.75262 12.355C3.76504 11.3575 4.01773 10.6174 4.56256 9.97239C4.68256 9.82728 4.82766 9.69487 4.96008 9.55997L5.64752 8.84246L6.55511 7.9448L7.13497 7.3597L7.76256 6.73984L8.35511 6.1448L9.51263 4.97984C10.0398 4.45253 10.7295 4.11864 11.4701 4.03225C12.135 3.94728 12.775 4.03225 13.3775 4.30977C13.6326 4.43225 13.8599 4.60218 14.0776 4.7597C14.2224 4.86977 14.2125 4.89459 14.1024 5.0397C14.0776 5.07722 14.0426 5.09984 14.0175 5.13735L12.5926 6.56991L11.9399 7.20246L11.205 7.95749L10.6475 8.50259L9.76752 9.42756L9.07759 10.1076L8.34242 10.8725L7.67759 11.5401L7.01249 12.2576L6.69994 12.5727L6.04752 13.2676L5.41994 13.91L4.9849 14.36L4.91263 14.4325C4.76752 14.555 4.68256 14.555 4.57249 14.3975C4.40504 14.1776 4.23483 13.9476 4.11511 13.6924C3.88504 13.2298 3.72752 12.7324 3.75262 12.3547V12.355ZM20.215 12.6825C20.1176 13.5324 19.7424 14.1175 19.645 14.275C19.5375 14.4325 19.3926 14.6025 19.09 14.9299L18.3424 15.7076L17.5799 16.4499L16.9176 17.1175L15.4199 18.6251L14.3576 19.67C13.85 20.12 13.2575 20.4 12.5799 20.4725C11.9049 20.5451 11.2401 20.4849 10.6252 20.1925C10.37 20.07 10.1424 19.8998 9.91263 19.7426C9.77994 19.6449 9.77994 19.5724 9.88752 19.4499L10.4677 18.8673L10.805 18.5274L11.53 17.8223C11.5551 17.7972 11.5775 17.7873 11.5901 17.7622L12.2677 17.0698L12.9077 16.4372L13.1976 16.1448L13.33 15.9997L14.2001 15.1247L14.8751 14.4571L15.8175 13.5095C16.0826 13.2295 16.215 12.8769 16.2652 12.4996C16.325 12.0496 16.1926 11.6372 15.9501 11.262C15.8175 11.0546 15.6475 11.0295 15.4677 11.2121L14.2351 12.4146L12.9201 13.6921L11.9526 14.6146L10.7926 15.7696L10.2026 16.3396L9.36752 17.1545C9.21249 17.2996 9.01745 17.3845 8.82518 17.4469C8.54766 17.5318 8.27014 17.5194 7.99263 17.4692C7.70242 17.4218 7.45994 17.2742 7.24256 17.0692L6.21497 16.0491C6.07263 15.9015 6.08256 15.8891 6.21497 15.7567L9.94766 12.0276L10.8175 11.1649L11.5424 10.4601L12.2175 9.7677L13.6801 8.32025L14.4525 7.5677L14.525 7.49515C14.815 7.14259 15.2026 6.99777 15.6475 6.98508C16.1551 6.95997 16.5675 7.14259 16.9176 7.50756L19.005 9.6099C19.4776 10.0825 19.5626 10.1798 19.7176 10.4223C20.1424 11.0673 20.2252 11.6623 20.25 11.8198C20.215 11.9299 20.2624 12.2574 20.215 12.6825Z" fill="white"/>
    <defs>
        <linearGradient id="paint0_linear" x1="0" y1="0" x2="24" y2="24" gradientUnits="userSpaceOnUse">
            <stop offset="0.245" stop-color="#F16154"/>
            <stop offset="0.693" stop-color="#ED8533"/>
        </linearGradient>
    </defs>
</svg>
