<svg viewBox="0 0 24 24" fill="none" xmlns="http://www.w3.org/2000/svg">
<circle cx="12" cy="12" r="12" fill="#EB533D"/>
<circle cx="11.9999" cy="11.9999" r="10.3447" fill="white"/>
<path d="M11.492 3.99927L4.94043 8.01369V15.9305L11.492 20.001V11.2066L7.46296 8.74189V12.1775L8.96946 13.1484V11.5613L9.96796 12.1775V17.1629L7.27026 15.5197L8.96946 14.4181L7.51551 13.4658L6.44694 14.138L6.46446 8.94728L10.0177 6.84508V9.09184L11.492 9.97423V3.99927Z" fill="#EB533D"/>
<path d="M12.508 3.99927L19.0596 8.01369V15.9305L12.508 20.001V11.2066L16.537 8.74189V12.1775L15.0305 13.1484V11.5613L14.032 12.1775V17.1629L16.7297 15.5197L15.0305 14.4181L16.4845 13.4658L17.5531 14.138L17.5355 8.94728L13.9823 6.84508V9.09184L12.508 9.97423V3.99927Z" fill="#EB533D"/>
</svg>
