<svg viewBox="0 0 24 24" fill="none" xmlns="http://www.w3.org/2000/svg">
<g clip-path="url(#clip0_13211_72924)">
<circle cx="12" cy="12" r="12" fill="white"/>
<g style="mix-blend-mode:multiply" opacity="0.2">
<g style="mix-blend-mode:multiply" opacity="0.2">
<path fill-rule="evenodd" clip-rule="evenodd" d="M12 23.2174C18.1952 23.2174 23.2174 18.1952 23.2174 12C23.2174 5.80478 18.1952 0.782621 12 0.782621C5.80483 0.782621 0.782622 5.80478 0.782622 12C0.782622 18.1952 5.80483 23.2174 12 23.2174ZM12 24C18.6275 24 24 18.6274 24 12C24 5.3726 18.6275 0 12 0C5.3726 0 0 5.3726 0 12C0 18.6274 5.3726 24 12 24Z" fill="#191326"/>
</g>
</g>
<path d="M3.11426 13.7035C3.6321 15.9577 4.80233 17.6127 5.32272 18.1585L7.07425 19.3389L8.90194 19.9481H11.415L14.4231 19.3389L17.355 17.5112L19.4112 15.1504L20.6677 12.2566C20.6931 11.7362 20.7286 10.4974 20.6677 9.70545C20.6068 8.91345 19.5254 6.9893 18.9923 6.12622L16.0604 11.6093L3.11426 13.7035Z" fill="white"/>
<path fill-rule="evenodd" clip-rule="evenodd" d="M9.0286 19.4978C13.701 19.9842 18.6972 16.8977 20.1878 12.6039C20.6103 11.3871 20.7055 10.2037 20.5191 9.12158C21.1117 10.4805 21.1799 12.104 20.5925 13.7964C19.1592 17.9266 14.367 20.901 9.88903 20.4398C7.84771 20.2296 6.22436 19.3416 5.19751 18.0464C6.20699 18.8212 7.50665 19.3394 9.0286 19.4978Z" fill="url(#paint0_linear_13211_72924)"/>
<path fill-rule="evenodd" clip-rule="evenodd" d="M14.1111 3.46264C18.5892 3.92385 21.0572 7.64576 19.6239 11.776C18.1905 15.9062 13.3985 18.8805 8.92043 18.4194C4.44241 17.9582 1.97418 14.2362 3.40751 10.1061C4.84084 5.97595 9.63296 3.00165 14.1111 3.46264Z" fill="url(#paint1_linear_13211_72924)"/>
<path opacity="0.4" fill-rule="evenodd" clip-rule="evenodd" d="M13.9892 3.9947C18.1003 4.41806 20.3665 7.83515 19.0506 11.627C17.7346 15.4189 13.3351 18.1497 9.22383 17.7264C5.11259 17.3031 2.84655 13.8858 4.16246 10.0939C5.47836 6.302 9.87798 3.5713 13.9892 3.9947Z" stroke="white" stroke-width="2.51733"/>
<path fill-rule="evenodd" clip-rule="evenodd" d="M15.1439 8.96761L14.5582 13.237L13.0633 13.4747L13.6334 9.31856L11.1612 12.6622L9.51242 9.96635L8.94128 14.1299L7.4461 14.3677L8.03177 10.0983L6.76465 10.2998L7.01817 8.68051L8.28552 8.47903L9.78051 8.24135L10.4873 8.12902L11.5713 9.90127L13.2008 7.69757L13.9025 7.58603L14.0071 7.56937L14.167 7.54395L15.3975 7.34831L16.8309 7.12036L16.5774 8.73974L15.1439 8.96761Z" fill="white"/>
</g>
<defs>
<linearGradient id="paint0_linear_13211_72924" x1="7.41567" y1="9.12154" x2="18.7806" y2="20.4864" gradientUnits="userSpaceOnUse">
<stop stop-color="#BC46FF"/>
<stop offset="0.077" stop-color="#BC46FF"/>
<stop offset="0.498" stop-color="#4E5CFF"/>
<stop offset="0.9" stop-color="#15AFF6"/>
<stop offset="1" stop-color="#15AFF6"/>
</linearGradient>
<linearGradient id="paint1_linear_13211_72924" x1="7.68151" y1="3.4161" x2="15.3502" y2="18.4667" gradientUnits="userSpaceOnUse">
<stop stop-color="#C844FF"/>
<stop offset="0.082" stop-color="#C844FF"/>
<stop offset="0.563" stop-color="#495FFF"/>
<stop offset="1" stop-color="#00D9FF"/>
</linearGradient>
<clipPath id="clip0_13211_72924">
<rect width="24" height="24" fill="white"/>
</clipPath>
</defs>
</svg>
