<svg viewBox="0 0 24 24" fill="none" xmlns="http://www.w3.org/2000/svg">
<path d="M23.5 12C23.5 18.3513 18.3513 23.5 12 23.5C5.64873 23.5 0.5 18.3513 0.5 12C0.5 5.64873 5.64873 0.5 12 0.5C18.3513 0.5 23.5 5.64873 23.5 12Z" fill="white" stroke="#0887CC"/>
<path fill-rule="evenodd" clip-rule="evenodd" d="M8.66092 7.93042H15.3914C15.6295 7.93042 15.8674 7.96535 16.1161 8.08128C16.4142 8.22022 16.5722 8.43922 16.683 8.60118C16.6916 8.61378 16.6996 8.62676 16.7071 8.64005C16.8373 8.87182 16.9044 9.12206 16.9044 9.39129C16.9044 9.64702 16.8435 9.92568 16.7071 10.1685C16.7058 10.1709 16.7045 10.1732 16.7031 10.1755L12.4509 17.4798C12.3572 17.6409 12.1846 17.7398 11.9982 17.7391C11.8118 17.7384 11.6399 17.6384 11.5473 17.4766L7.37319 10.1879C7.37199 10.1859 7.37079 10.1839 7.36959 10.1819C7.27406 10.0245 7.12633 9.78108 7.10049 9.46693C7.07675 9.17803 7.14168 8.88862 7.28683 8.63761C7.43199 8.38659 7.65052 8.18593 7.91336 8.06311C8.19519 7.93145 8.48079 7.93042 8.66092 7.93042ZM11.4783 8.97386H8.66092C8.47582 8.97386 8.40476 8.98526 8.35509 9.00849C8.28639 9.04059 8.22871 9.09331 8.19013 9.15999C8.15156 9.22672 8.13412 9.30403 8.14046 9.38143C8.14411 9.42579 8.16219 9.47653 8.26886 9.65246C8.27109 9.65615 8.27328 9.65988 8.27542 9.66365L11.4783 15.2565V8.97386ZM12.5218 8.97386V15.2841L15.7989 9.65473C15.8358 9.58753 15.8609 9.49046 15.8609 9.39129C15.8609 9.31081 15.8442 9.24095 15.807 9.16895C15.7678 9.11268 15.744 9.08289 15.7241 9.06249C15.707 9.04505 15.6938 9.03571 15.6752 9.02705C15.5977 8.99092 15.5184 8.97386 15.3914 8.97386H12.5218Z" fill="#303759"/>
</svg>
