<svg width="24" height="24" viewBox="0 0 24 24" fill="none" xmlns="http://www.w3.org/2000/svg">
<circle cx="12.0001" cy="12.0001" r="11.5001" stroke="#4EA8DE"/>
<path d="M10.8325 14.4222V14.361C10.8393 13.7115 10.9073 13.1947 11.0365 12.8104C11.1657 12.4262 11.3494 12.1151 11.5874 11.8771C11.8254 11.639 12.111 11.4197 12.4442 11.2191C12.6449 11.0967 12.8251 10.9522 12.9849 10.7856C13.1447 10.6156 13.2705 10.42 13.3623 10.199C13.4575 9.97802 13.5051 9.7332 13.5051 9.46458C13.5051 9.13135 13.4269 8.84233 13.2705 8.59751C13.1141 8.35269 12.905 8.16398 12.6432 8.03137C12.3813 7.89875 12.0906 7.83245 11.771 7.83245C11.4922 7.83245 11.2235 7.89025 10.9651 8.00586C10.7067 8.12147 10.4908 8.30339 10.3174 8.55161C10.144 8.79982 10.0437 9.12455 10.0165 9.52578H8.73116C8.75836 8.94774 8.90797 8.453 9.17999 8.04157C9.45541 7.63013 9.81754 7.31561 10.2664 7.09799C10.7186 6.88038 11.2201 6.77157 11.771 6.77157C12.3694 6.77157 12.8897 6.89058 13.3317 7.1286C13.7771 7.36661 14.1206 7.69304 14.362 8.10787C14.6068 8.5227 14.7292 8.99534 14.7292 9.52578C14.7292 9.89981 14.6714 10.2381 14.5558 10.5408C14.4436 10.8434 14.2804 11.1137 14.0662 11.3517C13.8554 11.5897 13.6003 11.8006 13.3011 11.9842C13.0019 12.1712 12.7622 12.3684 12.582 12.5758C12.4017 12.7798 12.2708 13.023 12.1892 13.3052C12.1076 13.5874 12.0634 13.9393 12.0566 14.361V14.4222H10.8325ZM11.4854 17.4416C11.2337 17.4416 11.0178 17.3515 10.8376 17.1713C10.6574 16.9911 10.5673 16.7751 10.5673 16.5235C10.5673 16.2719 10.6574 16.056 10.8376 15.8758C11.0178 15.6956 11.2337 15.6054 11.4854 15.6054C11.737 15.6054 11.9529 15.6956 12.1331 15.8758C12.3133 16.056 12.4034 16.2719 12.4034 16.5235C12.4034 16.6901 12.3609 16.8431 12.2759 16.9826C12.1943 17.122 12.0838 17.2342 11.9444 17.3192C11.8084 17.4008 11.6554 17.4416 11.4854 17.4416Z" fill="#4EA8DE"/>
</svg>
