<svg viewBox="0 0 24 24" fill="none" xmlns="http://www.w3.org/2000/svg">
    <g clip-path="url(#clip0_7531_35926)">
        <path d="M24.0056 11.9999C24.0056 18.6312 18.6313 24.0056 11.9999 24.0056C5.36855 24.0056 -0.00582886 18.6312 -0.00582886 11.9999C-0.00582886 5.36851 5.36855 -0.00585938 11.9999 -0.00585938C18.6313 -0.00585938 24.0056 5.36851 24.0056 11.9999Z" fill="black"/>
        <path d="M8.8676 5.85534C11.1783 4.67567 13.9556 4.89328 16.0544 6.41941L15.8855 6.50531L14.7602 7.07796C13.0108 6.10158 10.8776 6.12449 9.15106 7.13523C7.42451 8.14883 6.36223 9.9985 6.35937 11.9999C6.35937 12.2462 6.37655 12.4924 6.40804 12.7387L15.8884 7.90831L17.8526 6.90903L20.1546 5.73508V7.14382L17.8325 8.32635L16.7101 8.89901L6.71441 13.9928L6.15894 14.2762L5.59487 14.5654L3.85114 15.4559V14.0472L4.44383 13.7437C4.89623 13.5146 5.16252 13.0364 5.12529 12.5296C5.11098 12.355 5.10525 12.1803 5.10525 12.0057C5.10525 9.41153 6.5598 7.03787 8.87046 5.8582L8.8676 5.85534Z" fill="white"/>
        <path d="M20.1546 8.55273V9.9586L19.5619 10.2621C19.1124 10.4912 18.8433 10.9693 18.8805 11.4761C18.8948 11.6508 18.9005 11.8283 18.9005 12.0058C18.9005 14.6 17.4431 16.9736 15.1324 18.1504C12.8218 19.3273 10.0444 19.1096 7.94848 17.5864L9.16823 16.965L9.23695 16.9278C10.9864 17.9071 13.1224 17.887 14.8518 16.8763C16.5813 15.8627 17.6464 14.0101 17.6464 12.0058C17.6464 11.7567 17.6292 11.5105 17.5977 11.2643L8.10596 16.1003L6.14175 17.0996L3.8454 18.2678V16.8591L6.15606 15.6823L7.27847 15.1096L20.1518 8.5556L20.1546 8.55273Z" fill="white"/>
    </g>
    <defs>
        <clipPath id="clip0_7531_35926">
            <rect width="24" height="24" fill="white"/>
        </clipPath>
    </defs>
</svg>

