<svg viewBox="0 0 24 24" fill="none" xmlns="http://www.w3.org/2000/svg">
    <path d="M12 24C18.6275 24 24 18.6274 24 12C24 5.37255 18.6275 0 12 0C5.3726 0 0 5.37255 0 12C0 18.6274 5.3726 24 12 24Z" fill="white"/>
    <path d="M17.8333 11.0661L15.452 12.14L9.14852 15.3618L15.452 18.3969V13.4007L17.8333 12.3268V19.7042L15.452 20.7781L6.16016 16.3424V13.961L12.6038 10.8326L6.16016 7.75092V5.36959L8.5882 4.29565L17.8333 8.73147V11.0661Z" fill="#49C1BF"/>
    <path d="M6.16016 5.32295L15.452 9.75872L17.8333 8.68484L8.5882 4.24902L6.16016 5.32295Z" fill="#077A8F"/>
    <path d="M15.4529 9.7751L17.8342 8.70117V11.0825L15.4529 12.1564V9.7751Z" fill="#298E97"/>
    <path d="M6.16016 5.34912V7.73045L12.6038 10.8122L6.16016 13.9406V16.3219L15.452 20.7577V18.3763L9.14852 15.3414L15.452 12.1196V9.78494L6.16016 5.34912Z" fill="#49C1BF"/>
    <path d="M15.4529 20.7263L17.8342 19.6523V12.2749L15.4529 13.3488V20.7263Z" fill="#298E97"/>
    <g style="mix-blend-mode:multiply" opacity="0.2">
        <g style="mix-blend-mode:multiply" opacity="0.2">
            <path fill-rule="evenodd" clip-rule="evenodd" d="M12 23.2174C18.1952 23.2174 23.2174 18.1952 23.2174 12C23.2174 5.80478 18.1952 0.782621 12 0.782621C5.80483 0.782621 0.782622 5.80478 0.782622 12C0.782622 18.1952 5.80483 23.2174 12 23.2174ZM12 24C18.6275 24 24 18.6274 24 12C24 5.3726 18.6275 0 12 0C5.3726 0 0 5.3726 0 12C0 18.6274 5.3726 24 12 24Z" fill="#191326"/>
        </g>
    </g>
</svg>
