<?xml version="1.0" encoding="UTF-8"?>
<svg id="Layer_1" data-name="Layer 1" xmlns="http://www.w3.org/2000/svg" viewBox="0 0 200 200">
  <defs>
    <style>
      .cls-1 {
        fill: #fcfdfd;
      }

      .cls-2 {
        fill: #96bcda;
      }

      .cls-3 {
        fill: #28a0ef;
      }

      .cls-4 {
        fill: #2c374c;
      }
    </style>
  </defs>
  <circle class="cls-4" cx="100.07" cy="100" r="97.75"/>
  <g>
    <path class="cls-2" d="m36.18,133.52c-.31-1.15-.17-2.33-.17-3.49,0-19.25.04-38.51-.02-57.76-.02-5.44,2.72-9.07,7.13-11.67,3.84-2.27,7.76-4.4,11.65-6.58,4.52-2.53,9-5.12,13.43-7.79,3.77-2.27,7.57-4.51,11.35-6.73,3.49-2.06,6.94-4.27,10.65-5.98,2.08-.97,3.73-2.68,6.07-3.27,4.5-1.15,8.53-.42,12.45,2.08,3.77,2.41,7.76,4.48,11.65,6.72,2.79,1.61,5.53,3.29,8.33,4.89,6.29,3.59,12.67,7.02,18.86,10.76,4.1,2.48,8.45,4.53,12.42,7.24,1.77,1.21,2.77,2.94,3.82,4.65,1.28,2.07,1.48,4.4,1.47,6.82-.05,19.81,0,39.62-.05,59.44-.01,3.99-1.82,7.46-5.03,9.62-4.36,2.92-9.12,5.25-13.69,7.86-3.01,1.72-5.99,3.47-8.98,5.22-4.8,2.8-9.58,5.64-14.4,8.42-6.02,3.48-11.95,7.13-18.13,10.29-2.83,1.44-6.14,1.36-9.19-.17-2.28-1.14-4.54-2.34-6.78-3.54-1.9-1.02-3.76-2.21-5.63-3.33-3.32-1.99-6.67-3.91-10.01-5.87-.38-.22-.72-.49-1.09-.74.83-1.42,1.65-2.84,2.49-4.26.77-1.29,1.39-2.68,2.52-3.72.35,1.73,2.07,1.86,3.2,2.53,5.84,3.47,11.8,6.73,17.66,10.17,1.71,1,3.33.76,4.8-.05,4.19-2.31,8.25-4.85,12.42-7.2,1.94-1.1,3.99-2.01,5.73-3.45,2.57-1.39,5.15-2.76,7.71-4.16,3.75-2.05,7.21-4.59,11.09-6.42,1.49-.95,2.99-1.9,4.48-2.85,3.53-1.95,7.12-3.81,10.5-6.03.77-.5,1.2-1.31,1.22-2.27.06-4.05.12-8.11.18-12.16-.02-4.02-.07-8.03-.07-12.05,0-11.94-.03-23.88.02-35.82,0-2.01-.88-3.34-2.51-4.27-3.02-1.73-6.1-3.38-9.11-5.12-5.02-2.91-9.99-5.89-15-8.81-5.03-2.93-10.13-5.75-15.14-8.72-3.64-2.16-7.49-3.97-11-6.36-2.71-1.84-5.14-.49-7.51.9-4.12,2.4-8.24,4.8-12.36,7.2-4.45,2.59-8.88,5.2-13.35,7.75-3.51,2-7.08,3.89-10.57,5.91-3.63,2.1-7.08,4.54-10.83,6.38-3.2,1.57-4.06,3.83-4.02,7.17.17,14.5.15,29.01.21,43.51,0,.5.09.99.14,1.49-.11.25-.19.52-.33.76-1.62,2.97-3.9,5.51-5.56,8.47-.87,1.56-1.5,3.35-3.1,4.42Z"/>
    <path class="cls-1" d="m77.29,152.6c-1.13,1.04-1.75,2.43-2.52,3.72-.84,1.41-1.66,2.84-2.49,4.26-2.24-.68-4.01-2.21-6.05-3.27-2.87-1.48-5.55-3.32-8.38-4.9-2.38-1.32-2.56-1.59-1.1-3.8,3.88-5.86,7.36-11.96,10.97-17.98,2.9-4.82,6.08-9.47,8.84-14.37,2.34-4.16,4.83-8.24,7.33-12.29,3.07-4.95,5.93-10.03,9.17-14.89,1.69-2.54,3.19-5.21,4.69-7.87,1.63-2.89,3.71-5.5,5.07-8.55.25-.55.77-.35,1.17-.35,6.64-.04,13.28-.06,19.92-.08,0,.22.02.44.02.66-2.23,3.7-4.38,7.45-6.54,11.18-2.74,4.73-5.7,9.35-8.35,14.14-2.81,5.08-5.87,10.01-8.8,15.01-2.36,4.03-4.79,8.05-7.26,12.03-1.78,2.86-3.52,5.81-5.1,8.83-1.52,2.9-3.46,5.58-4.99,8.48-1.24,2.36-2.98,4.42-4.02,6.89-.41.99-1.36,1.7-1.55,2.82-.07.09-.08.18-.03.29l-.03.03Z"/>
    <path class="cls-1" d="m36.18,133.52c1.6-1.07,2.22-2.86,3.1-4.42,1.66-2.96,3.93-5.5,5.56-8.47.13-.24.22-.5.33-.76,2.21-2.58,3.71-5.62,5.49-8.47,1.56-2.5,3.34-4.84,4.83-7.39,1.24-2.12,2.73-4.09,4.06-6.16,1.92-2.98,3.8-5.99,5.7-8.99,1.93-3.04,3.77-6.13,5.81-9.09,3-4.36,7.17-6.56,12.49-7.35,3.1-.46,6.15-.37,9.21-.56.33-.02.68-.04,1,.01.98.14,2.39,0,2.82.56.61.82-.75,1.52-1.2,2.29-2.85,4.81-5.74,9.59-8.69,14.34-1.36,2.2-2.92,4.27-4.28,6.47-1.75,2.82-3.3,5.76-5.08,8.55-1.87,2.92-3.52,5.97-5.63,8.77-1.52,2.01-2.73,4.32-4.06,6.5-2.72,4.48-5.31,9.03-8.19,13.4-3.12,4.75-6.08,9.59-9,14.46-.48.8-.94.58-1.43.26-3.86-2.52-7.88-4.77-11.95-6.92-.68-.36-1.03-.88-1.03-1.53,0-1.84-.21-3.68.14-5.51Z"/>
    <path class="cls-3" d="m156.27,120.71c-.06,4.05-.11,8.11-.18,12.16-.02.96-.45,1.77-1.22,2.27-3.38,2.22-6.97,4.07-10.5,6.03-1.29-3.32-3.5-6.11-5.31-9.11-4.03-6.67-8.32-13.18-12.3-19.89-2.93-4.95-6-9.82-9.04-14.7-.57-.92-.52-1.71.03-2.6,1.49-2.44,2.94-4.91,4.39-7.38,1.55-2.65,3.09-5.3,4.62-7.96.56-.96,1.01-1.23,1.75-.07,4.88,7.69,9.81,15.35,14.73,23.01,3.59,5.59,7.16,11.19,10.81,16.74.48.72.87,1.92,2.22,1.51Z"/>
    <path class="cls-3" d="m139.89,144.02c-3.87,1.83-7.34,4.37-11.09,6.42-2.56,1.4-5.14,2.77-7.71,4.16-1.9-2.04-3.14-4.52-4.63-6.84-2.47-3.86-4.94-7.72-7.5-11.53-2.65-3.94-5.05-8.05-7.58-12.07-.4-.64-.17-1.13.17-1.69,2.83-4.68,5.39-9.52,8.37-14.12.87-1.34,1.5-2.84,2.29-4.23.74-1.29,1.19-1.28,1.96-.04,2.55,4.1,5.28,8.08,7.8,12.18,2.04,3.32,3.97,6.74,6.13,9.98,2.88,4.33,5.47,8.85,8.47,13.09,1.1,1.56,1.63,3.54,3.31,4.69Z"/>
    <path class="cls-2" d="m123.96,72.9c0-.22-.02-.44-.02-.66.12.07.33.11.35.2.07.24-.1.38-.33.46Z"/>
    <path class="cls-2" d="m77.33,152.57c-.05-.1-.04-.2.03-.29.08.06.17.11.25.17-.09.04-.19.08-.28.11Z"/>
  </g>
</svg>