<?xml version="1.0" encoding="UTF-8"?>
<svg id="Layer_1" data-name="Layer 1" xmlns="http://www.w3.org/2000/svg" viewBox="0 0 200 200">
  <defs>
    <style>
      .cls-1 {
        fill: #fff;
      }

      .cls-2 {
        fill: #e84142;
      }
    </style>
  </defs>
  <circle class="cls-2" cx="100" cy="100" r="97.75"/>
  <g>
    <path class="cls-1" d="m64.93,136.32c-6.59,0-11.05-.02-15.51.02-.87,0-1.72-.11-2.56-.28-2.36-.46-4.16-3.53-3.09-5.99.97-2.24,2.25-4.3,3.44-6.42,1.79-3.19,3.59-6.37,5.4-9.55,1.92-3.39,3.86-6.76,5.78-10.15,1.67-2.95,3.33-5.91,5.01-8.86,1.76-3.1,3.54-6.18,5.29-9.29,1.82-3.23,3.62-6.48,5.44-9.72,1.44-2.54,2.91-5.07,4.35-7.61,1.13-1.98,2.22-3.99,3.35-5.97,1.45-2.56,2.93-5.11,4.39-7.66,1.11-1.95,2.14-3.94,3.31-5.85,2.18-3.58,4.07-7.33,6.34-10.86,1.45-2.26,4.14-2.55,5.98-1.71.91.41,1.5,1.17,2.02,1.98,1.84,2.82,3.42,5.8,5.1,8.72,3.02,5.25,6,10.53,9.02,15.78,2.09,3.64,2.71,7.47,1.53,11.52-.6,2.06-1.74,3.88-2.78,5.73-3.15,5.58-6.3,11.15-9.47,16.72-1.14,2.01-2.34,3.99-3.48,6.01-1.2,2.12-2.35,4.27-3.56,6.38-.55.97-1.21,1.89-1.72,2.87-.42.82-.86,1.64-1.33,2.42-.51.85-.94,1.75-1.47,2.59-.48.76-.93,1.55-1.33,2.37-.41.85-.94,1.63-1.43,2.44-.23.38-.38.79-.62,1.17-.58.93-1.14,1.88-1.67,2.84-.83,1.53-1.65,3.07-2.67,4.48-2.51,3.49-5.92,5.5-10.23,5.79-4.99.34-9.99.03-12.84.1Z"/>
    <path class="cls-1" d="m133.51,136.36c-5.91,0-11.83.03-17.74-.02-1.46-.01-2.93-.22-4.01-1.43-.87-.97-1.35-2.11-1.35-3.41,0-.84.4-1.59.77-2.34,1.46-2.97,3.26-5.75,4.89-8.63,1.23-2.17,2.48-4.33,3.73-6.48,1.36-2.34,2.75-4.67,4.12-7,1.25-2.14,2.45-4.29,3.71-6.42.82-1.38,1.62-2.77,2.7-3.97,1-1.11,3.18-1.47,4.84-.85,1.05.39,1.76,1.17,2.35,2.06,1.83,2.72,3.38,5.6,5.05,8.41,1.9,3.2,3.76,6.42,5.63,9.64,2.41,4.15,4.82,8.3,7.23,12.45.39.67.71,1.38.94,2.12.69,2.21-.76,4.85-2.99,5.5-1.51.44-3.07.35-4.61.36-5.09.02-10.18,0-15.27,0h0Z"/>
  </g>
</svg>