<?xml version="1.0" encoding="UTF-8"?>
<svg id="Layer_1" data-name="Layer 1" xmlns="http://www.w3.org/2000/svg" viewBox="0 0 200 200">
  <defs>
    <style>
      .cls-1 {
        fill: #fff;
      }

      .cls-2 {
        fill: #f0b90b;
      }
    </style>
  </defs>
  <circle class="cls-2" cx="100" cy="100" r="96.75"/>
  <g>
    <path class="cls-1" d="m75.8,74.99c.66-.18,1.09-.74,1.69-1.01.06-.04.13-.07.19-.11.07-.02.14-.05.21-.07.11-.02.21-.05.32-.07.25-.06.41.12.59.23,3.97,2.35,7.94,4.7,11.91,7.06,2.76,1.64,5.52,3.29,8.28,4.95.36.21.71.4,1.14.28.07-.04.14-.08.2-.12.24-.14.49-.29.73-.43.07-.04.14-.09.21-.13.24-.15.49-.29.73-.44.07-.04.14-.08.21-.12.07-.02.14-.05.2-.07l.18-.14c.12-.08.25-.16.37-.24.06-.04.13-.07.19-.11.07-.03.14-.05.21-.08.06-.05.11-.09.17-.14.24-.14.48-.28.72-.42.07-.05.15-.09.22-.14.24-.14.49-.29.73-.43.07-.04.14-.08.21-.13.25-.15.5-.3.75-.45.06-.04.13-.07.19-.11.07-.02.14-.05.21-.07.06-.05.12-.09.17-.14.24-.14.48-.28.72-.42.07-.05.15-.09.22-.14.24-.14.49-.29.73-.43.07-.04.14-.09.21-.13.25-.15.49-.29.74-.44.07-.04.14-.08.2-.12.07-.02.14-.05.2-.07.06-.05.12-.09.18-.14.12-.08.25-.16.37-.24.06-.03.12-.07.19-.1.07-.03.14-.05.21-.08.06-.05.11-.09.17-.14.24-.14.48-.28.73-.43.07-.05.15-.09.22-.14.24-.14.49-.29.73-.43.07-.04.14-.08.21-.13.25-.15.5-.3.75-.45.06-.04.13-.07.19-.11.07-.03.14-.05.21-.08.06-.05.12-.09.17-.14.24-.14.48-.28.72-.42.07-.05.15-.09.22-.14.24-.14.49-.29.73-.43.07-.04.14-.09.21-.13.25-.15.5-.3.75-.45.06-.04.13-.07.19-.11.07-.02.14-.05.2-.07.06-.05.12-.09.18-.14,1.28-.73,2.56-1.45,3.82-2.2.37-.22.65-.22,1.02,0,3.86,2.29,7.74,4.57,11.62,6.83.41.24.53.52.53.98,0,4.43.02,8.87.04,13.3,0,.75-.29,1.24-.97,1.63-6.65,3.87-13.28,7.79-19.93,11.66-.66.38-.87.81-.87,1.55.03,7.86,0,15.72.04,23.58,0,.77-.27,1.17-.91,1.53-3.67,2.12-7.33,4.26-10.98,6.43-.55.33-.96.36-1.53.02-3.67-2.19-7.36-4.35-11.06-6.48-.62-.36-.86-.73-.85-1.47.03-7.89,0-15.78.04-23.68,0-.72-.2-1.12-.83-1.48-3.79-2.18-7.54-4.4-11.31-6.61-.48-.28-.98-.53-1.46-.8-.06-.05-.11-.09-.17-.14-.38-.21-.77-.42-1.15-.63-.07-.04-.14-.08-.21-.13-.25-.14-.49-.29-.74-.43-.07-.05-.14-.09-.21-.14-.24-.14-.48-.28-.73-.42-.06-.05-.12-.09-.17-.14-.38-.21-.77-.42-1.15-.63-.07-.04-.14-.09-.21-.13-.24-.14-.49-.29-.73-.43-.07-.05-.15-.09-.22-.14-.24-.14-.48-.28-.72-.42-.06-.05-.12-.09-.18-.14-.07-.02-.14-.05-.2-.07-.07-.04-.14-.08-.2-.12-.25-.14-.49-.29-.74-.43-.07-.04-.13-.08-.2-.12-.28-.15-.23-.42-.23-.67,0-4.65,0-9.3-.01-13.96,0-.39.1-.65.46-.83.32-.17.61-.4.92-.6.06-.04.13-.07.19-.11.07-.02.14-.05.2-.07l.18-.14c.24-.14.48-.28.72-.42.07-.05.15-.09.22-.14.24-.14.48-.28.73-.43.07-.04.14-.09.22-.13.24-.14.49-.29.73-.43.07-.04.14-.08.21-.12.07-.02.13-.05.2-.07.06-.05.12-.09.18-.14.12-.08.25-.16.37-.24.06-.04.13-.07.19-.11.07-.03.14-.05.21-.08.06-.05.11-.09.17-.14.3-.08.55-.24.78-.44.05-.04.11-.08.16-.12.56-.34,1.13-.67,1.69-1.01l.19-.11c.07-.03.14-.05.21-.08.06-.05.12-.09.17-.14.24-.14.48-.28.72-.42.07-.05.15-.09.22-.14Z"/>
    <path class="cls-1" d="m72.23,151.18c-.73-.34-1.33-.91-2.09-1.19-.06-.04-.11-.09-.17-.13-1.33-.78-2.67-1.55-4-2.32-1.23-.71-2.44-1.48-3.67-2.21-1.32-.78-2.69-1.48-3.99-2.29-1.07-.67-2.21-1.23-3.27-1.91-1.21-.77-2.46-1.48-3.7-2.2-1.33-.78-2.63-1.62-4.01-2.32-1.14-.59-2.21-1.33-3.31-1.99-.19-.11-.27-.23-.27-.44,0-.19,0-.38,0-.57,0-12.86,0-25.72,0-38.58,0-.28.02-.56.04-.85.12,0,.24-.01.35-.02,3.23,1.9,6.46,3.8,9.69,5.7.56.33,1.11.71,1.7.98.71.32.88.81.88,1.56-.01,6.54.02,13.08.04,19.62,0,1.32.05,2.64,0,3.96-.03.69.22,1.07.8,1.41,6.65,3.88,13.28,7.79,19.91,11.7.19.11.37.24.57.33.37.17.46.44.46.83-.01,4.53,0,9.05-.01,13.58,0,.7-.15.76-.77.39-.59-.36-1.15-.76-1.8-1.02-.06-.04-.11-.09-.17-.13-1.04-.55-1.96-1.29-3.04-1.75-.06-.05-.11-.09-.17-.14Z"/>
    <path class="cls-1" d="m104.29,52.85c-.35.03-.48-.32-.75-.44l-.2-.12c-.45-.08-.73-.46-1.12-.65-.07-.04-.13-.08-.2-.12-.25-.15-.49-.29-.74-.44-.07-.04-.13-.08-.2-.12-.35.02-.48-.32-.75-.44-.07-.04-.13-.08-.2-.12-.35-.08-.67,0-.98.19-1.76,1.05-3.52,2.1-5.29,3.15-3.08,1.82-6.16,3.64-9.25,5.46-1.85,1.09-3.69,2.19-5.54,3.28-.21.13-.45.23-.65.37-.26.18-.52.2-.75-.01-.39-.36-.92-.48-1.32-.8-.07-.04-.14-.09-.21-.13-.24-.14-.49-.29-.73-.43-.07-.05-.14-.09-.21-.14-.24-.14-.49-.28-.73-.43-.07-.05-.15-.09-.22-.14-.24-.14-.48-.28-.72-.42-.06-.05-.12-.09-.18-.14-.38-.21-.77-.42-1.15-.63-.07-.04-.14-.08-.21-.13-.25-.14-.49-.29-.74-.43-.07-.04-.14-.09-.21-.13-.24-.14-.49-.29-.73-.43-.07-.05-.15-.09-.22-.14-.24-.14-.48-.28-.72-.42l-.17-.14c-.36-.25-.82-.33-1.15-.63-.07-.04-.14-.08-.21-.12-.25-.15-.49-.29-.74-.44-.07-.04-.14-.09-.21-.13-.24-.14-.49-.29-.73-.43l-.21-.14c-.6-.42-.03-.54.2-.74.07-.04.14-.08.21-.12.07-.02.13-.05.2-.07.06-.05.12-.09.18-.14.12-.08.25-.16.37-.24.06-.04.13-.07.19-.11.07-.03.14-.05.21-.08.06-.05.11-.09.17-.14.24-.14.48-.28.72-.42.07-.05.15-.09.22-.14.66-.18,1.09-.74,1.69-1.01.06-.04.13-.07.19-.11.07-.02.14-.05.21-.07.06-.05.12-.09.18-.14.24-.14.48-.28.72-.42.07-.05.15-.09.22-.14.24-.14.49-.29.73-.43.07-.04.14-.09.21-.13.25-.15.5-.3.75-.45.06-.04.13-.07.19-.11.07-.02.13-.05.2-.07.06-.05.12-.09.18-.14.12-.08.25-.16.37-.24.06-.04.13-.07.19-.11.07-.03.14-.05.21-.08.06-.05.11-.09.17-.14.24-.14.48-.28.72-.42.07-.05.15-.09.22-.14.24-.14.49-.29.73-.43.07-.04.14-.08.21-.13.25-.15.5-.3.75-.45.06-.04.13-.07.19-.11.07-.02.14-.05.21-.07.06-.05.12-.09.17-.14.24-.14.48-.28.72-.42.07-.05.15-.09.22-.14.24-.14.49-.29.73-.43.07-.04.14-.09.21-.13.25-.15.5-.3.75-.45.06-.04.13-.07.19-.11.07-.02.14-.05.2-.07.06-.05.12-.09.18-.14.12-.08.25-.16.37-.24.06-.03.13-.07.19-.1.07-.03.14-.05.21-.08.06-.05.11-.09.17-.14.24-.14.48-.28.73-.43.07-.05.14-.09.22-.14.24-.14.49-.29.73-.43.07-.04.14-.08.21-.13.25-.15.5-.3.75-.45.06-.04.13-.07.19-.11.07-.03.14-.05.21-.08.06-.05.12-.09.17-.14.24-.14.48-.28.72-.42.07-.05.15-.09.22-.14.24-.14.49-.29.73-.43.07-.04.14-.09.21-.13.25-.15.5-.3.75-.45.06-.04.13-.07.19-.11.07-.02.14-.05.2-.07.06-.05.12-.09.18-.14.24-.14.48-.28.72-.42.07-.05.15-.09.22-.14.24-.14.48-.28.73-.43.07-.05.14-.09.22-.13.24-.14.49-.29.73-.43.07-.04.14-.08.21-.13.25-.15.5-.3.75-.45.06-.04.13-.07.19-.11.07-.03.14-.05.21-.08l.17-.14c.24-.14.48-.28.72-.42.07-.05.15-.09.22-.14.24-.14.49-.29.73-.43.07-.04.14-.09.21-.13.25-.15.5-.3.75-.45.06-.04.13-.07.19-.11.07-.02.14-.05.2-.07.06-.05.12-.09.18-.14.24-.14.48-.28.72-.42.07-.05.15-.09.22-.14.24-.14.48-.28.73-.43.07-.04.14-.09.22-.13.24-.14.49-.29.73-.43.07-.04.14-.08.21-.12.07-.02.13-.05.2-.07.06-.05.12-.09.18-.14.2-.14.4-.31.67-.13.18.12.38.21.57.33,10.93,6.43,21.85,12.86,32.77,19.3.19.11.37.24.55.36,0,.1,0,.21-.01.31-1.45,1-3,1.82-4.51,2.72-2.23,1.34-4.51,2.63-6.72,4-.78.49-1.38.44-2.15-.02-5.04-3.02-10.11-5.98-15.17-8.97-.3-.17-.57-.4-.92-.47-.07-.04-.13-.08-.2-.12Z"/>
    <path class="cls-1" d="m121.71,154.2c-.01-1.41-.03-2.83-.04-4.24,0-3.08.02-6.17-.02-9.25,0-.74.2-1.17.87-1.56,6.65-3.88,13.28-7.8,19.93-11.68.68-.4.95-.8.94-1.61-.02-7.8.03-15.6,0-23.4,0-.85.28-1.27.99-1.68,3.59-2.08,7.15-4.21,10.72-6.32.26-.15.5-.38.84-.4.19.22.11.48.11.71,0,12.96,0,25.92.02,38.88,0,.63-.22.95-.74,1.25-8.36,4.88-16.7,9.8-25.07,14.66-1.56.91-3.14,1.79-4.68,2.72-1.18.71-2.39,1.35-3.59,2.02-.1-.03-.21-.07-.31-.1Z"/>
    <path class="cls-1" d="m43.78,83.24c-.01-.56-.04-1.12-.04-1.69,0-4.07,0-8.14,0-12.2,0-.34.03-.69.04-1.03.05-.03.09-.07.12-.12.9-.69,1.93-1.17,2.89-1.75,1.15-.69,2.25-1.47,3.45-2.07,1.91-.96,3.64-2.23,5.51-3.27.48-.27.89-.12,1.31.13,1.48.87,2.97,1.74,4.44,2.61,2.34,1.38,4.68,2.76,7.02,4.15.13.08.26.17.45.3-.83.66-1.76,1.09-2.63,1.61-3.08,1.84-6.17,3.66-9.27,5.46-.54.31-.71.67-.71,1.27.03,4.4.01,8.8.01,13.2,0,.25,0,.5,0,.94-4.24-2.52-8.36-4.98-12.48-7.43-.03-.05-.07-.08-.12-.11Z"/>
    <path class="cls-1" d="m143.41,90.41c-.01-1.13-.04-2.26-.04-3.39,0-3.43-.02-6.85.01-10.28,0-.68-.19-1.06-.79-1.41-3.64-2.11-7.25-4.27-10.87-6.42-.27-.16-.53-.33-.79-.48.02-.35.31-.4.51-.52,3.75-2.23,7.52-4.44,11.26-6.69.51-.3.88-.27,1.37.02,3.75,2.23,7.51,4.45,11.29,6.64.54.31.72.66.71,1.27-.03,4.43-.02,8.86,0,13.3,0,.51-.1.86-.59,1.14-3.8,2.21-7.59,4.44-11.38,6.67-.11.06-.23.1-.34.15-.11,0-.23,0-.34,0Z"/>
    <path class="cls-1" d="m104.49,149.74c1.93-.98,3.74-2.18,5.62-3.24.6-.34,1.19-.69,1.81-1,.46-.23.61-.14.67.32.02.19,0,.38,0,.57,0,4.21-.01,8.42.01,12.63,0,.63-.15,1.01-.73,1.35-3.78,2.19-7.54,4.4-11.28,6.64-.54.33-.92.28-1.44-.02-3.72-2.23-7.45-4.43-11.19-6.62-.53-.31-.73-.65-.73-1.27.03-4.31.01-8.61.01-12.92,0-.16,0-.31,0-.47,0-.39.18-.52.53-.35.17.08.33.18.49.28,1.79,1.18,3.69,2.2,5.52,3.33,1.73,1.07,3.49,2.1,5.27,3.1.34.19.67.33,1.06.23.07-.04.13-.08.2-.12.25-.15.5-.3.75-.45.06-.04.13-.07.19-.11.07-.02.14-.05.2-.07.06-.05.12-.09.18-.14.88-.52,1.76-1.04,2.63-1.56.06-.04.13-.07.19-.11Z"/>
    <path class="cls-1" d="m112.47,68.27c-.28.35-.58.46-.84.62-3.49,2.06-6.98,4.12-10.47,6.17-.16.1-.33.18-.49.28-.6.41-1.14.37-1.78-.04-2.42-1.53-4.93-2.92-7.37-4.41-1.24-.76-2.52-1.48-3.78-2.21-.53-.31-.55-.44-.01-.72,1.97-1.04,3.79-2.33,5.74-3.41,1.79-.99,3.51-2.1,5.27-3.15.7-.42,1.38-.5,2.13-.01,1.94,1.26,3.98,2.38,5.96,3.59,1.55.94,3.13,1.84,4.72,2.72.3.16.58.36.93.57Z"/>
    <path class="cls-1" d="m65.6,106.87c.38-.04.56.16.77.28,3.7,2.19,7.4,4.38,11.11,6.55.48.28.72.58.72,1.17-.02,4.46-.01,8.92-.02,13.38,0,.18.04.38-.11.57-.26.07-.44-.14-.64-.25-3.74-2.18-7.48-4.38-11.22-6.56-.39-.23-.7-.43-.69-.99.03-4.59.02-9.17.02-13.76,0-.12.03-.25.06-.4Z"/>
    <path class="cls-1" d="m134.27,107.01c.01,1.41.03,2.82.04,4.24,0,3.2,0,6.41,0,9.61,0,.47-.06.81-.53,1.08-3.83,2.22-7.64,4.46-11.46,6.7-.08.05-.17.06-.26.1-.12,0-.24,0-.36,0-.01-1.29-.04-2.57-.04-3.86,0-3.3.01-6.59-.01-9.89,0-.6.15-.95.7-1.27,3.74-2.17,7.46-4.39,11.19-6.59.19-.11.35-.27.59-.27.05.06.09.11.14.17Z"/>
  </g>
</svg>