<?xml version="1.0" encoding="UTF-8"?>
<svg id="Layer_1" data-name="Layer 1" xmlns="http://www.w3.org/2000/svg" viewBox="0 0 200 200">
  <defs>
    <style>
      .cls-1 {
        fill: #00ff87;
      }

      .cls-2 {
        fill: #171616;
      }
    </style>
  </defs>
  <circle class="cls-2" cx="99.93" cy="100" r="97.75"/>
  <path class="cls-1" d="m145.44,99.23c0,16.76-.04,33.51.05,50.27.01,2.08-.58,2.56-2.61,2.55-25.69-.07-51.38-.08-77.07,0-2.26,0-2.68-.74-2.62-2.76.13-4.57-.01-9.15.06-13.73.02-1.41-.39-1.89-1.83-1.87-4.42.07-8.85-.03-13.27.04-1.47.02-2.05-.38-2.05-1.96.04-21.88.04-43.75,0-65.63,0-1.61.64-1.94,2.08-1.92,4.19.06,8.39-.12,12.57.06,2.14.09,2.58-.65,2.52-2.63-.14-4.42.05-8.85-.08-13.26-.06-1.9.44-2.49,2.42-2.48,25.84.07,51.69.06,77.53,0,1.86,0,2.34.53,2.34,2.34-.06,16.99-.04,33.98-.04,50.97Zm-62.86,16.19c.46-10.92.24-21.84.11-32.76.84-.06,1.69-.17,2.53-.17,13.02-.01,26.05-.05,39.07.03,2,.01,2.86-.32,2.76-2.6-.2-4.41-.14-8.83-.01-13.25.05-1.81-.45-2.36-2.3-2.34-13.18.08-26.36.08-39.53,0-1.91-.01-2.31.64-2.31,2.4,0,5.34.28,10.68-.13,16.01-5.57-.05-11.15-.05-16.72-.16-1.6-.03-1.47.89-1.47,1.93.01,9.6.05,19.2-.03,28.8-.01,1.63.43,2.09,2.06,2.07,5.34-.09,10.69-.02,16.03,0,.39.46.29,1.03.29,1.56,0,4.81.06,9.62-.03,14.42-.03,1.64.33,2.32,2.16,2.31,13.34-.08,26.69-.07,40.03-.01,1.56,0,1.96-.51,1.93-2-.08-4.73-.1-9.46,0-14.19.04-1.66-.5-2.07-2.1-2.06-14.12.06-28.23.04-42.34.04Z"/>
</svg>