<?xml version="1.0" encoding="UTF-8"?>
<svg id="Layer_1" data-name="Layer 1" xmlns="http://www.w3.org/2000/svg" viewBox="0 0 200 200">
  <defs>
    <style>
      .cls-1 {
        fill: #051221;
      }

      .cls-2 {
        fill: #fff;
      }
    </style>
  </defs>
  <circle class="cls-1" cx="99.83" cy="100" r="97.75"/>
  <g>
    <path class="cls-2" d="m43.4,101.9c0-10.45.02-20.91-.02-31.36,0-1.26.28-1.92,1.51-2.61,9.22-5.22,18.36-10.6,27.52-15.93,8.67-5.04,17.34-10.09,25.99-15.15,1.47-.86,2.79-1.18,4.44-.2,5.9,3.52,11.89,6.91,17.84,10.35,6.87,3.97,13.73,7.95,20.59,11.94,5.47,3.18,10.92,6.4,16.42,9.53,1.12.63.86,1.54.86,2.42.01,17.64,0,35.28,0,52.92,0,3.34-.05,6.68.03,10.02.02,1.06-.29,1.64-1.21,2.17-8.97,5.15-17.9,10.37-26.86,15.54-7.02,4.04-14.08,8.03-21.12,12.04-2.37,1.35-4.81,2.58-7.07,4.08-1.16.77-2.11.74-3.14.14-9.64-5.62-19.25-11.29-28.9-16.89-8.07-4.68-16.17-9.3-24.31-13.85-1.77-.99-2.66-2-2.63-4.23.15-10.31.06-20.62.06-30.92Zm98.02.17c0-7.26.01-14.51-.02-21.77,0-.61.39-1.31-.61-1.82-2.68-1.38-5.26-2.93-7.86-4.45-5.27-3.07-10.53-6.16-15.81-9.23-4.85-2.82-9.7-5.63-14.58-8.41-1.07-.61-2.04-.76-3.34.03-6.07,3.65-12.25,7.1-18.39,10.63-6.44,3.7-12.89,7.39-19.33,11.1-.65.37-.98.85-.98,1.71.04,14.8.02,29.6.03,44.41,0,.71.03,1.3.86,1.76,4.66,2.62,9.26,5.34,13.88,8.03,7.28,4.22,14.52,8.5,21.85,12.63,1.8,1.01,3.47,2.64,6.03.96,4.75-3.1,9.74-5.82,14.65-8.68,7.39-4.31,14.76-8.66,22.22-12.86,1.17-.66,1.42-1.32,1.41-2.49-.03-7.18-.02-14.37-.02-21.55Z"/>
    <path class="cls-2" d="m127.8,86.53c-3.63,2.16-6.93,4.15-10.26,6.11-.72.42-1.49.39-2.24-.05-3.93-2.33-7.86-4.64-11.79-6.97-1.68-1-3.22-1.35-5.1-.19-3.76,2.32-7.67,4.4-11.49,6.61-1.01.58-1.62,1.31-1.59,2.7.12,4.93.07,9.87.03,14.81,0,1.11.22,1.81,1.3,2.41,4.37,2.43,8.69,4.96,12.98,7.53.98.59,1.74.31,2.54-.16,4.23-2.47,8.46-4.92,12.66-7.44.98-.59,1.82-.86,2.9-.21,3.25,1.98,6.53,3.89,10.07,5.99-2.48,1.43-4.8,2.78-7.13,4.12-6.09,3.48-12.22,6.89-18.23,10.5-1.11.67-1.91.79-2.89.22-5.56-3.17-11.1-6.38-16.66-9.56-2.55-1.47-5.09-2.96-7.69-4.35-.87-.47-1.19-.99-1.19-1.97.03-9.58.03-19.17,0-28.75,0-1.01.21-1.63,1.22-2.2,8.28-4.68,16.5-9.45,24.72-14.25.71-.41,1.12-.27,1.73.09,8.59,4.97,17.2,9.91,26.09,15.03Z"/>
  </g>
</svg>