<?xml version="1.0" encoding="UTF-8"?>
<svg id="Layer_1" data-name="Layer 1" xmlns="http://www.w3.org/2000/svg" viewBox="0 0 200 200">
  <defs>
    <style>
      .cls-1 {
        fill: #fbfdfc;
      }

      .cls-2 {
        fill: #1b6aff;
      }
    </style>
  </defs>
  <circle class="cls-2" cx="100" cy="100" r="97.75"/>
  <g>
    <path class="cls-1" d="m142.02,98.87c0,12.94-.07,25.87.05,38.81.03,3.34-1.08,5.44-4.23,6.83-4.94,2.19-9.79,4.62-14.54,7.19-5.3,2.87-10.77,5.41-16.13,8.15-3.72,1.9-7.36,1.51-11.05-.16-4.76-2.15-9.32-4.71-13.94-7.12-5.13-2.67-10.36-5.13-15.5-7.76-3.13-1.6-4.64-3.71-4.61-7.54.17-25.94.09-51.89.1-77.83,0-3.49.06-3.4,3.28-4.85,2.08-.94,3.98-2.28,6.04-3.3,3.62-1.8,7.22-3.63,10.63-5.82,1.57-1,3.43-1.45,5.07-2.4,3.28-1.9,6.72-3.52,10.04-5.33,1.15-.62,2.25-.76,3.56-.85,3.95-.28,7.05,1.5,10.36,3.2,5.01,2.57,9.92,5.31,14.89,7.94,4.77,2.53,9.57,5.02,14.34,7.56,1.2.64,1.64,1.67,1.63,3.09-.05,13.4-.03,26.8-.03,40.2.01,0,.03,0,.04,0Zm-4.95,21.61h.02c0-5.65,0-11.3,0-16.95,0-1.26.16-2.62-1.79-1.19-1.49,1.1-3.15,2-4.81,2.85-4.37,2.25-8.43,5.04-12.84,7.23-3.36,1.67-6.6,3.67-9.72,5.77-3.26,2.19-6.61,2.8-10.06.95-5.88-3.17-11.65-6.55-17.45-9.87-4-2.28-8.06-4.48-11.94-6.94-1.53-.97-1.39-.24-1.39.8,0,11.55.01,23.11-.02,34.66,0,1.01.39,1.52,1.23,1.98,3.94,2.15,8.03,4,11.96,6.21,6.04,3.4,12.39,6.23,18.61,9.3,1.67.82,3.39.81,5.04.1,3.09-1.32,6.21-2.61,9.17-4.19,4.25-2.27,8.72-4.07,12.83-6.72,2.83-1.83,6.08-3.31,9.31-4.56,1.36-.53,1.93-1.32,1.89-2.9-.12-5.51-.05-11.03-.05-16.54Zm-3.39-62.79c-3.47-1.87-6.77-3.86-10.25-5.46-6.07-2.78-11.69-6.39-17.73-9.23-2.12-.99-4.09-1.22-6.32-.41-4.27,1.55-7.98,4.18-12.05,6.11-3.6,1.7-6.89,3.99-10.57,5.54-1.95.82-3.81,1.78-5.59,2.89-.51.32-1.17.65.08,1.25,5.06,2.43,10.01,5.06,15.04,7.56,3.71,1.85,7.71,3.24,11.14,5.5,3.38,2.23,6.14,1.65,9.31-.06,2.59-1.4,5.14-2.85,7.84-4.09,6.45-2.97,12.71-6.33,19.12-9.58Zm-34.03,39.59c0-4.99,0-9.98-.01-14.98,0-.48.26-1.19-.4-1.37-.52-.14-1.14-.02-1.51.56-.13.21-.28.47-.49.57-4.9,2.24-9.38,5.23-14.12,7.75-4.12,2.18-8.17,4.49-12.25,6.73-.97.53-.88,1.01.03,1.5,1.83.98,3.66,1.95,5.47,2.97,4.32,2.44,8.62,4.9,12.93,7.36,2.8,1.6,5.62,3.18,8.38,4.85.51.31.96.81,1.56.59.74-.27.41-1.03.41-1.56.03-4.99.02-9.98,0-14.98Zm4.86-.08c0,4.99.02,9.98-.01,14.97,0,1.39,0,2.2,1.74,1.09,3.78-2.42,7.54-4.96,11.58-6.86,4.99-2.35,9.45-5.59,14.41-7.96.52-.25,1.35-.45,1.38-1.25.03-.88-.86-.89-1.38-1.18-5.34-2.97-10.66-5.96-16.06-8.81-2.17-1.15-4.14-2.6-6.44-3.56-1.23-.51-2.73-1-3.52-2.25-.37-.59-.88-.91-1.35-.76-.55.18-.34.91-.34,1.41-.02,5.06-.01,10.11-.02,15.17Zm32.56-4.33c0-10-.04-19.51.03-29.02.01-1.81-.49-1.79-1.86-1.1-5.5,2.78-11.03,5.51-16.57,8.22-3.69,1.81-7.52,3.33-11.06,5.65,9.94,5.04,19.09,11.42,29.45,16.25Zm-40.88-16.43c-3-1.51-5.91-2.98-8.83-4.45-3.58-1.8-7.11-3.71-10.75-5.38-2.57-1.18-5.05-2.49-7.45-3.94-.62-.38-1.28-.56-1.83-.37-.54.18-.24.93-.24,1.42-.01,8.33,0,16.67,0,25,0,1.05,0,2.1-.01,3.15-.01.76.34,1.04.94.56.87-.7,1.95-.87,2.88-1.36,3.19-1.68,6.21-3.66,9.42-5.29,1.64-.83,3.21-1.81,4.8-2.69,3.68-2.05,7.44-3.99,11.07-6.64Z"/>
    <path class="cls-1" d="m148.19,60.61c-1.96.47-2.28-.82-2.36-2.52-.16-3.53-1.4-6.45-4.72-8.21-1.65-.87-2.24-3.91-1.03-5.2.58-.62,1.47-.31,2.19,0,4.18,1.75,6.54,5.09,7.91,9.24.32.97.47,2,.79,2.97,1.01,3.09.57,3.73-2.78,3.72Z"/>
    <path class="cls-1" d="m52.81,138.94c-.23-1.66.27-1.72,2.25-1.7,3.08.03,2.94,1.85,3.27,3.71.57,3.19,2.3,5.53,5.04,7.22.59.37,1.54,1.18,1.44,1.47-.46,1.28-.46,2.8-1.65,3.77-.29.24-.53.22-.88.07-4.84-2-9.46-8.99-9.46-14.54Z"/>
  </g>
</svg>