<?xml version="1.0" encoding="UTF-8"?>
<svg id="Layer_1" data-name="Layer 1" xmlns="http://www.w3.org/2000/svg" viewBox="0 0 200 200">
  <defs>
    <style>
      .cls-1 {
        fill: #fff;
      }

      .cls-2 {
        fill: #ff0420;
      }
    </style>
  </defs>
  <circle class="cls-2" cx="99.83" cy="100" r="97.75"/>
  <path class="cls-1" d="m68.2,130.47c-1.82,0-3.65-.04-5.45-.38-3.76-.71-7.29-1.97-10.27-4.49-2.5-2.12-4-4.83-4.67-8.03-.4-1.91-.4-3.82-.25-5.75.22-2.7.89-5.33,1.41-7.98.14-.7.36-1.39.49-2.07.17-.91.36-1.81.57-2.71.23-1.01.44-2.03.72-3.03.43-1.53.81-3.08,1.44-4.55.7-1.62,1.37-3.25,2.34-4.74.52-.8,1.03-1.62,1.65-2.33.35-.4.71-.81,1.06-1.2.47-.52.93-1.04,1.46-1.49,1-.86,1.99-1.73,3.16-2.38.84-.46,1.63-1,2.52-1.37,1.19-.5,2.37-1.02,3.65-1.31.74-.17,1.47-.47,2.23-.58,1.35-.2,2.7-.44,4.07-.54,1.64-.12,3.28-.23,4.92-.09,1.36.12,2.74.23,4.07.51,1.65.35,3.29.81,4.84,1.53,1.33.61,2.61,1.27,3.78,2.15.81.61,1.51,1.34,2.22,2.06.97.99,1.7,2.14,2.31,3.37.75,1.51,1.2,3.1,1.41,4.78.14,1.09.28,2.17.19,3.27-.13,1.46-.31,2.9-.58,4.35-.27,1.43-.47,2.88-.76,4.31-.94,4.6-1.8,9.22-3.66,13.58-1.78,4.18-4.28,7.82-8.01,10.52-3,2.17-6.39,3.38-10,4.04-2.27.42-4.55.57-6.85.57Zm1-11.07c.54,0,1.09,0,1.63,0,.13,0,.26-.06.39-.09,4.09-.69,6.84-3.08,8.52-6.79.62-1.37,1-2.8,1.34-4.26.54-2.3,1.11-4.61,1.57-6.93.25-1.22.51-2.45.71-3.68.23-1.37.48-2.75.52-4.15.03-1.23-.09-2.48-.55-3.6-.6-1.44-1.7-2.51-3.24-3.02-.73-.24-1.49-.36-2.26-.45-1.17-.13-2.31-.03-3.47.11-1.28.16-2.43.65-3.56,1.24-.69.36-1.4.76-1.9,1.3-.76.82-1.48,1.69-2.06,2.67-.74,1.22-1.23,2.55-1.65,3.89-.49,1.59-.81,3.24-1.19,4.87-.2.82-.43,1.63-.57,2.46-.27,1.65-.63,3.28-.96,4.92-.41,1.99-.7,3.98-.49,6.02.28,2.68,1.82,4.51,4.42,5.22.93.26,1.87.28,2.81.27Z"/>
  <path class="cls-1" d="m146.18,79.2c.76.55,1.55,1.06,2.25,1.69,1.26,1.14,2.25,2.47,2.84,4.05.77,2.07,1.11,4.22.82,6.43-.14,1.04-.25,2.1-.58,3.11-.04.11-.01.23-.02.35-.06,0-.1.03-.08.1-.58,2.37-1.41,4.63-2.69,6.74-2.76,4.56-6.88,7.17-11.95,8.44-1.76.44-3.54.72-5.35.83-4.29.24-8.59.07-12.88.1-.53,0-.7.15-.81.66-1.1,5.35-2.22,10.69-3.35,16.04-.27,1.27-1.14,1.99-2.45,1.99-3.38,0-6.76,0-10.14,0-1.37,0-1.93-.71-1.66-2.06.22-1.11.48-2.21.7-3.32.26-1.37.54-2.75.84-4.11.31-1.39.59-2.8.92-4.19.43-1.79.82-3.59,1.15-5.4.24-1.29.52-2.58.78-3.86.29-1.4.63-2.8.9-4.2.26-1.32.57-2.63.83-3.95.19-.96.46-1.91.64-2.87.34-1.76.74-3.52,1.09-5.28.28-1.4.61-2.79.9-4.19.41-1.97.86-3.93,1.24-5.9.17-.88.35-1.76.59-2.63.25-.88,1.23-1.59,2.27-1.6,1.04-.01,2.07,0,3.11,0,5.93,0,11.86-.01,17.79.02,1.33,0,2.67.15,4,.29.63.07,1.25.26,1.89.28,0,.14.09.14.19.12,1.32.17,2.53.68,3.76,1.14.35.13.69.27,1.03.41,0,.06.02.11.09.07.04.01.08.02.11.04,0,.06.01.11.09.07l.11.04c0,.06.02.11.09.07.27.15.54.3.81.44.02.05.04.1.11.07Zm-20.74,21.31c1.55-.06,3.42.13,5.27-.18,1.6-.26,2.99-.99,4.19-2.01.93-.78,1.61-1.81,2.08-2.94.71-1.72.97-3.51.62-5.33-.26-1.35-1.08-2.31-2.43-2.76-1.08-.36-2.19-.48-3.32-.49-2.04,0-4.08,0-6.12,0-.85,0-1.7,0-2.55,0-.19,0-.4-.04-.45.27-.18,1.02-.37,2.04-.6,3.05-.39,1.78-.78,3.55-1.13,5.34-.3,1.54-.63,3.09-1.01,4.61-.12.49.07.45.4.44,1.58,0,3.16,0,5.05,0Z"/>
</svg>