<?xml version="1.0" encoding="UTF-8"?>
<svg id="Layer_1" data-name="Layer 1" xmlns="http://www.w3.org/2000/svg" viewBox="0 0 200 200">
  <defs>
    <style>
      .cls-1 {
        fill: #fff;
      }

      .cls-2 {
        fill: #8247e5;
      }
    </style>
  </defs>
  <circle class="cls-2" cx="100" cy="100" r="97.75"/>
  <path class="cls-1" d="m127.02,158.53s-.04,0-.06-.02c0-.12-.07-.08-.13-.05-.07-.05-.14-.1-.2-.16l-.07-.04c-.1-.02-.19-.06-.26-.15-.03-.02-.05-.03-.08-.05-.16-.03-.27-.14-.39-.23-.02-.01-.05-.03-.07-.04-.13-.07-.26-.15-.39-.22l-.07-.04-.26-.15s-.05-.03-.07-.04c-.03,0-.05-.01-.08-.02,0-.02-.02-.04-.03-.05,0,.02-.01.03-.02.05-.09-.07-.18-.13-.27-.2-.02-.01-.05-.03-.07-.04-.26-.12-.51-.24-.73-.42-.02-.01-.05-.03-.07-.04-.13-.07-.26-.15-.39-.22-.02-.01-.05-.03-.07-.04-.09-.05-.17-.1-.26-.15-.02-.01-.05-.03-.07-.04-.02,0-.04,0-.06-.02,0-.12-.07-.08-.13-.05-.07-.05-.14-.1-.2-.16-.02-.01-.05-.03-.07-.04-.13-.08-.26-.15-.4-.23-.02-.01-.04-.03-.07-.04-.09-.05-.18-.1-.26-.15-.02-.01-.05-.03-.07-.04-.03,0-.05-.01-.08-.02,0-.02-.02-.04-.03-.05,0,.02-.01.03-.02.05-.09-.07-.18-.13-.27-.2-.02-.01-.05-.03-.07-.04-.1-.02-.19-.06-.26-.15-.03-.02-.05-.03-.08-.05-.16-.03-.27-.14-.39-.23-.02-.01-.05-.03-.07-.04-.13-.08-.26-.15-.39-.23-.02-.01-.05-.03-.07-.04-.09-.05-.18-.1-.26-.15-.02-.01-.05-.03-.07-.04-.03,0-.05-.01-.08-.02,0-.02-.02-.04-.02-.05,0,.02-.01.03-.02.05-.09-.07-.18-.13-.27-.2l-.07-.04c-.12,0-.17-.11-.26-.15-.02-.01-.05-.03-.07-.04-.16-.03-.27-.14-.39-.22-.02-.01-.05-.03-.07-.04-.13-.07-.26-.15-.39-.22-.02-.01-.05-.03-.07-.04-.09-.05-.17-.1-.26-.15-.02-.01-.05-.03-.07-.04-.02,0-.04,0-.06-.02,0-.12-.07-.08-.13-.05-.07-.05-.14-.1-.2-.16-.02-.01-.05-.03-.07-.04-.26-.12-.51-.24-.73-.42-.02-.01-.05-.03-.07-.04-.03,0-.05-.01-.08-.02,0-.02-.02-.04-.03-.05,0,.02-.01.03-.02.05-.2-.13-.4-.26-.6-.38-.03-.02-.05-.03-.08-.05-.16-.03-.27-.14-.39-.23-.02-.01-.05-.03-.07-.04-.13-.08-.26-.15-.39-.23-.02-.01-.04-.03-.07-.04-.09-.05-.18-.1-.26-.15-.02-.01-.05-.03-.07-.04-.02,0-.04,0-.06-.02,0-.12-.07-.08-.13-.05-.07-.05-.14-.1-.2-.16l-.07-.04c-.1-.02-.19-.06-.26-.15-.03-.02-.05-.03-.08-.05-.16-.03-.27-.14-.39-.23-.02-.01-.05-.03-.07-.04-.13-.07-.26-.15-.39-.22l-.07-.04-.26-.15s-.05-.03-.07-.04c-.02,0-.04,0-.06-.02,0-.12-.07-.08-.13-.05-.07-.05-.14-.1-.2-.16l-.07-.04c-.26-.12-.51-.24-.73-.42-.02-.01-.05-.03-.07-.04-.13-.07-.26-.15-.39-.22-.02-.01-.05-.03-.07-.04-.09-.05-.17-.1-.26-.15-.02-.01-.05-.03-.07-.04-.03,0-.05-.01-.08-.02,0-.02-.02-.04-.02-.05,0,.02-.01.03-.02.05-.09-.07-.18-.13-.27-.2-.02-.01-.05-.03-.07-.04-.13-.08-.26-.15-.4-.23-.02-.01-.04-.03-.07-.04-.09-.05-.18-.1-.26-.15-.02-.01-.05-.03-.07-.04-.03,0-.05-.01-.08-.02,0-.02-.02-.04-.03-.05l-.02.05c-.09-.07-.18-.13-.27-.2-.02-.01-.05-.03-.07-.04-.1-.02-.19-.06-.26-.15-.03-.02-.05-.03-.08-.05-.16-.03-.27-.14-.39-.23-.02-.01-.05-.03-.07-.04-.13-.08-.26-.15-.39-.23-.02-.01-.05-.03-.07-.04-.09-.05-.18-.1-.26-.15-.02-.01-.05-.03-.07-.04-.03,0-.05-.01-.08-.02,0-.02-.02-.04-.02-.05,0,.02-.01.03-.02.05-.09-.07-.18-.13-.27-.2l-.07-.04c-.12,0-.17-.11-.26-.15-.02-.01-.05-.03-.07-.04-.16-.03-.27-.14-.39-.22-.02-.01-.05-.03-.07-.04-.13-.07-.26-.15-.39-.22l-.07-.04c-.09-.05-.17-.1-.26-.15l-.07-.04s-.05-.01-.08-.02c0-.02-.02-.04-.03-.05,0,.02-.01.03-.02.05-.09-.07-.18-.13-.27-.2-.02-.01-.05-.03-.07-.04-.26-.12-.51-.24-.73-.42-.02-.01-.05-.03-.07-.04-.02,0-.04,0-.06-.02,0-.12-.07-.08-.13-.05-.18-.11-.35-.23-.53-.34-.03-.02-.05-.03-.08-.05-.16-.03-.27-.14-.39-.23-.02-.01-.05-.03-.07-.04-.02,0-.04,0-.06-.02,0-.12-.07-.08-.13-.05-.33-.21-.67-.41-1-.62-.02-.01-.04-.03-.07-.04-.4-.23-.8-.46-1.2-.69-.02-.01-.05-.03-.07-.04-.56-.28-1.04-.67-1.55-1.03-.31-.22-.55-.53-.83-.8-.68-.63-1.14-1.4-1.52-2.24,0-.09,0-.18-.12-.19l-.21-.6s-.03-.04-.05-.06c-.07-.38-.15-.76-.22-1.14,0-.03,0-.07-.01-.1-.34-.48-.17-1.03-.17-1.54-.02-3.68,0-7.36-.02-11.03,0-.31.08-.5.4-.56.07-.01.13-.07.2-.11.02-.01.05-.03.07-.04.13-.07.26-.15.39-.22.02-.02.05-.03.07-.05.09-.05.18-.1.26-.15.02-.01.05-.03.07-.04.13-.08.26-.15.39-.23.02-.01.05-.03.07-.04.13-.07.26-.15.39-.22.02-.02.05-.03.07-.05.09-.05.18-.1.26-.15.02-.01.05-.03.07-.04.13-.08.26-.15.39-.23.02-.01.05-.03.07-.04.13-.07.26-.15.39-.22.02-.02.05-.03.07-.05.09-.05.18-.1.26-.15.02-.01.05-.03.07-.04.13-.08.26-.15.39-.23.02-.01.05-.03.07-.04.13-.07.26-.15.39-.22.02-.02.05-.03.07-.05.09-.05.18-.1.26-.15.02-.01.05-.03.07-.04.13-.08.26-.15.39-.23.02-.01.05-.03.07-.04.13-.07.26-.15.39-.22.02-.02.05-.03.07-.05.24-.14.48-.28.73-.42.02-.01.05-.03.07-.04.13-.08.26-.15.39-.23.02-.01.05-.03.07-.04.24-.14.48-.28.73-.42.02-.01.05-.03.07-.04.13-.08.26-.15.39-.23.02-.01.05-.03.07-.04.24-.14.48-.28.73-.42.02-.01.05-.03.07-.04.13-.08.26-.15.39-.23.02-.01.05-.03.07-.04.24-.14.48-.28.73-.42.02-.01.05-.03.07-.04.13-.08.26-.15.39-.23.02-.01.05-.03.07-.04.24-.14.48-.28.73-.42.02-.01.05-.03.07-.04.13-.08.26-.15.39-.23.02-.01.05-.03.07-.04.09-.05.17-.1.26-.15.02-.01.05-.03.07-.04.09-.05.18-.17.28-.12.09.05.05.18.05.28,0,3.27.03,6.54,0,9.81-.01,1.57.08,3.11.81,4.54,0,.08.04.13.12.13.58,1.27,1.43,2.31,2.61,3.08,0,.02.02.03.04.03.08.13.22.18.36.23.01.02.03.03.05.04,1.36.8,2.73,1.61,4.09,2.4,3.64,2.12,7.27,4.25,10.92,6.34.89.51,1.89.79,2.91.96.88.15,1.76.16,2.63.03,1.03-.15,2.01-.49,2.91-1.03,4.6-2.74,9.21-5.48,13.82-8.22.15-.09.24-.26.43-.29.02-.01.05-.03.07-.04.67-.45,1.32-.93,1.88-1.53.08-.09.17-.17.21-.29.02,0,.03-.02.04-.04.38-.38.71-.8.93-1.29,0-.01,0-.02,0-.04.25-.24.36-.57.48-.89.12-.01.12-.1.12-.19,0-.05,0-.1.01-.14.18-.13.21-.32.21-.52.38-1.45.37-2.93.36-4.42-.01-4.94,0-9.88-.01-14.82,0-.41.11-.83-.16-1.22-.1-.14.06-.34.03-.54-.08-.57-.29-1.11-.44-1.66-.02-.02-.03-.04-.05-.06-.64-1.67-1.72-2.98-3.21-3.96-.2-.13-.4-.25-.6-.38-.02-.01-.05-.03-.07-.04-.27-.1-.49-.28-.73-.42-.02-.01-.05-.03-.07-.04-.13-.08-.26-.15-.4-.23-.02-.01-.05-.03-.07-.04-.12,0-.17-.11-.26-.16-.02-.01-.05-.03-.07-.04-1-.59-2-1.19-3.01-1.77-1.53-.88-3.06-1.77-4.59-2.65-1.54-.89-3.08-1.78-4.61-2.7-.13-.08-.27-.14-.4-.21-.02-.01-.05-.03-.07-.04-.2,0-.31-.19-.47-.27-.5-.25-1.04-.4-1.58-.54-.01-.07-.02-.15-.12-.08-.83-.25-1.7-.25-2.55-.3-.67-.04-1.31.12-1.95.32-.03,0-.06,0-.1,0-.1-.08-.11,0-.13.07-.62.07-1.15.36-1.67.67-2.56,1.48-5.11,2.97-7.67,4.46-1.57.91-3.15,1.83-4.72,2.74-.33.19-.65.39-.97.58-.08,0-.15,0-.17.1-.22.1-.43.22-.61.37-.02.02-.03.03-.05.05-.71.35-1.39.75-2.06,1.18-.24.16-.52.25-.76.42-.08,0-.15,0-.17.1-.21.12-.42.24-.63.36-.08,0-.15,0-.17.1-.2.12-.41.25-.61.37-.02.02-.03.03-.05.05-.42.21-.83.41-1.21.68-.02.02-.03.03-.05.05-.43.18-.83.43-1.23.68-.07,0-.15,0-.17.09-.36.21-.73.42-1.09.64-.07,0-.15,0-.17.1-.36.21-.73.42-1.09.63-.08,0-.15,0-.17.1-.36.21-.73.42-1.09.63-.08,0-.15,0-.17.1-1.18.68-2.36,1.35-3.54,2.03-1.23.71-2.45,1.42-3.67,2.13-1.24.72-2.47,1.44-3.71,2.16-1.2.7-2.4,1.39-3.6,2.09-.34.2-.68.38-1.01.58-.07,0-.11.03-.13.1-.93.54-1.87,1.05-2.77,1.63-.23.15-.49.28-.75.39-.07,0-.12.03-.13.1-.93.54-1.86,1.08-2.78,1.63-.69.41-1.4.8-2.1,1.2-.98.55-1.92,1.19-2.99,1.58-.6.22-1.22.34-1.84.47-.44.09-.9.1-1.33.1-.49,0-.99-.04-1.49-.12-1.12-.18-2.14-.65-3.09-1.21-.95-.56-1.9-1.12-2.85-1.67-.84-.48-1.67-.98-2.52-1.45-.96-.53-1.9-1.13-2.86-1.67-.85-.47-1.66-1.01-2.53-1.45-.52-.26-1.01-.62-1.53-.91-1.3-.71-2.54-1.51-3.85-2.21-.55-.29-1.07-.66-1.61-.97-.83-.46-1.66-.92-2.47-1.41-.96-.58-1.94-1.14-2.91-1.7-.82-.48-1.65-.93-2.47-1.41-.99-.58-2.04-1.08-2.89-1.86-.84-.78-1.65-1.6-2.16-2.67-.3-.63-.58-1.26-.73-1.94-.14-.63-.19-1.28-.19-1.93,0-10.83,0-21.66,0-32.49,0-1.07.17-2.11.58-3.09.4-.94.97-1.79,1.71-2.52.6-.59,1.33-.99,2.04-1.43.72-.44,1.46-.83,2.18-1.26.69-.42,1.38-.83,2.08-1.23.54-.31,1.06-.64,1.59-.97.36-.22.75-.4,1.11-.62.54-.33,1.07-.66,1.62-.97.44-.25.91-.48,1.34-.75.98-.61,2.01-1.14,2.99-1.75.84-.52,1.73-.96,2.56-1.49.94-.6,1.92-1.11,2.88-1.68.84-.5,1.69-.99,2.54-1.49.97-.57,1.95-1.11,2.91-1.71.76-.48,1.54-.9,2.31-1.36,1.12-.66,2.2-1.4,3.47-1.78.22-.07.44-.11.68-.11,1.32,0,2.63.02,3.95,0,.59-.01,1.1.14,1.63.37,1.12.49,2.1,1.22,3.17,1.81,1.02.57,2.01,1.19,3.02,1.76.89.5,1.78,1.03,2.66,1.54.86.5,1.71,1.02,2.56,1.53,1.17.7,2.34,1.38,3.51,2.07.52.31,1.03.64,1.57.91.53.27,1,.64,1.53.91.88.46,1.72.99,2.58,1.49.9.52,1.78,1.07,2.67,1.59.85.49,1.7.99,2.54,1.48.65.38,1.28.8,1.94,1.14.52.27.97.62,1.44.94.37.25.65.64.99.95.59.54.96,1.24,1.36,1.91.18.3.33.67.45,1.03.19.58.27,1.18.41,1.77.09.37.05.77.05,1.16,0,3.72,0,7.43,0,11.15,0,.13,0,.27,0,.4,0,0,0,.02,0,.02v.02s-.03,0-.03,0c-.05.01-.09.04-.1.09-.35.27-.75.44-1.12.68-.29.19-.64.34-.95.53-.52.32-1.07.58-1.58.93-.28.19-.62.33-.92.51-.54.33-1.11.61-1.65.96-.26.17-.55.32-.83.48-.38.21-.76.43-1.14.64-.56.31-1.12.61-1.66.93-.5.29-.97.64-1.49.9-.56.28-1.05.68-1.65.89-.07-.12-.03-.24-.03-.35,0-3.65,0-7.3,0-10.95,0-.3.01-.59-.13-.9-.07-.15-.11-.42-.06-.64.05-.22-.07-.42-.12-.63-.26-1.05-.71-2.02-1.37-2.87-.69-.89-1.52-1.63-2.49-2.25-1.45-.91-2.91-1.79-4.37-2.68-1.94-1.19-3.87-2.37-5.83-3.52-.81-.48-1.58-1.04-2.42-1.47-1.02-.51-1.88-1.31-2.97-1.67-.64-.22-1.29-.42-1.97-.55-.73-.14-1.44-.2-2.16-.14-1.25.1-2.44.42-3.53,1.07-1.35.8-2.73,1.56-4.07,2.37-.87.53-1.78.99-2.64,1.54-.94.61-1.96,1.08-2.9,1.69-.92.6-1.93,1.05-2.84,1.65-.98.65-2.07,1.09-3.01,1.81-.67.51-1.28,1.09-1.77,1.77-.71.98-1.28,2.04-1.48,3.26-.08.5-.15.99-.16,1.51-.11,5.77,0,11.54-.05,17.31,0,1.02.12,2.02.46,2.98.34.96.84,1.83,1.47,2.63.85,1.09,2.01,1.77,3.16,2.47,4.42,2.67,8.85,5.33,13.27,8.01,1.86,1.13,3.86,1.61,6.02,1.36,1.06-.12,2.07-.45,2.99-1,3.94-2.35,7.88-4.7,11.79-7.09,1.85-1.13,3.71-2.22,5.55-3.35.9-.55,1.82-1.08,2.75-1.6.83-.46,1.69-.89,2.5-1.38.84-.51,1.75-.89,2.56-1.43.29-.19.6-.36.9-.52.28-.15.55-.34.85-.47.34-.13.66-.39.99-.54.32-.15.56-.39.91-.5.35-.11.67-.35.98-.56.22-.15.47-.29.68-.37.37-.14.65-.39,1-.54.48-.21.94-.49,1.39-.76,1.2-.71,2.4-1.41,3.6-2.12,1.33-.79,2.65-1.58,3.98-2.37.14-.08.29-.15.43-.22.02-.01.05-.03.07-.04.09-.05.17-.1.26-.15.02-.01.05-.03.07-.04.24-.14.48-.28.72-.42.02-.02.05-.03.07-.05.09-.05.14-.16.26-.16.02-.01.05-.03.07-.04.24-.14.48-.28.72-.42.02-.02.05-.03.07-.05.09-.04.14-.16.26-.15.02-.01.05-.03.07-.04.09-.05.18-.1.26-.16.08,0,.13-.02.14-.11.11-.05.22-.11.32-.16.02-.01.05-.03.07-.04.09-.05.17-.1.26-.15.02-.01.05-.03.07-.04.09-.05.17-.1.26-.15.02-.01.05-.03.07-.04.24-.14.48-.28.72-.42.02-.02.05-.03.07-.05.09-.05.14-.16.26-.16.02-.01.05-.03.07-.04.24-.14.48-.28.72-.42.02-.02.05-.03.07-.05.09-.05.17-.1.26-.15.02-.01.05-.03.07-.04.09-.05.17-.1.26-.16.08,0,.13-.02.14-.11.11-.05.22-.11.32-.16.02-.01.05-.03.07-.04.09-.05.17-.1.26-.15.02-.01.05-.03.07-.04.09-.05.17-.1.26-.15.02-.01.05-.03.07-.04.24-.14.48-.28.72-.42.02-.02.05-.03.07-.05.09-.05.14-.16.26-.16.02-.01.05-.03.07-.04.09-.05.18-.1.26-.16.02-.01.05-.03.07-.04.13-.07.24-.19.39-.23.02-.01.05-.03.07-.04.09-.05.17-.1.26-.15.02-.01.05-.03.07-.04.09-.05.17-.1.26-.16.08,0,.13-.02.14-.11.63-.27,1.25-.55,1.92-.7.95-.22,1.91-.41,2.89-.32,1.11.11,2.19.3,3.21.84.45.24.9.48,1.35.72.02.01.05.03.07.04.4.23.8.46,1.19.69.02.01.05.03.07.04.09.05.14.16.26.15l.07.04c.47.3,1,.52,1.45.87.06.04.14.06.21.09.02.01.05.03.07.04.09.05.14.15.26.15l.07.04c.17,0,.22.23.4.23.02.01.05.03.07.04.45.15.76.51,1.19.69.02.01.05.03.07.04.09.05.14.15.26.15.02.13.11.11.2.11.14.15.34.18.5.27.34.2.68.41,1.02.61.02.01.04.03.06.04.02,0,.04.01.07.02,0,.02.02.04.04.05.39.16.69.48,1.09.63.02.01.05.03.07.04.09.05.14.16.26.15l.07.04c.47.3,1,.52,1.45.87.06.04.14.06.21.09.02.01.05.03.07.04.09.05.14.15.26.15.02.13.11.11.2.11.14.15.34.18.5.27.34.2.68.41,1.02.61.02.01.05.03.07.04.43.18.75.54,1.19.69.01.02.03.03.05.04.07.09.18.13.28.15.02.01.05.03.07.04.47.3,1,.52,1.45.87.06.04.14.06.21.09.02.01.05.03.07.04.09.05.14.15.26.15.02.01.05.03.07.04.55.32,1.1.64,1.66.96.02.01.05.03.07.04.09.05.14.15.26.15.02.13.11.11.2.11.14.15.34.18.5.27.34.2.68.41,1.02.61.02.01.04.03.06.04.02,0,.04.01.07.02,0,.02.02.04.04.05.39.16.69.48,1.09.63.02.01.05.03.07.04.09.05.14.16.26.15.02.01.05.03.07.04.58.31,1.12.69,1.72.94.1.04.11.22.27.21.02.01.05.03.07.04.24.14.48.28.73.42.02.01.05.03.07.04.24.06.38.27.6.36.09.04.18.08.26.13.02.01.05.03.07.04.43.18.75.54,1.19.69.01.02.03.03.05.04.82.55,1.58,1.17,2.24,1.91.52.58.91,1.24,1.25,1.92.23.46.39.98.52,1.5.22.9.25,1.82.25,2.74,0,10.65,0,21.3,0,31.95,0,1.59-.38,3.1-1.18,4.46-.81,1.38-1.97,2.4-3.36,3.2-3.01,1.71-5.99,3.47-8.98,5.21-2.72,1.58-5.44,3.15-8.16,4.72-2.92,1.69-5.83,3.4-8.75,5.08-1.01.58-1.98,1.24-3.11,1.58-.2.06-.39.12-.6.11-1.46,0-2.92-.01-4.38,0-.47,0-.89-.12-1.29-.34-.22-.12-.44-.23-.66-.35-.02-.01-.05-.03-.07-.04Z"/>
</svg>