<svg width="24" height="24" viewBox="0 0 24 24" fill="none" xmlns="http://www.w3.org/2000/svg">
<circle cx="12" cy="12" r="11" stroke="#ffffff" stroke-width="2"/>
<g clip-path="url(#clip0_314_369)">
<path d="M19.0661 11.558C19.0698 11.5916 19.0757 11.6249 19.0837 11.6577C19.1673 12.0699 19.2686 12.482 19.3346 12.8987C19.4417 13.6071 19.5137 14.3207 19.5503 15.0366C19.5635 15.2631 19.5327 15.4624 19.3786 15.6481C18.9745 16.1274 18.4824 16.5199 17.9304 16.8031C17.6487 16.948 17.345 17.025 17.0633 17.1564H17.0193C16.6539 17.2333 16.2886 17.3103 15.9144 17.3285C15.8264 17.333 15.7384 17.3375 15.6723 17.256C15.4522 16.9842 15.2101 16.7261 15.0165 16.4317C14.9637 16.3547 14.9504 16.3003 15.0605 16.2777L15.1837 16.2324C15.8199 16.0141 16.4005 15.6519 16.8828 15.1725C16.9753 15.0774 17.0765 14.9823 17.1337 14.8328C13.8764 16.7306 10.6367 16.6898 7.35301 14.8237C7.52124 15.0542 7.71472 15.2639 7.92964 15.4488C8.34781 15.8066 8.8276 16.0467 9.3382 16.2369C9.50987 16.3003 9.51867 16.3139 9.39983 16.4634C9.21495 16.7034 9.01247 16.9253 8.84081 17.1745C8.74837 17.3058 8.64713 17.3285 8.50627 17.3194C8.14533 17.3058 7.79759 17.2288 7.44544 17.1609L7.35301 17.1473C7.32457 17.1304 7.29517 17.1153 7.26497 17.102C6.45945 16.8574 5.75957 16.4316 5.18734 15.793C5.05529 15.6435 4.88362 15.5031 4.88802 15.2676C4.89892 14.5729 4.95628 13.8798 5.05969 13.1932C5.13892 12.6995 5.24016 12.2057 5.3326 11.712C5.34843 11.6816 5.36169 11.6497 5.37222 11.6169C5.63868 10.5225 6.00872 9.45751 6.47706 8.43731C6.56069 8.25161 6.61792 8.04326 6.79839 7.91644C7.26901 7.57506 7.77729 7.29226 8.31259 7.07397C8.53268 6.98791 8.76598 6.94262 8.97286 6.82939L9.03008 6.82032L9.8268 6.68444C9.9399 6.66188 10.0557 6.6573 10.1701 6.67086C10.1953 6.67312 10.2191 6.68355 10.2381 6.70065C10.2571 6.71775 10.2703 6.74063 10.2758 6.76597C10.2846 6.83844 10.2186 6.82486 10.1833 6.83844C9.88402 6.92903 9.5891 7.03321 9.29418 7.15097C8.5767 7.43632 7.89443 7.79414 7.27378 8.2652C7.21656 8.30596 7.15053 8.3422 7.14173 8.43731C7.22096 8.39202 7.29139 8.34672 7.36622 8.31049C8.58686 7.70966 9.90423 7.34429 11.253 7.2325C13.1061 7.0785 14.8844 7.37291 16.5791 8.17461C16.7596 8.26067 16.9224 8.38749 17.1205 8.41919C17.0904 8.38667 17.058 8.3564 17.0237 8.32861C16.4647 7.8802 15.8352 7.54503 15.1837 7.26421C14.8668 7.12379 14.5411 7.00603 14.211 6.89733C14.0833 6.85203 14.1097 6.79315 14.1801 6.71615C14.2506 6.63915 14.3122 6.6618 14.3826 6.6618C14.7172 6.66633 15.0429 6.75691 15.373 6.8158L15.4566 6.82485C15.484 6.8449 15.5136 6.86162 15.5447 6.87468C16.1477 7.0468 16.7112 7.31856 17.2526 7.6492C17.5431 7.82585 17.794 8.02514 17.9348 8.36937C18.1945 8.99443 18.4675 9.61495 18.6743 10.2626C18.8064 10.6975 18.934 11.1278 19.0661 11.558ZM9.55829 14.167C9.74756 14.253 9.94565 14.244 10.1349 14.1987C10.7732 14.0447 11.1825 13.483 11.1737 12.7946C11.1649 12.1061 10.7512 11.549 10.1041 11.4176C9.72996 11.3452 9.37342 11.4222 9.0873 11.7166C9.06089 11.7166 9.03888 11.7211 9.03008 11.7528C8.68674 12.0744 8.5679 12.482 8.59871 12.944C8.62512 13.3064 8.75717 13.6189 9.03008 13.859L9.06089 13.8952C9.19001 14.0438 9.36636 14.1401 9.55829 14.167ZM13.2734 12.2601C13.142 12.6111 13.1405 12.9995 13.269 13.3517C13.5199 14.0809 14.321 14.4297 14.9901 14.1036C15.6591 13.7774 15.9805 12.7719 15.5359 12.0291C15.2718 11.5852 14.88 11.3588 14.3738 11.3995C13.8676 11.4403 13.4715 11.7437 13.2734 12.2601Z" fill="#ffffff"/>
</g>
<defs>
<clipPath id="clip0_314_369">
<rect width="14.6667" height="10.6667" fill="white" transform="translate(4.88812 6.6665)"/>
</clipPath>
</defs>
</svg>
