<svg width="24" height="24" viewBox="0 0 24 24" fill="none" xmlns="http://www.w3.org/2000/svg">
<circle cx="12" cy="12" r="11" stroke="#ffffff" stroke-width="2"/>
<g clip-path="url(#clip0_314_365)">
<path d="M9.36353 17.1699C9.42495 16.1601 9.50002 15.1504 9.55462 14.1335C9.56827 13.9628 9.67746 13.8917 9.773 13.7992L15.3554 8.54413L15.6557 8.25257C15.7035 8.2028 15.7649 8.15302 15.7171 8.0748C15.6694 7.99657 15.6011 8.0108 15.5329 8.01791C15.4646 8.02502 15.2326 8.13168 15.0961 8.22413C12.728 9.78146 10.3531 11.3317 7.98499 12.8961C7.91097 12.9517 7.82516 12.9879 7.73486 13.0015C7.64456 13.0151 7.55244 13.0058 7.46633 12.9744C6.52455 12.6544 5.58277 12.3628 4.64099 12.0499C4.36801 11.9575 4.00631 11.9077 3.99949 11.5379C3.99266 11.1681 4.34071 11.0544 4.61369 10.9406L8.06688 9.5468L17.1161 5.91302C17.2186 5.86878 17.3234 5.83079 17.4301 5.79924C17.8327 5.7068 18.1466 5.93436 18.2081 6.35391C18.2365 6.55771 18.2272 6.76529 18.1808 6.96547L16.0515 17.4046C15.8809 18.265 15.3896 18.4641 14.7139 17.9379C13.7312 17.1841 12.7485 16.4375 11.7726 15.6766C11.6293 15.5699 11.5474 15.5557 11.4177 15.6979C10.9468 16.1886 10.4623 16.665 9.98457 17.1415C9.89473 17.238 9.79115 17.3196 9.67746 17.3832C9.39766 17.5255 9.33623 17.4899 9.36353 17.1699Z" fill="#ffffff"/>
</g>
<defs>
<clipPath id="clip0_314_365">
<rect width="14.2222" height="12.4444" fill="white" transform="translate(3.99939 5.77783)"/>
</clipPath>
</defs>
</svg>
