<svg width="56" height="56" viewBox="0 0 56 56" fill="none" xmlns="http://www.w3.org/2000/svg">
<g clip-path="url(#clip0_674_14965)">
<path d="M51.3334 9.35664C49.0001 10.5 46.7134 10.9643 44.3334 11.6666C41.7177 8.71497 37.8397 8.55164 34.1134 9.94697C30.3871 11.3423 27.9464 14.7536 28.0001 18.6666V21C20.4284 21.1936 13.6851 17.745 9.33341 11.6666C9.33341 11.6666 -0.424585 29.0103 18.6667 37.3333C14.2987 40.243 9.94241 42.2053 4.66675 42C12.3854 46.207 20.7971 47.6536 28.0794 45.5396C36.4327 43.113 43.2974 36.8526 45.9317 27.475C46.7176 24.6229 47.1078 21.6763 47.0914 18.718C47.0867 18.137 50.6147 12.25 51.3334 9.3543V9.35664Z" stroke="#4EA8DE" stroke-width="2" stroke-linecap="round" stroke-linejoin="round"/>
</g>
<defs>
<clipPath id="clip0_674_14965">
<rect width="56" height="56" fill="white"/>
</clipPath>
</defs>
</svg>
