<svg width="24" height="24" viewBox="0 0 24 24" fill="none" xmlns="http://www.w3.org/2000/svg">
<circle cx="12" cy="12" r="11" stroke="#ffffff" stroke-width="2"/>
<g clip-path="url(#clip0_314_360)">
<path d="M19.54 6.91368C19.1755 7.49879 18.713 8.01058 18.1747 8.42455C18.0671 8.50978 18.0337 8.59113 18.0375 8.73447C18.0746 10.2376 17.7629 11.6632 17.1396 13.0153C16.3976 14.6307 15.318 15.9402 13.8525 16.8893C12.81 17.5634 11.6784 17.9624 10.4652 18.1329C9.61679 18.2523 8.75669 18.2497 7.90896 18.1251C6.68637 17.9469 5.51474 17.4964 4.47344 16.8041C4.46602 16.8002 4.46231 16.7924 4.44376 16.7692C6.12071 16.928 7.627 16.498 9.00343 15.421C8.7697 15.4017 8.57307 15.3862 8.38385 15.3358C7.31906 15.0569 6.57705 14.3789 6.15781 13.3213C6.09103 13.1625 6.10216 13.1509 6.27282 13.178C6.64133 13.2291 7.01558 13.2121 7.37842 13.1276C7.40453 13.1195 7.42948 13.1077 7.45263 13.0928C5.67179 12.6317 4.94833 10.9698 5.02624 9.88118C5.44919 10.102 5.88698 10.2492 6.39897 10.2608C5.72002 9.74559 5.28594 9.09475 5.11157 8.27346C4.9372 7.45217 5.05963 6.67736 5.44919 5.94517C5.50484 5.96067 5.5271 6.00715 5.55307 6.03814C6.85654 7.63941 8.48897 8.6699 10.4504 9.12962C10.8859 9.22531 11.3272 9.29002 11.7711 9.32332C11.8787 9.33107 11.8713 9.29233 11.8602 9.19935C11.6821 7.99066 11.9975 6.94467 12.8842 6.13112C13.6039 5.46866 14.4572 5.2246 15.407 5.37568C16.0531 5.47415 16.6509 5.78966 17.1099 6.27446C17.1328 6.30328 17.1634 6.32425 17.1978 6.33462C17.2322 6.34498 17.2688 6.34427 17.3029 6.33257C17.9024 6.19563 18.4798 5.96857 19.0169 5.65849L19.1616 5.58488C18.9242 6.34032 18.4864 6.89818 17.8853 7.33207C18.0746 7.33982 18.2563 7.29333 18.4344 7.24684C18.6125 7.20035 18.798 7.14999 18.9761 7.09188C19.1542 7.03377 19.3397 6.96016 19.5215 6.89431L19.54 6.91368Z" fill="#ffffff"/>
<path d="M19.5219 6.89496L19.5553 6.88721C19.5526 6.89742 19.5475 6.90676 19.5404 6.91433L19.5219 6.89496Z" fill="#ffffff"/>
</g>
<defs>
<clipPath id="clip0_314_360">
<rect width="15.1111" height="12.8889" fill="white" transform="translate(4.44376 5.3335)"/>
</clipPath>
</defs>
</svg>
