<svg width="24" height="24" viewBox="0 0 24 24" fill="none" xmlns="http://www.w3.org/2000/svg">
<circle cx="12" cy="12" r="11" stroke="#ffffff" stroke-width="2"/>
<g clip-path="url(#clip0_314_373)">
<path d="M12.2361 6.22703C13.6953 6.22283 15.1587 6.21863 16.6138 6.31945C17.1016 6.35306 17.5935 6.37826 18.073 6.46228C18.9949 6.62191 19.6025 7.32764 19.7885 8.36524C19.9108 9.06148 19.9757 9.76685 19.9828 10.474C19.9994 11.7259 20.0283 12.9819 19.9167 14.2296C19.8802 14.6409 19.8167 15.0493 19.7265 15.452C19.4868 16.4686 18.7592 17.0525 17.639 17.1491C14.799 17.4012 11.955 17.3381 9.11503 17.2919C8.2676 17.2751 7.42017 17.2205 6.581 17.1197C5.59302 17.0021 4.90267 16.3552 4.70012 15.368C4.54569 14.6078 4.46675 13.8337 4.46449 13.0575C4.44382 11.8015 4.41488 10.5497 4.53476 9.30202C4.57141 8.863 4.6419 8.42758 4.74559 7.99977C4.99362 7.05039 5.74597 6.49589 6.82903 6.39507C8.63138 6.23123 10.4337 6.21863 12.2361 6.22703ZM10.132 8.80633C10.0741 8.88614 10.0947 8.95755 10.0947 9.02476V14.2296C10.0947 14.4522 10.0947 14.4522 10.3014 14.343L15.2579 11.7301L15.4439 11.6251L10.132 8.80633Z" fill="#ffffff"/>
</g>
<defs>
<clipPath id="clip0_314_373">
<rect width="15.5556" height="11.1111" fill="white" transform="translate(4.44376 6.22217)"/>
</clipPath>
</defs>
</svg>
